<svg viewBox="0 0 2000 1000" xmlns="http://www.w3.org/2000/svg"><mask id="b" x="0" y="0" width="2000" height="1000"><path fill="url(#a)" d="M0 0h2000v1000H0z"/></mask><path d="M0 0h2000v1000H0z"/><g style="transform-origin:center center" mask="url(#b)"><path stroke="#444" stroke-width=".9195360000000001" fill="none" d="m99.772 0 49.771 28.736v57.47l-49.771 28.737L50 86.207V28.736Z"/><path stroke="#444" stroke-width=".9195360000000001" fill="#44444404" d="m199.772 0 49.771 28.736v57.47l-49.771 28.737L150 86.207V28.736Z"/><path stroke="#444" stroke-width=".9195360000000001" fill="none" d="m299.772 0 49.771 28.736v57.47l-49.771 28.737L250 86.207V28.736Z"/><path stroke="#444" stroke-width=".9195360000000001" fill="#444444f8" d="m399.772 0 49.771 28.736v57.47l-49.771 28.737L350 86.207V28.736Z"/><path stroke="#444" stroke-width=".9195360000000001" fill="none" d="m499.772 0 49.771 28.736v57.47l-49.771 28.737L450 86.207V28.736Z"/><path stroke="#444" stroke-width=".9195360000000001" fill="#44444419" d="m599.772 0 49.771 28.736v57.47l-49.771 28.737L550 86.207V28.736Z"/><path stroke="#444" stroke-width=".9195360000000001" fill="#444444a7" d="m699.772 0 49.771 28.736v57.47l-49.771 28.737L650 86.207V28.736Z"/><path stroke="#444" stroke-width=".9195360000000001" fill="none" d="m799.772 0 49.771 28.736v57.47l-49.771 28.737L750 86.207V28.736ZM899.772 0l49.771 28.736v57.47l-49.771 28.737L850 86.207V28.736Z"/><path stroke="#444" stroke-width=".9195360000000001" fill="#444444c8" d="m999.772 0 49.771 28.736v57.47l-49.771 28.737L950 86.207V28.736Z"/><path stroke="#444" stroke-width=".9195360000000001" fill="none" d="m1099.772 0 49.771 28.736v57.47l-49.771 28.737L1050 86.207V28.736ZM1199.772 0l49.771 28.736v57.47l-49.771 28.737L1150 86.207V28.736ZM1299.772 0l49.771 28.736v57.47l-49.771 28.737L1250 86.207V28.736Z"/><path stroke="#444" stroke-width=".9195360000000001" fill="#444444b6" d="m1399.772 0 49.771 28.736v57.47l-49.771 28.737L1350 86.207V28.736Z"/><path stroke="#444" stroke-width=".9195360000000001" fill="none" d="m1499.772 0 49.771 28.736v57.47l-49.771 28.737L1450 86.207V28.736ZM1599.772 0l49.771 28.736v57.47l-49.771 28.737L1550 86.207V28.736ZM1699.772 0l49.771 28.736v57.47l-49.771 28.737L1650 86.207V28.736Z"/><path stroke="#444" stroke-width=".9195360000000001" fill="#44444426" d="m1799.772 0 49.771 28.736v57.47l-49.771 28.737L1750 86.207V28.736Z"/><path stroke="#444" stroke-width=".9195360000000001" fill="#444444c1" d="m1899.772 0 49.771 28.736v57.47l-49.771 28.737L1850 86.207V28.736Z"/><path stroke="#444" stroke-width=".9195360000000001" fill="none" d="m1999.772 0 49.771 28.736v57.47l-49.771 28.737L1950 86.207V28.736Z"/><path stroke="#444" stroke-width=".9195360000000001" fill="#444444ec" d="m49.772 86.207 49.771 28.736v57.47L49.772 201.15 0 172.414v-57.471Z"/><path stroke="#444" stroke-width=".9195360000000001" fill="#44444464" d="m149.772 86.207 49.771 28.736v57.47l-49.771 28.736L100 172.414v-57.471Z"/><path stroke="#444" stroke-width=".9195360000000001" fill="none" d="m249.772 86.207 49.771 28.736v57.47l-49.771 28.736L200 172.414v-57.471ZM349.772 86.207l49.771 28.736v57.47l-49.771 28.736L300 172.414v-57.471ZM449.772 86.207l49.771 28.736v57.47l-49.771 28.736L400 172.414v-57.471ZM549.772 86.207l49.771 28.736v57.47l-49.771 28.736L500 172.414v-57.471Z"/><path stroke="#444" stroke-width=".9195360000000001" fill="#4444447a" d="m649.772 86.207 49.771 28.736v57.47l-49.771 28.736L600 172.414v-57.471ZM749.772 86.207l49.771 28.736v57.47l-49.771 28.736L700 172.414v-57.471Z"/><path stroke="#444" stroke-width=".9195360000000001" fill="none" d="m849.772 86.207 49.771 28.736v57.47l-49.771 28.736L800 172.414v-57.471ZM949.772 86.207l49.771 28.736v57.47l-49.771 28.736L900 172.414v-57.471Z"/><path stroke="#444" stroke-width=".9195360000000001" fill="#44444494" d="m1049.772 86.207 49.771 28.736v57.47l-49.771 28.736L1000 172.414v-57.471Z"/><path stroke="#444" stroke-width=".9195360000000001" fill="none" d="m1149.772 86.207 49.771 28.736v57.47l-49.771 28.736L1100 172.414v-57.471ZM1249.772 86.207l49.771 28.736v57.47l-49.771 28.736L1200 172.414v-57.471Z"/><path stroke="#444" stroke-width=".9195360000000001" fill="#444444bf" d="m1349.772 86.207 49.771 28.736v57.47l-49.771 28.736L1300 172.414v-57.471Z"/><path stroke="#444" stroke-width=".9195360000000001" fill="none" d="m1449.772 86.207 49.771 28.736v57.47l-49.771 28.736L1400 172.414v-57.471ZM1549.772 86.207l49.771 28.736v57.47l-49.771 28.736L1500 172.414v-57.471ZM1649.772 86.207l49.771 28.736v57.47l-49.771 28.736L1600 172.414v-57.471ZM1749.772 86.207l49.771 28.736v57.47l-49.771 28.736L1700 172.414v-57.471ZM1849.772 86.207l49.771 28.736v57.47l-49.771 28.736L1800 172.414v-57.471ZM1949.772 86.207l49.771 28.736v57.47l-49.771 28.736L1900 172.414v-57.471ZM99.772 172.414l49.771 28.735v57.472l-49.771 28.735L50 258.621v-57.472Z"/><path stroke="#444" stroke-width=".9195360000000001" fill="#44444436" d="m199.772 172.414 49.771 28.735v57.472l-49.771 28.735L150 258.621v-57.472Z"/><path stroke="#444" stroke-width=".9195360000000001" fill="none" d="m299.772 172.414 49.771 28.735v57.472l-49.771 28.735L250 258.621v-57.472ZM399.772 172.414l49.771 28.735v57.472l-49.771 28.735L350 258.621v-57.472ZM499.772 172.414l49.771 28.735v57.472l-49.771 28.735L450 258.621v-57.472ZM599.772 172.414l49.771 28.735v57.472l-49.771 28.735L550 258.621v-57.472Z"/><path stroke="#444" stroke-width=".9195360000000001" fill="#444444c0" d="m699.772 172.414 49.771 28.735v57.472l-49.771 28.735L650 258.621v-57.472Z"/><path stroke="#444" stroke-width=".9195360000000001" fill="none" d="m799.772 172.414 49.771 28.735v57.472l-49.771 28.735L750 258.621v-57.472ZM899.772 172.414l49.771 28.735v57.472l-49.771 28.735L850 258.621v-57.472ZM999.772 172.414l49.771 28.735v57.472l-49.771 28.735L950 258.621v-57.472ZM1099.772 172.414l49.771 28.735v57.472l-49.771 28.735L1050 258.621v-57.472ZM1199.772 172.414l49.771 28.735v57.472l-49.771 28.735L1150 258.621v-57.472ZM1299.772 172.414l49.771 28.735v57.472l-49.771 28.735L1250 258.621v-57.472ZM1399.772 172.414l49.771 28.735v57.472l-49.771 28.735L1350 258.621v-57.472ZM1499.772 172.414l49.771 28.735v57.472l-49.771 28.735L1450 258.621v-57.472ZM1599.772 172.414l49.771 28.735v57.472l-49.771 28.735L1550 258.621v-57.472ZM1699.772 172.414l49.771 28.735v57.472l-49.771 28.735L1650 258.621v-57.472ZM1799.772 172.414l49.771 28.735v57.472l-49.771 28.735L1750 258.621v-57.472ZM1899.772 172.414l49.771 28.735v57.472l-49.771 28.735L1850 258.621v-57.472ZM1999.772 172.414l49.771 28.735v57.472l-49.771 28.735L1950 258.621v-57.472ZM49.772 258.62l49.771 28.736v57.472l-49.771 28.735L0 344.828v-57.472ZM149.772 258.62l49.771 28.736v57.472l-49.771 28.735L100 344.828v-57.472ZM249.772 258.62l49.771 28.736v57.472l-49.771 28.735L200 344.828v-57.472ZM349.772 258.62l49.771 28.736v57.472l-49.771 28.735L300 344.828v-57.472ZM449.772 258.62l49.771 28.736v57.472l-49.771 28.735L400 344.828v-57.472Z"/><path stroke="#444" stroke-width=".9195360000000001" fill="#444444b0" d="m549.772 258.62 49.771 28.736v57.472l-49.771 28.735L500 344.828v-57.472Z"/><path stroke="#444" stroke-width=".9195360000000001" fill="#44444408" d="m649.772 258.62 49.771 28.736v57.472l-49.771 28.735L600 344.828v-57.472Z"/><path stroke="#444" stroke-width=".9195360000000001" fill="#444444d9" d="m749.772 258.62 49.771 28.736v57.472l-49.771 28.735L700 344.828v-57.472Z"/><path stroke="#444" stroke-width=".9195360000000001" fill="#4444441a" d="m849.772 258.62 49.771 28.736v57.472l-49.771 28.735L800 344.828v-57.472Z"/><path stroke="#444" stroke-width=".9195360000000001" fill="none" d="m949.772 258.62 49.771 28.736v57.472l-49.771 28.735L900 344.828v-57.472ZM1049.772 258.62l49.771 28.736v57.472l-49.771 28.735L1000 344.828v-57.472ZM1149.772 258.62l49.771 28.736v57.472l-49.771 28.735L1100 344.828v-57.472ZM1249.772 258.62l49.771 28.736v57.472l-49.771 28.735L1200 344.828v-57.472Z"/><path stroke="#444" stroke-width=".9195360000000001" fill="#444444c0" d="m1349.772 258.62 49.771 28.736v57.472l-49.771 28.735L1300 344.828v-57.472Z"/><path stroke="#444" stroke-width=".9195360000000001" fill="#44444490" d="m1449.772 258.62 49.771 28.736v57.472l-49.771 28.735L1400 344.828v-57.472Z"/><path stroke="#444" stroke-width=".9195360000000001" fill="none" d="m1549.772 258.62 49.771 28.736v57.472l-49.771 28.735L1500 344.828v-57.472Z"/><path stroke="#444" stroke-width=".9195360000000001" fill="#4444444a" d="m1649.772 258.62 49.771 28.736v57.472l-49.771 28.735L1600 344.828v-57.472Z"/><path stroke="#444" stroke-width=".9195360000000001" fill="none" d="m1749.772 258.62 49.771 28.736v57.472l-49.771 28.735L1700 344.828v-57.472ZM1849.772 258.62l49.771 28.736v57.472l-49.771 28.735L1800 344.828v-57.472ZM1949.772 258.62l49.771 28.736v57.472l-49.771 28.735L1900 344.828v-57.472ZM99.772 344.828l49.771 28.735v57.471L99.772 459.77 50 431.034v-57.47ZM199.772 344.828l49.771 28.735v57.471l-49.771 28.736L150 431.034v-57.47ZM299.772 344.828l49.771 28.735v57.471l-49.771 28.736L250 431.034v-57.47ZM399.772 344.828l49.771 28.735v57.471l-49.771 28.736L350 431.034v-57.47ZM499.772 344.828l49.771 28.735v57.471l-49.771 28.736L450 431.034v-57.47ZM599.772 344.828l49.771 28.735v57.471l-49.771 28.736L550 431.034v-57.47ZM699.772 344.828l49.771 28.735v57.471l-49.771 28.736L650 431.034v-57.47Z"/><path stroke="#444" stroke-width=".9195360000000001" fill="#4444443f" d="m799.772 344.828 49.771 28.735v57.471l-49.771 28.736L750 431.034v-57.47Z"/><path stroke="#444" stroke-width=".9195360000000001" fill="none" d="m899.772 344.828 49.771 28.735v57.471l-49.771 28.736L850 431.034v-57.47Z"/><path stroke="#444" stroke-width=".9195360000000001" fill="#44444407" d="m999.772 344.828 49.771 28.735v57.471l-49.771 28.736L950 431.034v-57.47Z"/><path stroke="#444" stroke-width=".9195360000000001" fill="#444444b4" d="m1099.772 344.828 49.771 28.735v57.471l-49.771 28.736L1050 431.034v-57.47Z"/><path stroke="#444" stroke-width=".9195360000000001" fill="#4444447d" d="m1199.772 344.828 49.771 28.735v57.471l-49.771 28.736L1150 431.034v-57.47Z"/><path stroke="#444" stroke-width=".9195360000000001" fill="none" d="m1299.772 344.828 49.771 28.735v57.471l-49.771 28.736L1250 431.034v-57.47ZM1399.772 344.828l49.771 28.735v57.471l-49.771 28.736L1350 431.034v-57.47ZM1499.772 344.828l49.771 28.735v57.471l-49.771 28.736L1450 431.034v-57.47ZM1599.772 344.828l49.771 28.735v57.471l-49.771 28.736L1550 431.034v-57.47ZM1699.772 344.828l49.771 28.735v57.471l-49.771 28.736L1650 431.034v-57.47ZM1799.772 344.828l49.771 28.735v57.471l-49.771 28.736L1750 431.034v-57.47ZM1899.772 344.828l49.771 28.735v57.471l-49.771 28.736L1850 431.034v-57.47ZM1999.772 344.828l49.771 28.735v57.471l-49.771 28.736L1950 431.034v-57.47ZM49.772 431.034l49.771 28.736v57.471l-49.771 28.736L0 517.241v-57.47ZM149.772 431.034l49.771 28.736v57.471l-49.771 28.736L100 517.241v-57.47ZM249.772 431.034l49.771 28.736v57.471l-49.771 28.736L200 517.241v-57.47ZM349.772 431.034l49.771 28.736v57.471l-49.771 28.736L300 517.241v-57.47ZM449.772 431.034l49.771 28.736v57.471l-49.771 28.736L400 517.241v-57.47ZM549.772 431.034l49.771 28.736v57.471l-49.771 28.736L500 517.241v-57.47ZM649.772 431.034l49.771 28.736v57.471l-49.771 28.736L600 517.241v-57.47Z"/><path stroke="#444" stroke-width=".9195360000000001" fill="#44444464" d="m749.772 431.034 49.771 28.736v57.471l-49.771 28.736L700 517.241v-57.47Z"/><path stroke="#444" stroke-width=".9195360000000001" fill="none" d="m849.772 431.034 49.771 28.736v57.471l-49.771 28.736L800 517.241v-57.47Z"/><path stroke="#444" stroke-width=".9195360000000001" fill="#44444483" d="m949.772 431.034 49.771 28.736v57.471l-49.771 28.736L900 517.241v-57.47Z"/><path stroke="#444" stroke-width=".9195360000000001" fill="none" d="m1049.772 431.034 49.771 28.736v57.471l-49.771 28.736L1000 517.241v-57.47ZM1149.772 431.034l49.771 28.736v57.471l-49.771 28.736L1100 517.241v-57.47ZM1249.772 431.034l49.771 28.736v57.471l-49.771 28.736L1200 517.241v-57.47ZM1349.772 431.034l49.771 28.736v57.471l-49.771 28.736L1300 517.241v-57.47ZM1449.772 431.034l49.771 28.736v57.471l-49.771 28.736L1400 517.241v-57.47Z"/><path stroke="#444" stroke-width=".9195360000000001" fill="#4444442d" d="m1549.772 431.034 49.771 28.736v57.471l-49.771 28.736L1500 517.241v-57.47Z"/><path stroke="#444" stroke-width=".9195360000000001" fill="#444444d3" d="m1649.772 431.034 49.771 28.736v57.471l-49.771 28.736L1600 517.241v-57.47Z"/><path stroke="#444" stroke-width=".9195360000000001" fill="#4444443f" d="m1749.772 431.034 49.771 28.736v57.471l-49.771 28.736L1700 517.241v-57.47Z"/><path stroke="#444" stroke-width=".9195360000000001" fill="none" d="m1849.772 431.034 49.771 28.736v57.471l-49.771 28.736L1800 517.241v-57.47Z"/><path stroke="#444" stroke-width=".9195360000000001" fill="#44444412" d="m1949.772 431.034 49.771 28.736v57.471l-49.771 28.736L1900 517.241v-57.47Z"/><path stroke="#444" stroke-width=".9195360000000001" fill="none" d="m99.772 517.241 49.771 28.736v57.471l-49.771 28.736L50 603.448v-57.471Z"/><path stroke="#444" stroke-width=".9195360000000001" fill="#44444461" d="m199.772 517.241 49.771 28.736v57.471l-49.771 28.736L150 603.448v-57.471Z"/><path stroke="#444" stroke-width=".9195360000000001" fill="none" d="m299.772 517.241 49.771 28.736v57.471l-49.771 28.736L250 603.448v-57.471ZM399.772 517.241l49.771 28.736v57.471l-49.771 28.736L350 603.448v-57.471Z"/><path stroke="#444" stroke-width=".9195360000000001" fill="#44444436" d="m499.772 517.241 49.771 28.736v57.471l-49.771 28.736L450 603.448v-57.471Z"/><path stroke="#444" stroke-width=".9195360000000001" fill="#444444da" d="m599.772 517.241 49.771 28.736v57.471l-49.771 28.736L550 603.448v-57.471Z"/><path stroke="#444" stroke-width=".9195360000000001" fill="#44444459" d="m699.772 517.241 49.771 28.736v57.471l-49.771 28.736L650 603.448v-57.471Z"/><path stroke="#444" stroke-width=".9195360000000001" fill="none" d="m799.772 517.241 49.771 28.736v57.471l-49.771 28.736L750 603.448v-57.471ZM899.772 517.241l49.771 28.736v57.471l-49.771 28.736L850 603.448v-57.471ZM999.772 517.241l49.771 28.736v57.471l-49.771 28.736L950 603.448v-57.471Z"/><path stroke="#444" stroke-width=".9195360000000001" fill="#444444d0" d="m1099.772 517.241 49.771 28.736v57.471l-49.771 28.736L1050 603.448v-57.471Z"/><path stroke="#444" stroke-width=".9195360000000001" fill="#4444440f" d="m1199.772 517.241 49.771 28.736v57.471l-49.771 28.736L1150 603.448v-57.471Z"/><path stroke="#444" stroke-width=".9195360000000001" fill="none" d="m1299.772 517.241 49.771 28.736v57.471l-49.771 28.736L1250 603.448v-57.471Z"/><path stroke="#444" stroke-width=".9195360000000001" fill="#44444448" d="m1399.772 517.241 49.771 28.736v57.471l-49.771 28.736L1350 603.448v-57.471Z"/><path stroke="#444" stroke-width=".9195360000000001" fill="none" d="m1499.772 517.241 49.771 28.736v57.471l-49.771 28.736L1450 603.448v-57.471ZM1599.772 517.241l49.771 28.736v57.471l-49.771 28.736L1550 603.448v-57.471Z"/><path stroke="#444" stroke-width=".9195360000000001" fill="#444444f2" d="m1699.772 517.241 49.771 28.736v57.471l-49.771 28.736L1650 603.448v-57.471Z"/><path stroke="#444" stroke-width=".9195360000000001" fill="none" d="m1799.772 517.241 49.771 28.736v57.471l-49.771 28.736L1750 603.448v-57.471ZM1899.772 517.241l49.771 28.736v57.471l-49.771 28.736L1850 603.448v-57.471ZM1999.772 517.241l49.771 28.736v57.471l-49.771 28.736L1950 603.448v-57.471ZM49.772 603.448l49.771 28.736v57.471l-49.771 28.736L0 689.655v-57.471Z"/><path stroke="#444" stroke-width=".9195360000000001" fill="#44444478" d="m149.772 603.448 49.771 28.736v57.471l-49.771 28.736L100 689.655v-57.471Z"/><path stroke="#444" stroke-width=".9195360000000001" fill="#444444ac" d="m249.772 603.448 49.771 28.736v57.471l-49.771 28.736L200 689.655v-57.471Z"/><path stroke="#444" stroke-width=".9195360000000001" fill="none" d="m349.772 603.448 49.771 28.736v57.471l-49.771 28.736L300 689.655v-57.471Z"/><path stroke="#444" stroke-width=".9195360000000001" fill="#444444ca" d="m449.772 603.448 49.771 28.736v57.471l-49.771 28.736L400 689.655v-57.471Z"/><path stroke="#444" stroke-width=".9195360000000001" fill="#44444454" d="m549.772 603.448 49.771 28.736v57.471l-49.771 28.736L500 689.655v-57.471Z"/><path stroke="#444" stroke-width=".9195360000000001" fill="#44444453" d="m649.772 603.448 49.771 28.736v57.471l-49.771 28.736L600 689.655v-57.471Z"/><path stroke="#444" stroke-width=".9195360000000001" fill="none" d="m749.772 603.448 49.771 28.736v57.471l-49.771 28.736L700 689.655v-57.471ZM849.772 603.448l49.771 28.736v57.471l-49.771 28.736L800 689.655v-57.471ZM949.772 603.448l49.771 28.736v57.471l-49.771 28.736L900 689.655v-57.471Z"/><path stroke="#444" stroke-width=".9195360000000001" fill="#444444f4" d="m1049.772 603.448 49.771 28.736v57.471l-49.771 28.736L1000 689.655v-57.471Z"/><path stroke="#444" stroke-width=".9195360000000001" fill="none" d="m1149.772 603.448 49.771 28.736v57.471l-49.771 28.736L1100 689.655v-57.471ZM1249.772 603.448l49.771 28.736v57.471l-49.771 28.736L1200 689.655v-57.471Z"/><path stroke="#444" stroke-width=".9195360000000001" fill="#4444441b" d="m1349.772 603.448 49.771 28.736v57.471l-49.771 28.736L1300 689.655v-57.471Z"/><path stroke="#444" stroke-width=".9195360000000001" fill="none" d="m1449.772 603.448 49.771 28.736v57.471l-49.771 28.736L1400 689.655v-57.471ZM1549.772 603.448l49.771 28.736v57.471l-49.771 28.736L1500 689.655v-57.471ZM1649.772 603.448l49.771 28.736v57.471l-49.771 28.736L1600 689.655v-57.471ZM1749.772 603.448l49.771 28.736v57.471l-49.771 28.736L1700 689.655v-57.471ZM1849.772 603.448l49.771 28.736v57.471l-49.771 28.736L1800 689.655v-57.471ZM1949.772 603.448l49.771 28.736v57.471l-49.771 28.736L1900 689.655v-57.471ZM99.772 689.655l49.771 28.736v57.471l-49.771 28.736L50 775.862v-57.471ZM199.772 689.655l49.771 28.736v57.471l-49.771 28.736L150 775.862v-57.471ZM299.772 689.655l49.771 28.736v57.471l-49.771 28.736L250 775.862v-57.471ZM399.772 689.655l49.771 28.736v57.471l-49.771 28.736L350 775.862v-57.471Z"/><path stroke="#444" stroke-width=".9195360000000001" fill="#44444466" d="m499.772 689.655 49.771 28.736v57.471l-49.771 28.736L450 775.862v-57.471Z"/><path stroke="#444" stroke-width=".9195360000000001" fill="none" d="m599.772 689.655 49.771 28.736v57.471l-49.771 28.736L550 775.862v-57.471ZM699.772 689.655l49.771 28.736v57.471l-49.771 28.736L650 775.862v-57.471ZM799.772 689.655l49.771 28.736v57.471l-49.771 28.736L750 775.862v-57.471ZM899.772 689.655l49.771 28.736v57.471l-49.771 28.736L850 775.862v-57.471ZM999.772 689.655l49.771 28.736v57.471l-49.771 28.736L950 775.862v-57.471ZM1099.772 689.655l49.771 28.736v57.471l-49.771 28.736L1050 775.862v-57.471ZM1199.772 689.655l49.771 28.736v57.471l-49.771 28.736L1150 775.862v-57.471ZM1299.772 689.655l49.771 28.736v57.471l-49.771 28.736L1250 775.862v-57.471ZM1399.772 689.655l49.771 28.736v57.471l-49.771 28.736L1350 775.862v-57.471ZM1499.772 689.655l49.771 28.736v57.471l-49.771 28.736L1450 775.862v-57.471Z"/><path stroke="#444" stroke-width=".9195360000000001" fill="#44444451" d="m1599.772 689.655 49.771 28.736v57.471l-49.771 28.736L1550 775.862v-57.471Z"/><path stroke="#444" stroke-width=".9195360000000001" fill="none" d="m1699.772 689.655 49.771 28.736v57.471l-49.771 28.736L1650 775.862v-57.471Z"/><path stroke="#444" stroke-width=".9195360000000001" fill="#444444ef" d="m1799.772 689.655 49.771 28.736v57.471l-49.771 28.736L1750 775.862v-57.471Z"/><path stroke="#444" stroke-width=".9195360000000001" fill="none" d="m1899.772 689.655 49.771 28.736v57.471l-49.771 28.736L1850 775.862v-57.471ZM1999.772 689.655l49.771 28.736v57.471l-49.771 28.736L1950 775.862v-57.471ZM49.772 775.862l49.771 28.736v57.471l-49.771 28.736L0 862.069v-57.471ZM149.772 775.862l49.771 28.736v57.471l-49.771 28.736L100 862.069v-57.471ZM249.772 775.862l49.771 28.736v57.471l-49.771 28.736L200 862.069v-57.471ZM349.772 775.862l49.771 28.736v57.471l-49.771 28.736L300 862.069v-57.471Z"/><path stroke="#444" stroke-width=".9195360000000001" fill="#444444aa" d="m449.772 775.862 49.771 28.736v57.471l-49.771 28.736L400 862.069v-57.471Z"/><path stroke="#444" stroke-width=".9195360000000001" fill="none" d="m549.772 775.862 49.771 28.736v57.471l-49.771 28.736L500 862.069v-57.471ZM649.772 775.862l49.771 28.736v57.471l-49.771 28.736L600 862.069v-57.471ZM749.772 775.862l49.771 28.736v57.471l-49.771 28.736L700 862.069v-57.471ZM849.772 775.862l49.771 28.736v57.471l-49.771 28.736L800 862.069v-57.471ZM949.772 775.862l49.771 28.736v57.471l-49.771 28.736L900 862.069v-57.471ZM1049.772 775.862l49.771 28.736v57.471l-49.771 28.736L1000 862.069v-57.471ZM1149.772 775.862l49.771 28.736v57.471l-49.771 28.736L1100 862.069v-57.471Z"/><path stroke="#444" stroke-width=".9195360000000001" fill="#4444448b" d="m1249.772 775.862 49.771 28.736v57.471l-49.771 28.736L1200 862.069v-57.471Z"/><path stroke="#444" stroke-width=".9195360000000001" fill="none" d="m1349.772 775.862 49.771 28.736v57.471l-49.771 28.736L1300 862.069v-57.471ZM1449.772 775.862l49.771 28.736v57.471l-49.771 28.736L1400 862.069v-57.471ZM1549.772 775.862l49.771 28.736v57.471l-49.771 28.736L1500 862.069v-57.471Z"/><path stroke="#444" stroke-width=".9195360000000001" fill="#444444f1" d="m1649.772 775.862 49.771 28.736v57.471l-49.771 28.736L1600 862.069v-57.471Z"/><path stroke="#444" stroke-width=".9195360000000001" fill="none" d="m1749.772 775.862 49.771 28.736v57.471l-49.771 28.736L1700 862.069v-57.471Z"/><path stroke="#444" stroke-width=".9195360000000001" fill="#444444ec" d="m1849.772 775.862 49.771 28.736v57.471l-49.771 28.736L1800 862.069v-57.471Z"/><path stroke="#444" stroke-width=".9195360000000001" fill="none" d="m1949.772 775.862 49.771 28.736v57.471l-49.771 28.736L1900 862.069v-57.471ZM99.772 862.069l49.771 28.736v57.47l-49.771 28.736L50 948.276v-57.471ZM199.772 862.069l49.771 28.736v57.47l-49.771 28.736L150 948.276v-57.471Z"/><path stroke="#444" stroke-width=".9195360000000001" fill="#4444443b" d="m299.772 862.069 49.771 28.736v57.47l-49.771 28.736L250 948.276v-57.471Z"/><path stroke="#444" stroke-width=".9195360000000001" fill="none" d="m399.772 862.069 49.771 28.736v57.47l-49.771 28.736L350 948.276v-57.471Z"/><path stroke="#444" stroke-width=".9195360000000001" fill="#444444cd" d="m499.772 862.069 49.771 28.736v57.47l-49.771 28.736L450 948.276v-57.471Z"/><path stroke="#444" stroke-width=".9195360000000001" fill="none" d="m599.772 862.069 49.771 28.736v57.47l-49.771 28.736L550 948.276v-57.471ZM699.772 862.069l49.771 28.736v57.47l-49.771 28.736L650 948.276v-57.471ZM799.772 862.069l49.771 28.736v57.47l-49.771 28.736L750 948.276v-57.471ZM899.772 862.069l49.771 28.736v57.47l-49.771 28.736L850 948.276v-57.471Z"/><path stroke="#444" stroke-width=".9195360000000001" fill="#44444458" d="m999.772 862.069 49.771 28.736v57.47l-49.771 28.736L950 948.276v-57.471Z"/><path stroke="#444" stroke-width=".9195360000000001" fill="none" d="m1099.772 862.069 49.771 28.736v57.47l-49.771 28.736L1050 948.276v-57.471ZM1199.772 862.069l49.771 28.736v57.47l-49.771 28.736L1150 948.276v-57.471Z"/><path stroke="#444" stroke-width=".9195360000000001" fill="#44444432" d="m1299.772 862.069 49.771 28.736v57.47l-49.771 28.736L1250 948.276v-57.471Z"/><path stroke="#444" stroke-width=".9195360000000001" fill="none" d="m1399.772 862.069 49.771 28.736v57.47l-49.771 28.736L1350 948.276v-57.471ZM1499.772 862.069l49.771 28.736v57.47l-49.771 28.736L1450 948.276v-57.471ZM1599.772 862.069l49.771 28.736v57.47l-49.771 28.736L1550 948.276v-57.471Z"/><path stroke="#444" stroke-width=".9195360000000001" fill="#44444431" d="m1699.772 862.069 49.771 28.736v57.47l-49.771 28.736L1650 948.276v-57.471Z"/><path stroke="#444" stroke-width=".9195360000000001" fill="none" d="m1799.772 862.069 49.771 28.736v57.47l-49.771 28.736L1750 948.276v-57.471Z"/><path stroke="#444" stroke-width=".9195360000000001" fill="#44444412" d="m1899.772 862.069 49.771 28.736v57.47l-49.771 28.736L1850 948.276v-57.471Z"/><path stroke="#444" stroke-width=".9195360000000001" fill="none" d="m1999.772 862.069 49.771 28.736v57.47l-49.771 28.736L1950 948.276v-57.471ZM49.772 948.276l49.771 28.735v57.472l-49.771 28.735L0 1034.483V977.01ZM149.772 948.276l49.771 28.735v57.472l-49.771 28.735L100 1034.483V977.01ZM249.772 948.276l49.771 28.735v57.472l-49.771 28.735L200 1034.483V977.01ZM349.772 948.276l49.771 28.735v57.472l-49.771 28.735L300 1034.483V977.01Z"/><path stroke="#444" stroke-width=".9195360000000001" fill="#44444481" d="m449.772 948.276 49.771 28.735v57.472l-49.771 28.735L400 1034.483V977.01Z"/><path stroke="#444" stroke-width=".9195360000000001" fill="none" d="m549.772 948.276 49.771 28.735v57.472l-49.771 28.735L500 1034.483V977.01Z"/><path stroke="#444" stroke-width=".9195360000000001" fill="#4444444c" d="m649.772 948.276 49.771 28.735v57.472l-49.771 28.735L600 1034.483V977.01Z"/><path stroke="#444" stroke-width=".9195360000000001" fill="none" d="m749.772 948.276 49.771 28.735v57.472l-49.771 28.735L700 1034.483V977.01ZM849.772 948.276l49.771 28.735v57.472l-49.771 28.735L800 1034.483V977.01Z"/><path stroke="#444" stroke-width=".9195360000000001" fill="#444444d4" d="m949.772 948.276 49.771 28.735v57.472l-49.771 28.735L900 1034.483V977.01Z"/><path stroke="#444" stroke-width=".9195360000000001" fill="none" d="m1049.772 948.276 49.771 28.735v57.472l-49.771 28.735-49.772-28.735V977.01ZM1149.772 948.276l49.771 28.735v57.472l-49.771 28.735-49.772-28.735V977.01ZM1249.772 948.276l49.771 28.735v57.472l-49.771 28.735-49.772-28.735V977.01ZM1349.772 948.276l49.771 28.735v57.472l-49.771 28.735-49.772-28.735V977.01ZM1449.772 948.276l49.771 28.735v57.472l-49.771 28.735-49.772-28.735V977.01ZM1549.772 948.276l49.771 28.735v57.472l-49.771 28.735-49.772-28.735V977.01ZM1649.772 948.276l49.771 28.735v57.472l-49.771 28.735-49.772-28.735V977.01ZM1749.772 948.276l49.771 28.735v57.472l-49.771 28.735-49.772-28.735V977.01ZM1849.772 948.276l49.771 28.735v57.472l-49.771 28.735-49.772-28.735V977.01Z"/><path stroke="#444" stroke-width=".9195360000000001" fill="#444444ee" d="m1949.772 948.276 49.771 28.735v57.472l-49.771 28.735-49.772-28.735V977.01Z"/><path stroke="#444" stroke-width=".9195360000000001" fill="none" d="m99.772 1034.483 49.771 28.735v57.472l-49.771 28.735L50 1120.69v-57.472ZM199.772 1034.483l49.771 28.735v57.472l-49.771 28.735L150 1120.69v-57.472Z"/><path stroke="#444" stroke-width=".9195360000000001" fill="#444444de" d="m299.772 1034.483 49.771 28.735v57.472l-49.771 28.735L250 1120.69v-57.472Z"/><path stroke="#444" stroke-width=".9195360000000001" fill="none" d="m399.772 1034.483 49.771 28.735v57.472l-49.771 28.735L350 1120.69v-57.472ZM499.772 1034.483l49.771 28.735v57.472l-49.771 28.735L450 1120.69v-57.472Z"/><path stroke="#444" stroke-width=".9195360000000001" fill="#44444419" d="m599.772 1034.483 49.771 28.735v57.472l-49.771 28.735L550 1120.69v-57.472Z"/><path stroke="#444" stroke-width=".9195360000000001" fill="#44444421" d="m699.772 1034.483 49.771 28.735v57.472l-49.771 28.735L650 1120.69v-57.472Z"/><path stroke="#444" stroke-width=".9195360000000001" fill="none" d="m799.772 1034.483 49.771 28.735v57.472l-49.771 28.735L750 1120.69v-57.472Z"/><path stroke="#444" stroke-width=".9195360000000001" fill="#444444bd" d="m899.772 1034.483 49.771 28.735v57.472l-49.771 28.735L850 1120.69v-57.472Z"/><path stroke="#444" stroke-width=".9195360000000001" fill="none" d="m999.772 1034.483 49.771 28.735v57.472l-49.771 28.735L950 1120.69v-57.472Z"/><path stroke="#444" stroke-width=".9195360000000001" fill="#444444c0" d="m1099.772 1034.483 49.771 28.735v57.472l-49.771 28.735L1050 1120.69v-57.472Z"/><path stroke="#444" stroke-width=".9195360000000001" fill="#44444410" d="m1199.772 1034.483 49.771 28.735v57.472l-49.771 28.735L1150 1120.69v-57.472Z"/><path stroke="#444" stroke-width=".9195360000000001" fill="none" d="m1299.772 1034.483 49.771 28.735v57.472l-49.771 28.735L1250 1120.69v-57.472ZM1399.772 1034.483l49.771 28.735v57.472l-49.771 28.735L1350 1120.69v-57.472ZM1499.772 1034.483l49.771 28.735v57.472l-49.771 28.735L1450 1120.69v-57.472ZM1599.772 1034.483l49.771 28.735v57.472l-49.771 28.735L1550 1120.69v-57.472ZM1699.772 1034.483l49.771 28.735v57.472l-49.771 28.735L1650 1120.69v-57.472Z"/><path stroke="#444" stroke-width=".9195360000000001" fill="#444444df" d="m1799.772 1034.483 49.771 28.735v57.472l-49.771 28.735L1750 1120.69v-57.472Z"/><path stroke="#444" stroke-width=".9195360000000001" fill="none" d="m1899.772 1034.483 49.771 28.735v57.472l-49.771 28.735L1850 1120.69v-57.472Z"/><path stroke="#444" stroke-width=".9195360000000001" fill="#444444a3" d="m1999.772 1034.483 49.771 28.735v57.472l-49.771 28.735L1950 1120.69v-57.472Z"/><path stroke="#444" stroke-width=".9195360000000001" fill="none" d="m49.772 1120.69 49.771 28.735v57.472l-49.771 28.735L0 1206.897v-57.472ZM149.772 1120.69l49.771 28.735v57.472l-49.771 28.735L100 1206.897v-57.472ZM249.772 1120.69l49.771 28.735v57.472l-49.771 28.735L200 1206.897v-57.472Z"/><path stroke="#444" stroke-width=".9195360000000001" fill="#4444445c" d="m349.772 1120.69 49.771 28.735v57.472l-49.771 28.735L300 1206.897v-57.472Z"/><path stroke="#444" stroke-width=".9195360000000001" fill="none" d="m449.772 1120.69 49.771 28.735v57.472l-49.771 28.735L400 1206.897v-57.472Z"/><path stroke="#444" stroke-width=".9195360000000001" fill="#4444447e" d="m549.772 1120.69 49.771 28.735v57.472l-49.771 28.735L500 1206.897v-57.472Z"/><path stroke="#444" stroke-width=".9195360000000001" fill="none" d="m649.772 1120.69 49.771 28.735v57.472l-49.771 28.735L600 1206.897v-57.472Z"/><path stroke="#444" stroke-width=".9195360000000001" fill="#4444445a" d="m749.772 1120.69 49.771 28.735v57.472l-49.771 28.735L700 1206.897v-57.472Z"/><path stroke="#444" stroke-width=".9195360000000001" fill="#4444448f" d="m849.772 1120.69 49.771 28.735v57.472l-49.771 28.735L800 1206.897v-57.472Z"/><path stroke="#444" stroke-width=".9195360000000001" fill="none" d="m949.772 1120.69 49.771 28.735v57.472l-49.771 28.735L900 1206.897v-57.472Z"/><path stroke="#444" stroke-width=".9195360000000001" fill="#444444d3" d="m1049.772 1120.69 49.771 28.735v57.472l-49.771 28.735-49.772-28.735v-57.472Z"/><path stroke="#444" stroke-width=".9195360000000001" fill="#444444e2" d="m1149.772 1120.69 49.771 28.735v57.472l-49.771 28.735-49.772-28.735v-57.472Z"/><path stroke="#444" stroke-width=".9195360000000001" fill="none" d="m1249.772 1120.69 49.771 28.735v57.472l-49.771 28.735-49.772-28.735v-57.472ZM1349.772 1120.69l49.771 28.735v57.472l-49.771 28.735-49.772-28.735v-57.472Z"/><path stroke="#444" stroke-width=".9195360000000001" fill="#444444d4" d="m1449.772 1120.69 49.771 28.735v57.472l-49.771 28.735-49.772-28.735v-57.472Z"/><path stroke="#444" stroke-width=".9195360000000001" fill="#444444c9" d="m1549.772 1120.69 49.771 28.735v57.472l-49.771 28.735-49.772-28.735v-57.472Z"/><path stroke="#444" stroke-width=".9195360000000001" fill="none" d="m1649.772 1120.69 49.771 28.735v57.472l-49.771 28.735-49.772-28.735v-57.472Z"/><path stroke="#444" stroke-width=".9195360000000001" fill="#4444445c" d="m1749.772 1120.69 49.771 28.735v57.472l-49.771 28.735-49.772-28.735v-57.472Z"/><path stroke="#444" stroke-width=".9195360000000001" fill="none" d="m1849.772 1120.69 49.771 28.735v57.472l-49.771 28.735-49.772-28.735v-57.472ZM1949.772 1120.69l49.771 28.735v57.472l-49.771 28.735-49.772-28.735v-57.472Z"/><path stroke="#444" stroke-width=".9195360000000001" fill="#44444491" d="m99.772 1206.897 49.771 28.735v57.471l-49.771 28.736L50 1293.103v-57.47Z"/><path stroke="#444" stroke-width=".9195360000000001" fill="none" d="m199.772 1206.897 49.771 28.735v57.471l-49.771 28.736L150 1293.103v-57.47Z"/><path stroke="#444" stroke-width=".9195360000000001" fill="#4444444f" d="m299.772 1206.897 49.771 28.735v57.471l-49.771 28.736L250 1293.103v-57.47Z"/><path stroke="#444" stroke-width=".9195360000000001" fill="#444444de" d="m399.772 1206.897 49.771 28.735v57.471l-49.771 28.736L350 1293.103v-57.47Z"/><path stroke="#444" stroke-width=".9195360000000001" fill="none" d="m499.772 1206.897 49.771 28.735v57.471l-49.771 28.736L450 1293.103v-57.47ZM599.772 1206.897l49.771 28.735v57.471l-49.771 28.736L550 1293.103v-57.47Z"/><path stroke="#444" stroke-width=".9195360000000001" fill="#44444449" d="m699.772 1206.897 49.771 28.735v57.471l-49.771 28.736L650 1293.103v-57.47Z"/><path stroke="#444" stroke-width=".9195360000000001" fill="none" d="m799.772 1206.897 49.771 28.735v57.471l-49.771 28.736L750 1293.103v-57.47Z"/><path stroke="#444" stroke-width=".9195360000000001" fill="#44444447" d="m899.772 1206.897 49.771 28.735v57.471l-49.771 28.736L850 1293.103v-57.47Z"/><path stroke="#444" stroke-width=".9195360000000001" fill="none" d="m999.772 1206.897 49.771 28.735v57.471l-49.771 28.736L950 1293.103v-57.47Z"/><path stroke="#444" stroke-width=".9195360000000001" fill="#4444446b" d="m1099.772 1206.897 49.771 28.735v57.471l-49.771 28.736-49.772-28.736v-57.47Z"/><path stroke="#444" stroke-width=".9195360000000001" fill="none" d="m1199.772 1206.897 49.771 28.735v57.471l-49.771 28.736-49.772-28.736v-57.47ZM1299.772 1206.897l49.771 28.735v57.471l-49.771 28.736-49.772-28.736v-57.47ZM1399.772 1206.897l49.771 28.735v57.471l-49.771 28.736-49.772-28.736v-57.47ZM1499.772 1206.897l49.771 28.735v57.471l-49.771 28.736-49.772-28.736v-57.47Z"/><path stroke="#444" stroke-width=".9195360000000001" fill="#44444498" d="m1599.772 1206.897 49.771 28.735v57.471l-49.771 28.736-49.772-28.736v-57.47Z"/><path stroke="#444" stroke-width=".9195360000000001" fill="none" d="m1699.772 1206.897 49.771 28.735v57.471l-49.771 28.736-49.772-28.736v-57.47ZM1799.772 1206.897l49.771 28.735v57.471l-49.771 28.736-49.772-28.736v-57.47Z"/><path stroke="#444" stroke-width=".9195360000000001" fill="#44444465" d="m1899.772 1206.897 49.771 28.735v57.471l-49.771 28.736-49.772-28.736v-57.47Z"/><path stroke="#444" stroke-width=".9195360000000001" fill="none" d="m1999.772 1206.897 49.771 28.735v57.471l-49.771 28.736-49.772-28.736v-57.47Z"/><path stroke="#444" stroke-width=".9195360000000001" fill="#44444410" d="m49.772 1293.103 49.771 28.736v57.471l-49.771 28.736L0 1379.31v-57.47Z"/><path stroke="#444" stroke-width=".9195360000000001" fill="#44444482" d="m149.772 1293.103 49.771 28.736v57.471l-49.771 28.736L100 1379.31v-57.47Z"/><path stroke="#444" stroke-width=".9195360000000001" fill="#444444e7" d="m249.772 1293.103 49.771 28.736v57.471l-49.771 28.736L200 1379.31v-57.47Z"/><path stroke="#444" stroke-width=".9195360000000001" fill="#44444473" d="m349.772 1293.103 49.771 28.736v57.471l-49.771 28.736L300 1379.31v-57.47Z"/><path stroke="#444" stroke-width=".9195360000000001" fill="none" d="m449.772 1293.103 49.771 28.736v57.471l-49.771 28.736L400 1379.31v-57.47Z"/><path stroke="#444" stroke-width=".9195360000000001" fill="#44444454" d="m549.772 1293.103 49.771 28.736v57.471l-49.771 28.736L500 1379.31v-57.47Z"/><path stroke="#444" stroke-width=".9195360000000001" fill="none" d="m649.772 1293.103 49.771 28.736v57.471l-49.771 28.736L600 1379.31v-57.47ZM749.772 1293.103l49.771 28.736v57.471l-49.771 28.736L700 1379.31v-57.47ZM849.772 1293.103l49.771 28.736v57.471l-49.771 28.736L800 1379.31v-57.47ZM949.772 1293.103l49.771 28.736v57.471l-49.771 28.736L900 1379.31v-57.47ZM1049.772 1293.103l49.771 28.736v57.471l-49.771 28.736L1000 1379.31v-57.47ZM1149.772 1293.103l49.771 28.736v57.471l-49.771 28.736L1100 1379.31v-57.47ZM1249.772 1293.103l49.771 28.736v57.471l-49.771 28.736L1200 1379.31v-57.47ZM1349.772 1293.103l49.771 28.736v57.471l-49.771 28.736L1300 1379.31v-57.47Z"/><path stroke="#444" stroke-width=".9195360000000001" fill="#44444420" d="m1449.772 1293.103 49.771 28.736v57.471l-49.771 28.736L1400 1379.31v-57.47Z"/><path stroke="#444" stroke-width=".9195360000000001" fill="none" d="m1549.772 1293.103 49.771 28.736v57.471l-49.771 28.736L1500 1379.31v-57.47ZM1649.772 1293.103l49.771 28.736v57.471l-49.771 28.736L1600 1379.31v-57.47Z"/><path stroke="#444" stroke-width=".9195360000000001" fill="#444444e7" d="m1749.772 1293.103 49.771 28.736v57.471l-49.771 28.736L1700 1379.31v-57.47Z"/><path stroke="#444" stroke-width=".9195360000000001" fill="none" d="m1849.772 1293.103 49.771 28.736v57.471l-49.771 28.736L1800 1379.31v-57.47ZM1949.772 1293.103l49.771 28.736v57.471l-49.771 28.736L1900 1379.31v-57.47ZM99.772 1379.31l49.771 28.736v57.471l-49.771 28.736L50 1465.517v-57.471Z"/><path stroke="#444" stroke-width=".9195360000000001" fill="#444444d9" d="m199.772 1379.31 49.771 28.736v57.471l-49.771 28.736L150 1465.517v-57.471Z"/><path stroke="#444" stroke-width=".9195360000000001" fill="#444444d6" d="m299.772 1379.31 49.771 28.736v57.471l-49.771 28.736L250 1465.517v-57.471Z"/><path stroke="#444" stroke-width=".9195360000000001" fill="none" d="m399.772 1379.31 49.771 28.736v57.471l-49.771 28.736L350 1465.517v-57.471ZM499.772 1379.31l49.771 28.736v57.471l-49.771 28.736L450 1465.517v-57.471ZM599.772 1379.31l49.771 28.736v57.471l-49.771 28.736L550 1465.517v-57.471ZM699.772 1379.31l49.771 28.736v57.471l-49.771 28.736L650 1465.517v-57.471Z"/><path stroke="#444" stroke-width=".9195360000000001" fill="#44444429" d="m799.772 1379.31 49.771 28.736v57.471l-49.771 28.736L750 1465.517v-57.471Z"/><path stroke="#444" stroke-width=".9195360000000001" fill="none" d="m899.772 1379.31 49.771 28.736v57.471l-49.771 28.736L850 1465.517v-57.471ZM999.772 1379.31l49.771 28.736v57.471l-49.771 28.736L950 1465.517v-57.471ZM1099.772 1379.31l49.771 28.736v57.471l-49.771 28.736-49.772-28.736v-57.471Z"/><path stroke="#444" stroke-width=".9195360000000001" fill="#4444445d" d="m1199.772 1379.31 49.771 28.736v57.471l-49.771 28.736-49.772-28.736v-57.471Z"/><path stroke="#444" stroke-width=".9195360000000001" fill="none" d="m1299.772 1379.31 49.771 28.736v57.471l-49.771 28.736-49.772-28.736v-57.471Z"/><path stroke="#444" stroke-width=".9195360000000001" fill="#444444b5" d="m1399.772 1379.31 49.771 28.736v57.471l-49.771 28.736-49.772-28.736v-57.471Z"/><path stroke="#444" stroke-width=".9195360000000001" fill="none" d="m1499.772 1379.31 49.771 28.736v57.471l-49.771 28.736-49.772-28.736v-57.471Z"/><path stroke="#444" stroke-width=".9195360000000001" fill="#4444444a" d="m1599.772 1379.31 49.771 28.736v57.471l-49.771 28.736-49.772-28.736v-57.471Z"/><path stroke="#444" stroke-width=".9195360000000001" fill="none" d="m1699.772 1379.31 49.771 28.736v57.471l-49.771 28.736-49.772-28.736v-57.471ZM1799.772 1379.31l49.771 28.736v57.471l-49.771 28.736-49.772-28.736v-57.471ZM1899.772 1379.31l49.771 28.736v57.471l-49.771 28.736-49.772-28.736v-57.471ZM1999.772 1379.31l49.771 28.736v57.471l-49.771 28.736-49.772-28.736v-57.471ZM49.772 1465.517l49.771 28.736v57.471l-49.771 28.736L0 1551.724v-57.471Z"/><path stroke="#444" stroke-width=".9195360000000001" fill="#44444459" d="m149.772 1465.517 49.771 28.736v57.471l-49.771 28.736L100 1551.724v-57.471Z"/><path stroke="#444" stroke-width=".9195360000000001" fill="#444444b2" d="m249.772 1465.517 49.771 28.736v57.471l-49.771 28.736L200 1551.724v-57.471Z"/><path stroke="#444" stroke-width=".9195360000000001" fill="#444444b3" d="m349.772 1465.517 49.771 28.736v57.471l-49.771 28.736L300 1551.724v-57.471Z"/><path stroke="#444" stroke-width=".9195360000000001" fill="none" d="m449.772 1465.517 49.771 28.736v57.471l-49.771 28.736L400 1551.724v-57.471ZM549.772 1465.517l49.771 28.736v57.471l-49.771 28.736L500 1551.724v-57.471Z"/><path stroke="#444" stroke-width=".9195360000000001" fill="#44444408" d="m649.772 1465.517 49.771 28.736v57.471l-49.771 28.736L600 1551.724v-57.471Z"/><path stroke="#444" stroke-width=".9195360000000001" fill="none" d="m749.772 1465.517 49.771 28.736v57.471l-49.771 28.736L700 1551.724v-57.471ZM849.772 1465.517l49.771 28.736v57.471l-49.771 28.736L800 1551.724v-57.471ZM949.772 1465.517l49.771 28.736v57.471l-49.771 28.736L900 1551.724v-57.471Z"/><path stroke="#444" stroke-width=".9195360000000001" fill="#4444441d" d="m1049.772 1465.517 49.771 28.736v57.471l-49.771 28.736-49.772-28.736v-57.471Z"/><path stroke="#444" stroke-width=".9195360000000001" fill="#4444448d" d="m1149.772 1465.517 49.771 28.736v57.471l-49.771 28.736-49.772-28.736v-57.471Z"/><path stroke="#444" stroke-width=".9195360000000001" fill="#444444ec" d="m1249.772 1465.517 49.771 28.736v57.471l-49.771 28.736-49.772-28.736v-57.471Z"/><path stroke="#444" stroke-width=".9195360000000001" fill="none" d="m1349.772 1465.517 49.771 28.736v57.471l-49.771 28.736-49.772-28.736v-57.471Z"/><path stroke="#444" stroke-width=".9195360000000001" fill="#44444490" d="m1449.772 1465.517 49.771 28.736v57.471l-49.771 28.736-49.772-28.736v-57.471Z"/><path stroke="#444" stroke-width=".9195360000000001" fill="none" d="m1549.772 1465.517 49.771 28.736v57.471l-49.771 28.736-49.772-28.736v-57.471ZM1649.772 1465.517l49.771 28.736v57.471l-49.771 28.736-49.772-28.736v-57.471ZM1749.772 1465.517l49.771 28.736v57.471l-49.771 28.736-49.772-28.736v-57.471Z"/><path stroke="#444" stroke-width=".9195360000000001" fill="#444444a5" d="m1849.772 1465.517 49.771 28.736v57.471l-49.771 28.736-49.772-28.736v-57.471Z"/><path stroke="#444" stroke-width=".9195360000000001" fill="none" d="m1949.772 1465.517 49.771 28.736v57.471l-49.771 28.736-49.772-28.736v-57.471Z"/><path stroke="#444" stroke-width=".9195360000000001" fill="#444444b7" d="m99.772 1551.724 49.771 28.736v57.471l-49.771 28.736L50 1637.93v-57.471Z"/><path stroke="#444" stroke-width=".9195360000000001" fill="#44444427" d="m199.772 1551.724 49.771 28.736v57.471l-49.771 28.736L150 1637.93v-57.471Z"/><path stroke="#444" stroke-width=".9195360000000001" fill="#444444dd" d="m299.772 1551.724 49.771 28.736v57.471l-49.771 28.736L250 1637.93v-57.471Z"/><path stroke="#444" stroke-width=".9195360000000001" fill="#44444448" d="m399.772 1551.724 49.771 28.736v57.471l-49.771 28.736L350 1637.93v-57.471Z"/><path stroke="#444" stroke-width=".9195360000000001" fill="none" d="m499.772 1551.724 49.771 28.736v57.471l-49.771 28.736L450 1637.93v-57.471ZM599.772 1551.724l49.771 28.736v57.471l-49.771 28.736L550 1637.93v-57.471ZM699.772 1551.724l49.771 28.736v57.471l-49.771 28.736L650 1637.93v-57.471ZM799.772 1551.724l49.771 28.736v57.471l-49.771 28.736L750 1637.93v-57.471ZM899.772 1551.724l49.771 28.736v57.471l-49.771 28.736L850 1637.93v-57.471ZM999.772 1551.724l49.771 28.736v57.471l-49.771 28.736L950 1637.93v-57.471Z"/><path stroke="#444" stroke-width=".9195360000000001" fill="#444444c9" d="m1099.772 1551.724 49.771 28.736v57.471l-49.771 28.736L1050 1637.93v-57.471Z"/><path stroke="#444" stroke-width=".9195360000000001" fill="none" d="m1199.772 1551.724 49.771 28.736v57.471l-49.771 28.736L1150 1637.93v-57.471Z"/><path stroke="#444" stroke-width=".9195360000000001" fill="#44444449" d="m1299.772 1551.724 49.771 28.736v57.471l-49.771 28.736L1250 1637.93v-57.471Z"/><path stroke="#444" stroke-width=".9195360000000001" fill="none" d="m1399.772 1551.724 49.771 28.736v57.471l-49.771 28.736L1350 1637.93v-57.471Z"/><path stroke="#444" stroke-width=".9195360000000001" fill="#4444443a" d="m1499.772 1551.724 49.771 28.736v57.471l-49.771 28.736L1450 1637.93v-57.471Z"/><path stroke="#444" stroke-width=".9195360000000001" fill="none" d="m1599.772 1551.724 49.771 28.736v57.471l-49.771 28.736L1550 1637.93v-57.471ZM1699.772 1551.724l49.771 28.736v57.471l-49.771 28.736L1650 1637.93v-57.471ZM1799.772 1551.724l49.771 28.736v57.471l-49.771 28.736L1750 1637.93v-57.471ZM1899.772 1551.724l49.771 28.736v57.471l-49.771 28.736L1850 1637.93v-57.471ZM1999.772 1551.724l49.771 28.736v57.471l-49.771 28.736L1950 1637.93v-57.471ZM49.772 1637.931l49.771 28.736v57.47l-49.771 28.737L0 1724.138v-57.471ZM149.772 1637.931l49.771 28.736v57.47l-49.771 28.737L100 1724.138v-57.471Z"/><path stroke="#444" stroke-width=".9195360000000001" fill="#444444ce" d="m249.772 1637.931 49.771 28.736v57.47l-49.771 28.737L200 1724.138v-57.471Z"/><path stroke="#444" stroke-width=".9195360000000001" fill="#444444ec" d="m349.772 1637.931 49.771 28.736v57.47l-49.771 28.737L300 1724.138v-57.471Z"/><path stroke="#444" stroke-width=".9195360000000001" fill="none" d="m449.772 1637.931 49.771 28.736v57.47l-49.771 28.737L400 1724.138v-57.471ZM549.772 1637.931l49.771 28.736v57.47l-49.771 28.737L500 1724.138v-57.471Z"/><path stroke="#444" stroke-width=".9195360000000001" fill="#444444c0" d="m649.772 1637.931 49.771 28.736v57.47l-49.771 28.737L600 1724.138v-57.471Z"/><path stroke="#444" stroke-width=".9195360000000001" fill="none" d="m749.772 1637.931 49.771 28.736v57.47l-49.771 28.737L700 1724.138v-57.471Z"/><path stroke="#444" stroke-width=".9195360000000001" fill="#44444415" d="m849.772 1637.931 49.771 28.736v57.47l-49.771 28.737L800 1724.138v-57.471Z"/><path stroke="#444" stroke-width=".9195360000000001" fill="none" d="m949.772 1637.931 49.771 28.736v57.47l-49.771 28.737L900 1724.138v-57.471Z"/><path stroke="#444" stroke-width=".9195360000000001" fill="#4444448c" d="m1049.772 1637.931 49.771 28.736v57.47l-49.771 28.737-49.772-28.736v-57.471Z"/><path stroke="#444" stroke-width=".9195360000000001" fill="none" d="m1149.772 1637.931 49.771 28.736v57.47l-49.771 28.737-49.772-28.736v-57.471Z"/><path stroke="#444" stroke-width=".9195360000000001" fill="#444444bb" d="m1249.772 1637.931 49.771 28.736v57.47l-49.771 28.737-49.772-28.736v-57.471Z"/><path stroke="#444" stroke-width=".9195360000000001" fill="none" d="m1349.772 1637.931 49.771 28.736v57.47l-49.771 28.737-49.772-28.736v-57.471Z"/><path stroke="#444" stroke-width=".9195360000000001" fill="#44444483" d="m1449.772 1637.931 49.771 28.736v57.47l-49.771 28.737-49.772-28.736v-57.471Z"/><path stroke="#444" stroke-width=".9195360000000001" fill="none" d="m1549.772 1637.931 49.771 28.736v57.47l-49.771 28.737-49.772-28.736v-57.471Z"/><path stroke="#444" stroke-width=".9195360000000001" fill="#4444449d" d="m1649.772 1637.931 49.771 28.736v57.47l-49.771 28.737-49.772-28.736v-57.471Z"/><path stroke="#444" stroke-width=".9195360000000001" fill="none" d="m1749.772 1637.931 49.771 28.736v57.47l-49.771 28.737-49.772-28.736v-57.471ZM1849.772 1637.931l49.771 28.736v57.47l-49.771 28.737-49.772-28.736v-57.471Z"/><path stroke="#444" stroke-width=".9195360000000001" fill="#444444d9" d="m1949.772 1637.931 49.771 28.736v57.47l-49.771 28.737-49.772-28.736v-57.471Z"/><path stroke="#444" stroke-width=".9195360000000001" fill="none" d="m99.772 1724.138 49.771 28.736v57.47l-49.771 28.736L50 1810.345v-57.471Z"/><path stroke="#444" stroke-width=".9195360000000001" fill="#44444416" d="m199.772 1724.138 49.771 28.736v57.47l-49.771 28.736L150 1810.345v-57.471Z"/><path stroke="#444" stroke-width=".9195360000000001" fill="none" d="m299.772 1724.138 49.771 28.736v57.47l-49.771 28.736L250 1810.345v-57.471ZM399.772 1724.138l49.771 28.736v57.47l-49.771 28.736L350 1810.345v-57.471ZM499.772 1724.138l49.771 28.736v57.47l-49.771 28.736L450 1810.345v-57.471ZM599.772 1724.138l49.771 28.736v57.47l-49.771 28.736L550 1810.345v-57.471ZM699.772 1724.138l49.771 28.736v57.47l-49.771 28.736L650 1810.345v-57.471Z"/><path stroke="#444" stroke-width=".9195360000000001" fill="#444444ca" d="m799.772 1724.138 49.771 28.736v57.47l-49.771 28.736L750 1810.345v-57.471Z"/><path stroke="#444" stroke-width=".9195360000000001" fill="none" d="m899.772 1724.138 49.771 28.736v57.47l-49.771 28.736L850 1810.345v-57.471ZM999.772 1724.138l49.771 28.736v57.47l-49.771 28.736L950 1810.345v-57.471ZM1099.772 1724.138l49.771 28.736v57.47l-49.771 28.736-49.772-28.735v-57.471ZM1199.772 1724.138l49.771 28.736v57.47l-49.771 28.736-49.772-28.735v-57.471Z"/><path stroke="#444" stroke-width=".9195360000000001" fill="#44444464" d="m1299.772 1724.138 49.771 28.736v57.47l-49.771 28.736-49.772-28.735v-57.471Z"/><path stroke="#444" stroke-width=".9195360000000001" fill="none" d="m1399.772 1724.138 49.771 28.736v57.47l-49.771 28.736-49.772-28.735v-57.471Z"/><path stroke="#444" stroke-width=".9195360000000001" fill="#444444fa" d="m1499.772 1724.138 49.771 28.736v57.47l-49.771 28.736-49.772-28.735v-57.471Z"/><path stroke="#444" stroke-width=".9195360000000001" fill="none" d="m1599.772 1724.138 49.771 28.736v57.47l-49.771 28.736-49.772-28.735v-57.471Z"/><path stroke="#444" stroke-width=".9195360000000001" fill="#4444447e" d="m1699.772 1724.138 49.771 28.736v57.47l-49.771 28.736-49.772-28.735v-57.471Z"/><path stroke="#444" stroke-width=".9195360000000001" fill="#44444473" d="m1799.772 1724.138 49.771 28.736v57.47l-49.771 28.736-49.772-28.735v-57.471Z"/><path stroke="#444" stroke-width=".9195360000000001" fill="none" d="m1899.772 1724.138 49.771 28.736v57.47l-49.771 28.736-49.772-28.735v-57.471ZM1999.772 1724.138l49.771 28.736v57.47l-49.771 28.736-49.772-28.735v-57.471ZM49.772 1810.345l49.771 28.735v57.472l-49.771 28.735L0 1896.552v-57.472ZM149.772 1810.345l49.771 28.735v57.472l-49.771 28.735L100 1896.552v-57.472ZM249.772 1810.345l49.771 28.735v57.472l-49.771 28.735L200 1896.552v-57.472ZM349.772 1810.345l49.771 28.735v57.472l-49.771 28.735L300 1896.552v-57.472Z"/><path stroke="#444" stroke-width=".9195360000000001" fill="#44444410" d="m449.772 1810.345 49.771 28.735v57.472l-49.771 28.735L400 1896.552v-57.472Z"/><path stroke="#444" stroke-width=".9195360000000001" fill="none" d="m549.772 1810.345 49.771 28.735v57.472l-49.771 28.735L500 1896.552v-57.472Z"/><path stroke="#444" stroke-width=".9195360000000001" fill="#44444457" d="m649.772 1810.345 49.771 28.735v57.472l-49.771 28.735L600 1896.552v-57.472Z"/><path stroke="#444" stroke-width=".9195360000000001" fill="#44444499" d="m749.772 1810.345 49.771 28.735v57.472l-49.771 28.735L700 1896.552v-57.472Z"/><path stroke="#444" stroke-width=".9195360000000001" fill="none" d="m849.772 1810.345 49.771 28.735v57.472l-49.771 28.735L800 1896.552v-57.472ZM949.772 1810.345l49.771 28.735v57.472l-49.771 28.735L900 1896.552v-57.472ZM1049.772 1810.345l49.771 28.735v57.472l-49.771 28.735-49.772-28.735v-57.472ZM1149.772 1810.345l49.771 28.735v57.472l-49.771 28.735-49.772-28.735v-57.472Z"/><path stroke="#444" stroke-width=".9195360000000001" fill="#444444cc" d="m1249.772 1810.345 49.771 28.735v57.472l-49.771 28.735-49.772-28.735v-57.472Z"/><path stroke="#444" stroke-width=".9195360000000001" fill="none" d="m1349.772 1810.345 49.771 28.735v57.472l-49.771 28.735-49.772-28.735v-57.472ZM1449.772 1810.345l49.771 28.735v57.472l-49.771 28.735-49.772-28.735v-57.472ZM1549.772 1810.345l49.771 28.735v57.472l-49.771 28.735-49.772-28.735v-57.472ZM1649.772 1810.345l49.771 28.735v57.472l-49.771 28.735-49.772-28.735v-57.472ZM1749.772 1810.345l49.771 28.735v57.472l-49.771 28.735-49.772-28.735v-57.472ZM1849.772 1810.345l49.771 28.735v57.472l-49.771 28.735-49.772-28.735v-57.472ZM1949.772 1810.345l49.771 28.735v57.472l-49.771 28.735-49.772-28.735v-57.472ZM99.772 1896.552l49.771 28.735v57.472l-49.771 28.735L50 1982.76v-57.472Z"/><path stroke="#444" stroke-width=".9195360000000001" fill="#444444cc" d="m199.772 1896.552 49.771 28.735v57.472l-49.771 28.735L150 1982.76v-57.472Z"/><path stroke="#444" stroke-width=".9195360000000001" fill="#44444444" d="m299.772 1896.552 49.771 28.735v57.472l-49.771 28.735L250 1982.76v-57.472Z"/><path stroke="#444" stroke-width=".9195360000000001" fill="#44444432" d="m399.772 1896.552 49.771 28.735v57.472l-49.771 28.735L350 1982.76v-57.472Z"/><path stroke="#444" stroke-width=".9195360000000001" fill="none" d="m499.772 1896.552 49.771 28.735v57.472l-49.771 28.735L450 1982.76v-57.472ZM599.772 1896.552l49.771 28.735v57.472l-49.771 28.735L550 1982.76v-57.472ZM699.772 1896.552l49.771 28.735v57.472l-49.771 28.735L650 1982.76v-57.472ZM799.772 1896.552l49.771 28.735v57.472l-49.771 28.735L750 1982.76v-57.472ZM899.772 1896.552l49.771 28.735v57.472l-49.771 28.735L850 1982.76v-57.472ZM999.772 1896.552l49.771 28.735v57.472l-49.771 28.735L950 1982.76v-57.472ZM1099.772 1896.552l49.771 28.735v57.472l-49.771 28.735L1050 1982.76v-57.472ZM1199.772 1896.552l49.771 28.735v57.472l-49.771 28.735L1150 1982.76v-57.472ZM1299.772 1896.552l49.771 28.735v57.472l-49.771 28.735L1250 1982.76v-57.472ZM1399.772 1896.552l49.771 28.735v57.472l-49.771 28.735L1350 1982.76v-57.472Z"/><path stroke="#444" stroke-width=".9195360000000001" fill="#44444469" d="m1499.772 1896.552 49.771 28.735v57.472l-49.771 28.735L1450 1982.76v-57.472Z"/><path stroke="#444" stroke-width=".9195360000000001" fill="none" d="m1599.772 1896.552 49.771 28.735v57.472l-49.771 28.735L1550 1982.76v-57.472ZM1699.772 1896.552l49.771 28.735v57.472l-49.771 28.735L1650 1982.76v-57.472Z"/><path stroke="#444" stroke-width=".9195360000000001" fill="#44444442" d="m1799.772 1896.552 49.771 28.735v57.472l-49.771 28.735L1750 1982.76v-57.472Z"/><path stroke="#444" stroke-width=".9195360000000001" fill="none" d="m1899.772 1896.552 49.771 28.735v57.472l-49.771 28.735L1850 1982.76v-57.472Z"/><path stroke="#444" stroke-width=".9195360000000001" fill="#4444443e" d="m1999.772 1896.552 49.771 28.735v57.472l-49.771 28.735L1950 1982.76v-57.472Z"/><path stroke="#444" stroke-width=".9195360000000001" fill="#4444444e" d="m49.772 1982.759 49.771 28.735v57.472L49.772 2097.7 0 2068.966v-57.472Z"/><path stroke="#444" stroke-width=".9195360000000001" fill="#44444449" d="m149.772 1982.759 49.771 28.735v57.472l-49.771 28.735L100 2068.966v-57.472Z"/><path stroke="#444" stroke-width=".9195360000000001" fill="none" d="m249.772 1982.759 49.771 28.735v57.472l-49.771 28.735L200 2068.966v-57.472ZM349.772 1982.759l49.771 28.735v57.472l-49.771 28.735L300 2068.966v-57.472Z"/><path stroke="#444" stroke-width=".9195360000000001" fill="#44444470" d="m449.772 1982.759 49.771 28.735v57.472l-49.771 28.735L400 2068.966v-57.472Z"/><path stroke="#444" stroke-width=".9195360000000001" fill="none" d="m549.772 1982.759 49.771 28.735v57.472l-49.771 28.735L500 2068.966v-57.472Z"/><path stroke="#444" stroke-width=".9195360000000001" fill="#44444401" d="m649.772 1982.759 49.771 28.735v57.472l-49.771 28.735L600 2068.966v-57.472Z"/><path stroke="#444" stroke-width=".9195360000000001" fill="#4444443a" d="m749.772 1982.759 49.771 28.735v57.472l-49.771 28.735L700 2068.966v-57.472Z"/><path stroke="#444" stroke-width=".9195360000000001" fill="#4444444e" d="m849.772 1982.759 49.771 28.735v57.472l-49.771 28.735L800 2068.966v-57.472Z"/><path stroke="#444" stroke-width=".9195360000000001" fill="none" d="m949.772 1982.759 49.771 28.735v57.472l-49.771 28.735L900 2068.966v-57.472ZM1049.772 1982.759l49.771 28.735v57.472l-49.771 28.735-49.772-28.735v-57.472Z"/><path stroke="#444" stroke-width=".9195360000000001" fill="#444444b8" d="m1149.772 1982.759 49.771 28.735v57.472l-49.771 28.735-49.772-28.735v-57.472Z"/><path stroke="#444" stroke-width=".9195360000000001" fill="none" d="m1249.772 1982.759 49.771 28.735v57.472l-49.771 28.735-49.772-28.735v-57.472ZM1349.772 1982.759l49.771 28.735v57.472l-49.771 28.735-49.772-28.735v-57.472ZM1449.772 1982.759l49.771 28.735v57.472l-49.771 28.735-49.772-28.735v-57.472ZM1549.772 1982.759l49.771 28.735v57.472l-49.771 28.735-49.772-28.735v-57.472ZM1649.772 1982.759l49.771 28.735v57.472l-49.771 28.735-49.772-28.735v-57.472ZM1749.772 1982.759l49.771 28.735v57.472l-49.771 28.735-49.772-28.735v-57.472ZM1849.772 1982.759l49.771 28.735v57.472l-49.771 28.735-49.772-28.735v-57.472ZM1949.772 1982.759l49.771 28.735v57.472l-49.771 28.735-49.772-28.735v-57.472ZM99.772 2068.966l49.771 28.735v57.471l-49.771 28.736L50 2155.172v-57.47ZM199.772 2068.966l49.771 28.735v57.471l-49.771 28.736L150 2155.172v-57.47ZM299.772 2068.966l49.771 28.735v57.471l-49.771 28.736L250 2155.172v-57.47ZM399.772 2068.966l49.771 28.735v57.471l-49.771 28.736L350 2155.172v-57.47ZM499.772 2068.966l49.771 28.735v57.471l-49.771 28.736L450 2155.172v-57.47Z"/><path stroke="#444" stroke-width=".9195360000000001" fill="#44444466" d="m599.772 2068.966 49.771 28.735v57.471l-49.771 28.736L550 2155.172v-57.47Z"/><path stroke="#444" stroke-width=".9195360000000001" fill="none" d="m699.772 2068.966 49.771 28.735v57.471l-49.771 28.736L650 2155.172v-57.47ZM799.772 2068.966l49.771 28.735v57.471l-49.771 28.736L750 2155.172v-57.47ZM899.772 2068.966l49.771 28.735v57.471l-49.771 28.736L850 2155.172v-57.47ZM999.772 2068.966l49.771 28.735v57.471l-49.771 28.736L950 2155.172v-57.47ZM1099.772 2068.966l49.771 28.735v57.471l-49.771 28.736-49.772-28.736v-57.47ZM1199.772 2068.966l49.771 28.735v57.471l-49.771 28.736-49.772-28.736v-57.47ZM1299.772 2068.966l49.771 28.735v57.471l-49.771 28.736-49.772-28.736v-57.47Z"/><path stroke="#444" stroke-width=".9195360000000001" fill="#44444446" d="m1399.772 2068.966 49.771 28.735v57.471l-49.771 28.736-49.772-28.736v-57.47Z"/><path stroke="#444" stroke-width=".9195360000000001" fill="none" d="m1499.772 2068.966 49.771 28.735v57.471l-49.771 28.736-49.772-28.736v-57.47ZM1599.772 2068.966l49.771 28.735v57.471l-49.771 28.736-49.772-28.736v-57.47ZM1699.772 2068.966l49.771 28.735v57.471l-49.771 28.736-49.772-28.736v-57.47Z"/><path stroke="#444" stroke-width=".9195360000000001" fill="#44444420" d="m1799.772 2068.966 49.771 28.735v57.471l-49.771 28.736-49.772-28.736v-57.47Z"/><path stroke="#444" stroke-width=".9195360000000001" fill="none" d="m1899.772 2068.966 49.771 28.735v57.471l-49.771 28.736-49.772-28.736v-57.47Z"/><path stroke="#444" stroke-width=".9195360000000001" fill="#4444441e" d="m1999.772 2068.966 49.771 28.735v57.471l-49.771 28.736-49.772-28.736v-57.47Z"/><path stroke="#444" stroke-width=".9195360000000001" fill="none" d="m49.772 2155.172 49.771 28.736v57.471l-49.771 28.736L0 2241.379v-57.471ZM149.772 2155.172l49.771 28.736v57.471l-49.771 28.736L100 2241.379v-57.471ZM249.772 2155.172l49.771 28.736v57.471l-49.771 28.736L200 2241.379v-57.471ZM349.772 2155.172l49.771 28.736v57.471l-49.771 28.736L300 2241.379v-57.471ZM449.772 2155.172l49.771 28.736v57.471l-49.771 28.736L400 2241.379v-57.471ZM549.772 2155.172l49.771 28.736v57.471l-49.771 28.736L500 2241.379v-57.471Z"/><path stroke="#444" stroke-width=".9195360000000001" fill="#444444c8" d="m649.772 2155.172 49.771 28.736v57.471l-49.771 28.736L600 2241.379v-57.471Z"/><path stroke="#444" stroke-width=".9195360000000001" fill="#4444441a" d="m749.772 2155.172 49.771 28.736v57.471l-49.771 28.736L700 2241.379v-57.471Z"/><path stroke="#444" stroke-width=".9195360000000001" fill="none" d="m849.772 2155.172 49.771 28.736v57.471l-49.771 28.736L800 2241.379v-57.471ZM949.772 2155.172l49.771 28.736v57.471l-49.771 28.736L900 2241.379v-57.471Z"/><path stroke="#444" stroke-width=".9195360000000001" fill="#444444e3" d="m1049.772 2155.172 49.771 28.736v57.471l-49.771 28.736-49.772-28.736v-57.471Z"/><path stroke="#444" stroke-width=".9195360000000001" fill="#444444a8" d="m1149.772 2155.172 49.771 28.736v57.471l-49.771 28.736-49.772-28.736v-57.471Z"/><path stroke="#444" stroke-width=".9195360000000001" fill="none" d="m1249.772 2155.172 49.771 28.736v57.471l-49.771 28.736-49.772-28.736v-57.471Z"/><path stroke="#444" stroke-width=".9195360000000001" fill="#44444441" d="m1349.772 2155.172 49.771 28.736v57.471l-49.771 28.736-49.772-28.736v-57.471Z"/><path stroke="#444" stroke-width=".9195360000000001" fill="none" d="m1449.772 2155.172 49.771 28.736v57.471l-49.771 28.736-49.772-28.736v-57.471Z"/><path stroke="#444" stroke-width=".9195360000000001" fill="#444444a0" d="m1549.772 2155.172 49.771 28.736v57.471l-49.771 28.736-49.772-28.736v-57.471Z"/><path stroke="#444" stroke-width=".9195360000000001" fill="none" d="m1649.772 2155.172 49.771 28.736v57.471l-49.771 28.736-49.772-28.736v-57.471Z"/><path stroke="#444" stroke-width=".9195360000000001" fill="#44444451" d="m1749.772 2155.172 49.771 28.736v57.471l-49.771 28.736-49.772-28.736v-57.471Z"/><path stroke="#444" stroke-width=".9195360000000001" fill="none" d="m1849.772 2155.172 49.771 28.736v57.471l-49.771 28.736-49.772-28.736v-57.471Z"/><path stroke="#444" stroke-width=".9195360000000001" fill="#444444d9" d="m1949.772 2155.172 49.771 28.736v57.471l-49.771 28.736-49.772-28.736v-57.471Z"/><path stroke="#444" stroke-width=".9195360000000001" fill="none" d="m99.772 2241.38 49.771 28.735v57.471l-49.771 28.736L50 2327.586v-57.471ZM199.772 2241.38l49.771 28.735v57.471l-49.771 28.736L150 2327.586v-57.471ZM299.772 2241.38l49.771 28.735v57.471l-49.771 28.736L250 2327.586v-57.471Z"/><path stroke="#444" stroke-width=".9195360000000001" fill="#4444449d" d="m399.772 2241.38 49.771 28.735v57.471l-49.771 28.736L350 2327.586v-57.471Z"/><path stroke="#444" stroke-width=".9195360000000001" fill="none" d="m499.772 2241.38 49.771 28.735v57.471l-49.771 28.736L450 2327.586v-57.471Z"/><path stroke="#444" stroke-width=".9195360000000001" fill="#4444445b" d="m599.772 2241.38 49.771 28.735v57.471l-49.771 28.736L550 2327.586v-57.471Z"/><path stroke="#444" stroke-width=".9195360000000001" fill="#44444400" d="m699.772 2241.38 49.771 28.735v57.471l-49.771 28.736L650 2327.586v-57.471Z"/><path stroke="#444" stroke-width=".9195360000000001" fill="#44444498" d="m799.772 2241.38 49.771 28.735v57.471l-49.771 28.736L750 2327.586v-57.471Z"/><path stroke="#444" stroke-width=".9195360000000001" fill="none" d="m899.772 2241.38 49.771 28.735v57.471l-49.771 28.736L850 2327.586v-57.471ZM999.772 2241.38l49.771 28.735v57.471l-49.771 28.736L950 2327.586v-57.471ZM1099.772 2241.38l49.771 28.735v57.471l-49.771 28.736-49.772-28.736v-57.471ZM1199.772 2241.38l49.771 28.735v57.471l-49.771 28.736-49.772-28.736v-57.471ZM1299.772 2241.38l49.771 28.735v57.471l-49.771 28.736-49.772-28.736v-57.471ZM1399.772 2241.38l49.771 28.735v57.471l-49.771 28.736-49.772-28.736v-57.471Z"/><path stroke="#444" stroke-width=".9195360000000001" fill="#444444be" d="m1499.772 2241.38 49.771 28.735v57.471l-49.771 28.736-49.772-28.736v-57.471Z"/><path stroke="#444" stroke-width=".9195360000000001" fill="none" d="m1599.772 2241.38 49.771 28.735v57.471l-49.771 28.736-49.772-28.736v-57.471ZM1699.772 2241.38l49.771 28.735v57.471l-49.771 28.736-49.772-28.736v-57.471ZM1799.772 2241.38l49.771 28.735v57.471l-49.771 28.736-49.772-28.736v-57.471ZM1899.772 2241.38l49.771 28.735v57.471l-49.771 28.736-49.772-28.736v-57.471ZM1999.772 2241.38l49.771 28.735v57.471l-49.771 28.736-49.772-28.736v-57.471ZM49.772 2327.586l49.771 28.736v57.471l-49.771 28.736L0 2413.793v-57.471ZM149.772 2327.586l49.771 28.736v57.471l-49.771 28.736L100 2413.793v-57.471ZM249.772 2327.586l49.771 28.736v57.471l-49.771 28.736L200 2413.793v-57.471Z"/><path stroke="#444" stroke-width=".9195360000000001" fill="#44444468" d="m349.772 2327.586 49.771 28.736v57.471l-49.771 28.736L300 2413.793v-57.471Z"/><path stroke="#444" stroke-width=".9195360000000001" fill="none" d="m449.772 2327.586 49.771 28.736v57.471l-49.771 28.736L400 2413.793v-57.471ZM549.772 2327.586l49.771 28.736v57.471l-49.771 28.736L500 2413.793v-57.471ZM649.772 2327.586l49.771 28.736v57.471l-49.771 28.736L600 2413.793v-57.471ZM749.772 2327.586l49.771 28.736v57.471l-49.771 28.736L700 2413.793v-57.471ZM849.772 2327.586l49.771 28.736v57.471l-49.771 28.736L800 2413.793v-57.471Z"/><path stroke="#444" stroke-width=".9195360000000001" fill="#444444ac" d="m949.772 2327.586 49.771 28.736v57.471l-49.771 28.736L900 2413.793v-57.471Z"/><path stroke="#444" stroke-width=".9195360000000001" fill="none" d="m1049.772 2327.586 49.771 28.736v57.471l-49.771 28.736-49.772-28.736v-57.471ZM1149.772 2327.586l49.771 28.736v57.471l-49.771 28.736-49.772-28.736v-57.471Z"/><path stroke="#444" stroke-width=".9195360000000001" fill="#444444e7" d="m1249.772 2327.586 49.771 28.736v57.471l-49.771 28.736-49.772-28.736v-57.471Z"/><path stroke="#444" stroke-width=".9195360000000001" fill="none" d="m1349.772 2327.586 49.771 28.736v57.471l-49.771 28.736-49.772-28.736v-57.471Z"/><path stroke="#444" stroke-width=".9195360000000001" fill="#444444c0" d="m1449.772 2327.586 49.771 28.736v57.471l-49.771 28.736-49.772-28.736v-57.471Z"/><path stroke="#444" stroke-width=".9195360000000001" fill="none" d="m1549.772 2327.586 49.771 28.736v57.471l-49.771 28.736-49.772-28.736v-57.471Z"/><path stroke="#444" stroke-width=".9195360000000001" fill="#4444441b" d="m1649.772 2327.586 49.771 28.736v57.471l-49.771 28.736-49.772-28.736v-57.471Z"/><path stroke="#444" stroke-width=".9195360000000001" fill="none" d="m1749.772 2327.586 49.771 28.736v57.471l-49.771 28.736-49.772-28.736v-57.471ZM1849.772 2327.586l49.771 28.736v57.471l-49.771 28.736-49.772-28.736v-57.471Z"/><path stroke="#444" stroke-width=".9195360000000001" fill="#444444f1" d="m1949.772 2327.586 49.771 28.736v57.471l-49.771 28.736-49.772-28.736v-57.471Z"/><path stroke="#444" stroke-width=".9195360000000001" fill="none" d="m99.772 2413.793 49.771 28.736V2500l-49.771 28.736L50 2500v-57.471Z"/><path stroke="#444" stroke-width=".9195360000000001" fill="#444444e7" d="m199.772 2413.793 49.771 28.736V2500l-49.771 28.736L150 2500v-57.471Z"/><path stroke="#444" stroke-width=".9195360000000001" fill="none" d="m299.772 2413.793 49.771 28.736V2500l-49.771 28.736L250 2500v-57.471ZM399.772 2413.793l49.771 28.736V2500l-49.771 28.736L350 2500v-57.471Z"/><path stroke="#444" stroke-width=".9195360000000001" fill="#4444441e" d="m499.772 2413.793 49.771 28.736V2500l-49.771 28.736L450 2500v-57.471Z"/><path stroke="#444" stroke-width=".9195360000000001" fill="none" d="m599.772 2413.793 49.771 28.736V2500l-49.771 28.736L550 2500v-57.471Z"/><path stroke="#444" stroke-width=".9195360000000001" fill="#444444c2" d="m699.772 2413.793 49.771 28.736V2500l-49.771 28.736L650 2500v-57.471Z"/><path stroke="#444" stroke-width=".9195360000000001" fill="#4444441e" d="m799.772 2413.793 49.771 28.736V2500l-49.771 28.736L750 2500v-57.471Z"/><path stroke="#444" stroke-width=".9195360000000001" fill="#44444421" d="m899.772 2413.793 49.771 28.736V2500l-49.771 28.736L850 2500v-57.471Z"/><path stroke="#444" stroke-width=".9195360000000001" fill="none" d="m999.772 2413.793 49.771 28.736V2500l-49.771 28.736L950 2500v-57.471Z"/><path stroke="#444" stroke-width=".9195360000000001" fill="#4444440a" d="m1099.772 2413.793 49.771 28.736V2500l-49.771 28.736L1050 2500v-57.471Z"/><path stroke="#444" stroke-width=".9195360000000001" fill="none" d="m1199.772 2413.793 49.771 28.736V2500l-49.771 28.736L1150 2500v-57.471ZM1299.772 2413.793l49.771 28.736V2500l-49.771 28.736L1250 2500v-57.471Z"/><path stroke="#444" stroke-width=".9195360000000001" fill="#44444438" d="m1399.772 2413.793 49.771 28.736V2500l-49.771 28.736L1350 2500v-57.471Z"/><path stroke="#444" stroke-width=".9195360000000001" fill="none" d="m1499.772 2413.793 49.771 28.736V2500l-49.771 28.736L1450 2500v-57.471ZM1599.772 2413.793l49.771 28.736V2500l-49.771 28.736L1550 2500v-57.471Z"/><path stroke="#444" stroke-width=".9195360000000001" fill="#44444468" d="m1699.772 2413.793 49.771 28.736V2500l-49.771 28.736L1650 2500v-57.471Z"/><path stroke="#444" stroke-width=".9195360000000001" fill="none" d="m1799.772 2413.793 49.771 28.736V2500l-49.771 28.736L1750 2500v-57.471ZM1899.772 2413.793l49.771 28.736V2500l-49.771 28.736L1850 2500v-57.471Z"/><path stroke="#444" stroke-width=".9195360000000001" fill="#44444453" d="m1999.772 2413.793 49.771 28.736V2500l-49.771 28.736L1950 2500v-57.471Z"/><path stroke="#444" stroke-width=".9195360000000001" fill="none" d="m49.772 2500 49.771 28.736v57.47l-49.771 28.737L0 2586.207v-57.471ZM149.772 2500l49.771 28.736v57.47l-49.771 28.737L100 2586.207v-57.471ZM249.772 2500l49.771 28.736v57.47l-49.771 28.737L200 2586.207v-57.471ZM349.772 2500l49.771 28.736v57.47l-49.771 28.737L300 2586.207v-57.471ZM449.772 2500l49.771 28.736v57.47l-49.771 28.737L400 2586.207v-57.471Z"/><path stroke="#444" stroke-width=".9195360000000001" fill="#44444476" d="m549.772 2500 49.771 28.736v57.47l-49.771 28.737L500 2586.207v-57.471Z"/><path stroke="#444" stroke-width=".9195360000000001" fill="#444444bd" d="m649.772 2500 49.771 28.736v57.47l-49.771 28.737L600 2586.207v-57.471Z"/><path stroke="#444" stroke-width=".9195360000000001" fill="none" d="m749.772 2500 49.771 28.736v57.47l-49.771 28.737L700 2586.207v-57.471Z"/><path stroke="#444" stroke-width=".9195360000000001" fill="#444444ff" d="m849.772 2500 49.771 28.736v57.47l-49.771 28.737L800 2586.207v-57.471Z"/><path stroke="#444" stroke-width=".9195360000000001" fill="none" d="m949.772 2500 49.771 28.736v57.47l-49.771 28.737L900 2586.207v-57.471Z"/><path stroke="#444" stroke-width=".9195360000000001" fill="#444444fa" d="m1049.772 2500 49.771 28.736v57.47l-49.771 28.737-49.772-28.736v-57.471Z"/><path stroke="#444" stroke-width=".9195360000000001" fill="none" d="m1149.772 2500 49.771 28.736v57.47l-49.771 28.737-49.772-28.736v-57.471ZM1249.772 2500l49.771 28.736v57.47l-49.771 28.737-49.772-28.736v-57.471ZM1349.772 2500l49.771 28.736v57.47l-49.771 28.737-49.772-28.736v-57.471ZM1449.772 2500l49.771 28.736v57.47l-49.771 28.737-49.772-28.736v-57.471Z"/><path stroke="#444" stroke-width=".9195360000000001" fill="#44444416" d="m1549.772 2500 49.771 28.736v57.47l-49.771 28.737-49.772-28.736v-57.471Z"/><path stroke="#444" stroke-width=".9195360000000001" fill="none" d="m1649.772 2500 49.771 28.736v57.47l-49.771 28.737-49.772-28.736v-57.471ZM1749.772 2500l49.771 28.736v57.47l-49.771 28.737-49.772-28.736v-57.471ZM1849.772 2500l49.771 28.736v57.47l-49.771 28.737-49.772-28.736v-57.471ZM1949.772 2500l49.771 28.736v57.47l-49.771 28.737-49.772-28.736v-57.471ZM99.772 2586.207l49.771 28.736v57.47l-49.771 28.736L50 2672.414v-57.471ZM199.772 2586.207l49.771 28.736v57.47l-49.771 28.736L150 2672.414v-57.471ZM299.772 2586.207l49.771 28.736v57.47l-49.771 28.736L250 2672.414v-57.471Z"/><path stroke="#444" stroke-width=".9195360000000001" fill="#444444f2" d="m399.772 2586.207 49.771 28.736v57.47l-49.771 28.736L350 2672.414v-57.471Z"/><path stroke="#444" stroke-width=".9195360000000001" fill="none" d="m499.772 2586.207 49.771 28.736v57.47l-49.771 28.736L450 2672.414v-57.471Z"/><path stroke="#444" stroke-width=".9195360000000001" fill="#44444422" d="m599.772 2586.207 49.771 28.736v57.47l-49.771 28.736L550 2672.414v-57.471Z"/><path stroke="#444" stroke-width=".9195360000000001" fill="none" d="m699.772 2586.207 49.771 28.736v57.47l-49.771 28.736L650 2672.414v-57.471ZM799.772 2586.207l49.771 28.736v57.47l-49.771 28.736L750 2672.414v-57.471Z"/><path stroke="#444" stroke-width=".9195360000000001" fill="#444444cc" d="m899.772 2586.207 49.771 28.736v57.47l-49.771 28.736L850 2672.414v-57.471Z"/><path stroke="#444" stroke-width=".9195360000000001" fill="none" d="m999.772 2586.207 49.771 28.736v57.47l-49.771 28.736L950 2672.414v-57.471ZM1099.772 2586.207l49.771 28.736v57.47l-49.771 28.736-49.772-28.735v-57.471ZM1199.772 2586.207l49.771 28.736v57.47l-49.771 28.736-49.772-28.735v-57.471ZM1299.772 2586.207l49.771 28.736v57.47l-49.771 28.736-49.772-28.735v-57.471ZM1399.772 2586.207l49.771 28.736v57.47l-49.771 28.736-49.772-28.735v-57.471ZM1499.772 2586.207l49.771 28.736v57.47l-49.771 28.736-49.772-28.735v-57.471ZM1599.772 2586.207l49.771 28.736v57.47l-49.771 28.736-49.772-28.735v-57.471ZM1699.772 2586.207l49.771 28.736v57.47l-49.771 28.736-49.772-28.735v-57.471ZM1799.772 2586.207l49.771 28.736v57.47l-49.771 28.736-49.772-28.735v-57.471ZM1899.772 2586.207l49.771 28.736v57.47l-49.771 28.736-49.772-28.735v-57.471ZM1999.772 2586.207l49.771 28.736v57.47l-49.771 28.736-49.772-28.735v-57.471ZM49.772 2672.414l49.771 28.735v57.472l-49.771 28.735L0 2758.621v-57.472ZM149.772 2672.414l49.771 28.735v57.472l-49.771 28.735L100 2758.621v-57.472ZM249.772 2672.414l49.771 28.735v57.472l-49.771 28.735L200 2758.621v-57.472ZM349.772 2672.414l49.771 28.735v57.472l-49.771 28.735L300 2758.621v-57.472ZM449.772 2672.414l49.771 28.735v57.472l-49.771 28.735L400 2758.621v-57.472ZM549.772 2672.414l49.771 28.735v57.472l-49.771 28.735L500 2758.621v-57.472ZM649.772 2672.414l49.771 28.735v57.472l-49.771 28.735L600 2758.621v-57.472ZM749.772 2672.414l49.771 28.735v57.472l-49.771 28.735L700 2758.621v-57.472Z"/><path stroke="#444" stroke-width=".9195360000000001" fill="#444444c8" d="m849.772 2672.414 49.771 28.735v57.472l-49.771 28.735L800 2758.621v-57.472Z"/><path stroke="#444" stroke-width=".9195360000000001" fill="none" d="m949.772 2672.414 49.771 28.735v57.472l-49.771 28.735L900 2758.621v-57.472ZM1049.772 2672.414l49.771 28.735v57.472l-49.771 28.735-49.772-28.735v-57.472Z"/><path stroke="#444" stroke-width=".9195360000000001" fill="#444444ba" d="m1149.772 2672.414 49.771 28.735v57.472l-49.771 28.735-49.772-28.735v-57.472Z"/><path stroke="#444" stroke-width=".9195360000000001" fill="none" d="m1249.772 2672.414 49.771 28.735v57.472l-49.771 28.735-49.772-28.735v-57.472ZM1349.772 2672.414l49.771 28.735v57.472l-49.771 28.735-49.772-28.735v-57.472ZM1449.772 2672.414l49.771 28.735v57.472l-49.771 28.735-49.772-28.735v-57.472ZM1549.772 2672.414l49.771 28.735v57.472l-49.771 28.735-49.772-28.735v-57.472Z"/><path stroke="#444" stroke-width=".9195360000000001" fill="#44444475" d="m1649.772 2672.414 49.771 28.735v57.472l-49.771 28.735-49.772-28.735v-57.472Z"/><path stroke="#444" stroke-width=".9195360000000001" fill="none" d="m1749.772 2672.414 49.771 28.735v57.472l-49.771 28.735-49.772-28.735v-57.472ZM1849.772 2672.414l49.771 28.735v57.472l-49.771 28.735-49.772-28.735v-57.472ZM1949.772 2672.414l49.771 28.735v57.472l-49.771 28.735-49.772-28.735v-57.472ZM99.772 2758.62l49.771 28.736v57.472l-49.771 28.735L50 2844.828v-57.472ZM199.772 2758.62l49.771 28.736v57.472l-49.771 28.735L150 2844.828v-57.472Z"/><path stroke="#444" stroke-width=".9195360000000001" fill="#44444460" d="m299.772 2758.62 49.771 28.736v57.472l-49.771 28.735L250 2844.828v-57.472Z"/><path stroke="#444" stroke-width=".9195360000000001" fill="#44444402" d="m399.772 2758.62 49.771 28.736v57.472l-49.771 28.735L350 2844.828v-57.472Z"/><path stroke="#444" stroke-width=".9195360000000001" fill="#4444447c" d="m499.772 2758.62 49.771 28.736v57.472l-49.771 28.735L450 2844.828v-57.472Z"/><path stroke="#444" stroke-width=".9195360000000001" fill="#4444449b" d="m599.772 2758.62 49.771 28.736v57.472l-49.771 28.735L550 2844.828v-57.472Z"/><path stroke="#444" stroke-width=".9195360000000001" fill="#44444450" d="m699.772 2758.62 49.771 28.736v57.472l-49.771 28.735L650 2844.828v-57.472Z"/><path stroke="#444" stroke-width=".9195360000000001" fill="#4444448d" d="m799.772 2758.62 49.771 28.736v57.472l-49.771 28.735L750 2844.828v-57.472Z"/><path stroke="#444" stroke-width=".9195360000000001" fill="none" d="m899.772 2758.62 49.771 28.736v57.472l-49.771 28.735L850 2844.828v-57.472ZM999.772 2758.62l49.771 28.736v57.472l-49.771 28.735L950 2844.828v-57.472ZM1099.772 2758.62l49.771 28.736v57.472l-49.771 28.735-49.772-28.735v-57.472Z"/><path stroke="#444" stroke-width=".9195360000000001" fill="#444444c5" d="m1199.772 2758.62 49.771 28.736v57.472l-49.771 28.735-49.772-28.735v-57.472Z"/><path stroke="#444" stroke-width=".9195360000000001" fill="#444444d5" d="m1299.772 2758.62 49.771 28.736v57.472l-49.771 28.735-49.772-28.735v-57.472Z"/><path stroke="#444" stroke-width=".9195360000000001" fill="#444444ce" d="m1399.772 2758.62 49.771 28.736v57.472l-49.771 28.735-49.772-28.735v-57.472Z"/><path stroke="#444" stroke-width=".9195360000000001" fill="#44444459" d="m1499.772 2758.62 49.771 28.736v57.472l-49.771 28.735-49.772-28.735v-57.472Z"/><path stroke="#444" stroke-width=".9195360000000001" fill="#444444a6" d="m1599.772 2758.62 49.771 28.736v57.472l-49.771 28.735-49.772-28.735v-57.472Z"/><path stroke="#444" stroke-width=".9195360000000001" fill="none" d="m1699.772 2758.62 49.771 28.736v57.472l-49.771 28.735-49.772-28.735v-57.472Z"/><path stroke="#444" stroke-width=".9195360000000001" fill="#4444442b" d="m1799.772 2758.62 49.771 28.736v57.472l-49.771 28.735-49.772-28.735v-57.472Z"/><path stroke="#444" stroke-width=".9195360000000001" fill="none" d="m1899.772 2758.62 49.771 28.736v57.472l-49.771 28.735-49.772-28.735v-57.472ZM1999.772 2758.62l49.771 28.736v57.472l-49.771 28.735-49.772-28.735v-57.472ZM49.772 2844.828l49.771 28.735v57.471l-49.771 28.736L0 2931.034v-57.47Z"/><path stroke="#444" stroke-width=".9195360000000001" fill="#444444d2" d="m149.772 2844.828 49.771 28.735v57.471l-49.771 28.736L100 2931.034v-57.47Z"/><path stroke="#444" stroke-width=".9195360000000001" fill="#44444430" d="m249.772 2844.828 49.771 28.735v57.471l-49.771 28.736L200 2931.034v-57.47Z"/><path stroke="#444" stroke-width=".9195360000000001" fill="#444444aa" d="m349.772 2844.828 49.771 28.735v57.471l-49.771 28.736L300 2931.034v-57.47Z"/><path stroke="#444" stroke-width=".9195360000000001" fill="#444444f1" d="m449.772 2844.828 49.771 28.735v57.471l-49.771 28.736L400 2931.034v-57.47Z"/><path stroke="#444" stroke-width=".9195360000000001" fill="none" d="m549.772 2844.828 49.771 28.735v57.471l-49.771 28.736L500 2931.034v-57.47ZM649.772 2844.828l49.771 28.735v57.471l-49.771 28.736L600 2931.034v-57.47ZM749.772 2844.828l49.771 28.735v57.471l-49.771 28.736L700 2931.034v-57.47ZM849.772 2844.828l49.771 28.735v57.471l-49.771 28.736L800 2931.034v-57.47ZM949.772 2844.828l49.771 28.735v57.471l-49.771 28.736L900 2931.034v-57.47ZM1049.772 2844.828l49.771 28.735v57.471l-49.771 28.736-49.772-28.736v-57.47ZM1149.772 2844.828l49.771 28.735v57.471l-49.771 28.736-49.772-28.736v-57.47ZM1249.772 2844.828l49.771 28.735v57.471l-49.771 28.736-49.772-28.736v-57.47ZM1349.772 2844.828l49.771 28.735v57.471l-49.771 28.736-49.772-28.736v-57.47Z"/><path stroke="#444" stroke-width=".9195360000000001" fill="#4444444a" d="m1449.772 2844.828 49.771 28.735v57.471l-49.771 28.736-49.772-28.736v-57.47Z"/><path stroke="#444" stroke-width=".9195360000000001" fill="none" d="m1549.772 2844.828 49.771 28.735v57.471l-49.771 28.736-49.772-28.736v-57.47Z"/><path stroke="#444" stroke-width=".9195360000000001" fill="#444444cc" d="m1649.772 2844.828 49.771 28.735v57.471l-49.771 28.736-49.772-28.736v-57.47Z"/><path stroke="#444" stroke-width=".9195360000000001" fill="#4444443a" d="m1749.772 2844.828 49.771 28.735v57.471l-49.771 28.736-49.772-28.736v-57.47Z"/><path stroke="#444" stroke-width=".9195360000000001" fill="none" d="m1849.772 2844.828 49.771 28.735v57.471l-49.771 28.736-49.772-28.736v-57.47ZM1949.772 2844.828l49.771 28.735v57.471l-49.771 28.736-49.772-28.736v-57.47Z"/><path stroke="#444" stroke-width=".9195360000000001" fill="#44444439" d="m99.772 2931.034 49.771 28.736v57.471l-49.771 28.736L50 3017.241v-57.47Z"/><path stroke="#444" stroke-width=".9195360000000001" fill="none" d="m199.772 2931.034 49.771 28.736v57.471l-49.771 28.736L150 3017.241v-57.47ZM299.772 2931.034l49.771 28.736v57.471l-49.771 28.736L250 3017.241v-57.47Z"/><path stroke="#444" stroke-width=".9195360000000001" fill="#444444a8" d="m399.772 2931.034 49.771 28.736v57.471l-49.771 28.736L350 3017.241v-57.47Z"/><path stroke="#444" stroke-width=".9195360000000001" fill="none" d="m499.772 2931.034 49.771 28.736v57.471l-49.771 28.736L450 3017.241v-57.47ZM599.772 2931.034l49.771 28.736v57.471l-49.771 28.736L550 3017.241v-57.47ZM699.772 2931.034l49.771 28.736v57.471l-49.771 28.736L650 3017.241v-57.47ZM799.772 2931.034l49.771 28.736v57.471l-49.771 28.736L750 3017.241v-57.47ZM899.772 2931.034l49.771 28.736v57.471l-49.771 28.736L850 3017.241v-57.47ZM999.772 2931.034l49.771 28.736v57.471l-49.771 28.736L950 3017.241v-57.47ZM1099.772 2931.034l49.771 28.736v57.471l-49.771 28.736-49.772-28.736v-57.47ZM1199.772 2931.034l49.771 28.736v57.471l-49.771 28.736-49.772-28.736v-57.47ZM1299.772 2931.034l49.771 28.736v57.471l-49.771 28.736-49.772-28.736v-57.47Z"/><path stroke="#444" stroke-width=".9195360000000001" fill="#444444fa" d="m1399.772 2931.034 49.771 28.736v57.471l-49.771 28.736-49.772-28.736v-57.47Z"/><path stroke="#444" stroke-width=".9195360000000001" fill="none" d="m1499.772 2931.034 49.771 28.736v57.471l-49.771 28.736-49.772-28.736v-57.47ZM1599.772 2931.034l49.771 28.736v57.471l-49.771 28.736-49.772-28.736v-57.47Z"/><path stroke="#444" stroke-width=".9195360000000001" fill="#4444440d" d="m1699.772 2931.034 49.771 28.736v57.471l-49.771 28.736-49.772-28.736v-57.47Z"/><path stroke="#444" stroke-width=".9195360000000001" fill="none" d="m1799.772 2931.034 49.771 28.736v57.471l-49.771 28.736-49.772-28.736v-57.47ZM1899.772 2931.034l49.771 28.736v57.471l-49.771 28.736-49.772-28.736v-57.47ZM1999.772 2931.034l49.771 28.736v57.471l-49.771 28.736-49.772-28.736v-57.47Z"/></g><defs><radialGradient id="a"><stop offset="0" stop-color="#fff"/><stop offset="1" stop-color="#fff" stop-opacity="0"/></radialGradient></defs></svg>