<svg viewBox="0 0 1125 633" xmlns="http://www.w3.org/2000/svg"><mask id="b" x="0" y="0" width="1125" height="633"><path fill="url(#a)" d="M0 0h1125v633H0z"/></mask><path fill="#1a1a1a" d="M0 0h1125v633H0z"/><g style="transform-origin:center center" clip-rule="evenodd" stroke="#5a5a5a" stroke-width="1.125" mask="url(#b)"><g fill="none"><path d="M28 16.322v32.293l27.999 16.148V32.47L28 16.322ZM55.999 64.763 84 48.615V16.322L55.999 32.47v32.293Z" stroke-width=".21000375"/><path d="M28 16.322 55.999.177 84 16.322 55.999 32.47 28 16.322Z" stroke-width=".21000375"/></g><g fill="none"><path d="M84 16.322v32.293l27.999 16.148V32.47L84 16.322ZM111.999 64.763 140 48.615V16.322L111.999 32.47v32.293Z" stroke-width=".21000375"/><path d="M84 16.322 111.999.177 140 16.322 111.999 32.47 84 16.322Z" stroke-width=".21000375"/></g><g fill="none"><path d="M140 16.322v32.293l27.999 16.148V32.47L140 16.322ZM167.999 64.763 196 48.615V16.322L167.999 32.47v32.293Z" stroke-width=".21000375"/><path d="M140 16.322 167.999.177 196 16.322 167.999 32.47 140 16.322Z" stroke-width=".21000375"/></g><g fill-rule="evenodd"><path d="M196 16.322v32.293l27.999 16.148V32.47L196 16.322Z" fill="#5a5a5a54" stroke-width=".21000375"/><path d="M223.999 64.763 252 48.615V16.322L223.999 32.47v32.293Z" fill="#5a5a5a3b" stroke-width=".21000375"/><path d="M196 16.322 223.999.177 252 16.322 223.999 32.47 196 16.322Z" fill="#5a5a5a1d" stroke-width=".21000375"/></g><g fill="none"><path d="M252 16.322v32.293l27.999 16.148V32.47L252 16.322ZM279.999 64.763 308 48.615V16.322L279.999 32.47v32.293Z" stroke-width=".21000375"/><path d="M252 16.322 279.999.177 308 16.322 279.999 32.47 252 16.322Z" stroke-width=".21000375"/></g><g fill="none"><path d="M308 16.322v32.293l27.999 16.148V32.47L308 16.322ZM335.999 64.763 364 48.615V16.322L335.999 32.47v32.293Z" stroke-width=".21000375"/><path d="M308 16.322 335.999.177 364 16.322 335.999 32.47 308 16.322Z" stroke-width=".21000375"/></g><g fill="none"><path d="M364 16.322v32.293l27.999 16.148V32.47L364 16.322ZM391.999 64.763 420 48.615V16.322L391.999 32.47v32.293Z" stroke-width=".21000375"/><path d="M364 16.322 391.999.177 420 16.322 391.999 32.47 364 16.322Z" stroke-width=".21000375"/></g><g fill="none"><path d="M420 16.322v32.293l27.999 16.148V32.47L420 16.322ZM447.999 64.763 476 48.615V16.322L447.999 32.47v32.293Z" stroke-width=".21000375"/><path d="M420 16.322 447.999.177 476 16.322 447.999 32.47 420 16.322Z" stroke-width=".21000375"/></g><g fill-rule="evenodd"><path d="M476 16.322v32.293l27.999 16.148V32.47L476 16.322Z" fill="#5a5a5a7b" stroke-width=".21000375"/><path d="M503.999 64.763 532 48.615V16.322L503.999 32.47v32.293Z" fill="#5a5a5a56" stroke-width=".21000375"/><path d="M476 16.322 503.999.177 532 16.322 503.999 32.47 476 16.322Z" fill="#5a5a5a2b" stroke-width=".21000375"/></g><g fill="none"><path d="M532 16.322v32.293l27.999 16.148V32.47L532 16.322ZM559.999 64.763 588 48.615V16.322L559.999 32.47v32.293Z" stroke-width=".21000375"/><path d="M532 16.322 559.999.177 588 16.322 559.999 32.47 532 16.322Z" stroke-width=".21000375"/></g><g fill-rule="evenodd"><path d="M588 16.322v32.293l27.999 16.148V32.47L588 16.322Z" fill="#5a5a5a5d" stroke-width=".21000375"/><path d="M615.999 64.763 644 48.615V16.322L615.999 32.47v32.293Z" fill="#5a5a5a41" stroke-width=".21000375"/><path d="M588 16.322 615.999.177 644 16.322 615.999 32.47 588 16.322Z" fill="#5a5a5a21" stroke-width=".21000375"/></g><g fill="none"><path d="M644 16.322v32.293l27.999 16.148V32.47L644 16.322ZM671.999 64.763 700 48.615V16.322L671.999 32.47v32.293Z" stroke-width=".21000375"/><path d="M644 16.322 671.999.177 700 16.322 671.999 32.47 644 16.322Z" stroke-width=".21000375"/></g><g fill-rule="evenodd"><path d="M700 16.322v32.293l27.999 16.148V32.47L700 16.322Z" fill="#5a5a5ad1" stroke-width=".21000375"/><path d="M727.999 64.763 756 48.615V16.322L727.999 32.47v32.293Z" fill="#5a5a5a92" stroke-width=".21000375"/><path d="M700 16.322 727.999.177 756 16.322 727.999 32.47 700 16.322Z" fill="#5a5a5a49" stroke-width=".21000375"/></g><g fill="none"><path d="M756 16.322v32.293l27.999 16.148V32.47L756 16.322ZM783.999 64.763 812 48.615V16.322L783.999 32.47v32.293Z" stroke-width=".21000375"/><path d="M756 16.322 783.999.177 812 16.322 783.999 32.47 756 16.322Z" stroke-width=".21000375"/></g><g fill="none"><path d="M812 16.322v32.293l27.999 16.148V32.47L812 16.322ZM839.999 64.763 868 48.615V16.322L839.999 32.47v32.293Z" stroke-width=".21000375"/><path d="M812 16.322 839.999.177 868 16.322 839.999 32.47 812 16.322Z" stroke-width=".21000375"/></g><g fill-rule="evenodd"><path d="M868 16.322v32.293l27.999 16.148V32.47L868 16.322Z" fill="#5a5a5aef" stroke-width=".21000375"/><path d="M895.999 64.763 924 48.615V16.322L895.999 32.47v32.293Z" fill="#5a5a5aa7" stroke-width=".21000375"/><path d="M868 16.322 895.999.177 924 16.322 895.999 32.47 868 16.322Z" fill="#5a5a5a54" stroke-width=".21000375"/></g><g fill="none"><path d="M924 16.322v32.293l27.999 16.148V32.47L924 16.322ZM951.999 64.763 980 48.615V16.322L951.999 32.47v32.293Z" stroke-width=".21000375"/><path d="M924 16.322 951.999.177 980 16.322 951.999 32.47 924 16.322Z" stroke-width=".21000375"/></g><g fill="none"><path d="M980 16.322v32.293l27.999 16.148V32.47L980 16.322ZM1007.999 64.763 1036 48.615V16.322l-28.001 16.148v32.293Z" stroke-width=".21000375"/><path d="M980 16.322 1007.999.177 1036 16.322l-28.001 16.148L980 16.322Z" stroke-width=".21000375"/></g><g fill-rule="evenodd"><path d="M1036 16.322v32.293l27.999 16.148V32.47L1036 16.322Z" fill="#5a5a5a23" stroke-width=".21000375"/><path d="M1063.999 64.763 1092 48.615V16.322l-28.001 16.148v32.293Z" fill="#5a5a5a18" stroke-width=".21000375"/><path d="M1036 16.322 1063.999.177 1092 16.322l-28.001 16.148L1036 16.322Z" fill="#5a5a5a0c" stroke-width=".21000375"/></g><g fill-rule="evenodd"><path d="M1092 16.322v32.293l27.999 16.148V32.47L1092 16.322Z" fill="#5a5a5a39" stroke-width=".21000375"/><path d="M1119.999 64.763 1148 48.615V16.322l-28.001 16.148v32.293Z" fill="#5a5a5a28" stroke-width=".21000375"/><path d="M1092 16.322 1119.999.177 1148 16.322l-28.001 16.148L1092 16.322Z" fill="#5a5a5a14" stroke-width=".21000375"/></g><g fill-rule="evenodd"><path d="M0 64.855V97.15l27.999 16.148V81.003L0 64.855Z" fill="#5a5a5a2e" stroke-width=".21000375"/><path d="M27.999 113.297 56 97.149V64.855L27.999 81.003v32.294Z" fill="#5a5a5a20" stroke-width=".21000375"/><path d="M0 64.855 27.999 48.71 56 64.855 27.999 81.003 0 64.855Z" fill="#5a5a5a10" stroke-width=".21000375"/></g><g fill-rule="evenodd"><path d="M56 64.855V97.15l27.999 16.148V81.003L56 64.855Z" fill="#5a5a5a66" stroke-width=".21000375"/><path d="M83.999 113.297 112 97.149V64.855L83.999 81.003v32.294Z" fill="#5a5a5a48" stroke-width=".21000375"/><path d="M56 64.855 83.999 48.71 112 64.855 83.999 81.003 56 64.855Z" fill="#5a5a5a24" stroke-width=".21000375"/></g><g fill="none"><path d="M112 64.855V97.15l27.999 16.148V81.003L112 64.855ZM139.999 113.297 168 97.149V64.855l-28.001 16.148v32.294Z" stroke-width=".21000375"/><path d="m112 64.855 27.999-16.145L168 64.855l-28.001 16.148L112 64.855Z" stroke-width=".21000375"/></g><g fill="none"><path d="M168 64.855V97.15l27.999 16.148V81.003L168 64.855ZM195.999 113.297 224 97.149V64.855l-28.001 16.148v32.294Z" stroke-width=".21000375"/><path d="m168 64.855 27.999-16.145L224 64.855l-28.001 16.148L168 64.855Z" stroke-width=".21000375"/></g><g fill="none"><path d="M224 64.855V97.15l27.999 16.148V81.003L224 64.855ZM251.999 113.297 280 97.149V64.855l-28.001 16.148v32.294Z" stroke-width=".21000375"/><path d="m224 64.855 27.999-16.145L280 64.855l-28.001 16.148L224 64.855Z" stroke-width=".21000375"/></g><g fill="none"><path d="M280 64.855V97.15l27.999 16.148V81.003L280 64.855ZM307.999 113.297 336 97.149V64.855l-28.001 16.148v32.294Z" stroke-width=".21000375"/><path d="m280 64.855 27.999-16.145L336 64.855l-28.001 16.148L280 64.855Z" stroke-width=".21000375"/></g><g fill="none"><path d="M336 64.855V97.15l27.999 16.148V81.003L336 64.855ZM363.999 113.297 392 97.149V64.855l-28.001 16.148v32.294Z" stroke-width=".21000375"/><path d="m336 64.855 27.999-16.145L392 64.855l-28.001 16.148L336 64.855Z" stroke-width=".21000375"/></g><g fill-rule="evenodd"><path d="M392 64.855V97.15l27.999 16.148V81.003L392 64.855Z" fill="#5a5a5a54" stroke-width=".21000375"/><path d="M419.999 113.297 448 97.149V64.855l-28.001 16.148v32.294Z" fill="#5a5a5a3b" stroke-width=".21000375"/><path d="m392 64.855 27.999-16.145L448 64.855l-28.001 16.148L392 64.855Z" fill="#5a5a5a1e" stroke-width=".21000375"/></g><g fill="none"><path d="M448 64.855V97.15l27.999 16.148V81.003L448 64.855ZM475.999 113.297 504 97.149V64.855l-28.001 16.148v32.294Z" stroke-width=".21000375"/><path d="m448 64.855 27.999-16.145L504 64.855l-28.001 16.148L448 64.855Z" stroke-width=".21000375"/></g><g fill="none"><path d="M504 64.855V97.15l27.999 16.148V81.003L504 64.855ZM531.999 113.297 560 97.149V64.855l-28.001 16.148v32.294Z" stroke-width=".21000375"/><path d="m504 64.855 27.999-16.145L560 64.855l-28.001 16.148L504 64.855Z" stroke-width=".21000375"/></g><g fill="none"><path d="M560 64.855V97.15l27.999 16.148V81.003L560 64.855ZM587.999 113.297 616 97.149V64.855l-28.001 16.148v32.294Z" stroke-width=".21000375"/><path d="m560 64.855 27.999-16.145L616 64.855l-28.001 16.148L560 64.855Z" stroke-width=".21000375"/></g><g fill-rule="evenodd"><path d="M616 64.855V97.15l27.999 16.148V81.003L616 64.855Z" fill="#5a5a5a17" stroke-width=".21000375"/><path d="M643.999 113.297 672 97.149V64.855l-28.001 16.148v32.294Z" fill="#5a5a5a10" stroke-width=".21000375"/><path d="m616 64.855 27.999-16.145L672 64.855l-28.001 16.148L616 64.855Z" fill="#5a5a5a08" stroke-width=".21000375"/></g><g fill="none"><path d="M672 64.855V97.15l27.999 16.148V81.003L672 64.855ZM699.999 113.297 728 97.149V64.855l-28.001 16.148v32.294Z" stroke-width=".21000375"/><path d="m672 64.855 27.999-16.145L728 64.855l-28.001 16.148L672 64.855Z" stroke-width=".21000375"/></g><g fill-rule="evenodd"><path d="M728 64.855V97.15l27.999 16.148V81.003L728 64.855Z" fill="#5a5a5a16" stroke-width=".21000375"/><path d="M755.999 113.297 784 97.149V64.855l-28.001 16.148v32.294Z" fill="#5a5a5a10" stroke-width=".21000375"/><path d="m728 64.855 27.999-16.145L784 64.855l-28.001 16.148L728 64.855Z" fill="#5a5a5a08" stroke-width=".21000375"/></g><g fill="none"><path d="M784 64.855V97.15l27.999 16.148V81.003L784 64.855ZM811.999 113.297 840 97.149V64.855l-28.001 16.148v32.294Z" stroke-width=".21000375"/><path d="m784 64.855 27.999-16.145L840 64.855l-28.001 16.148L784 64.855Z" stroke-width=".21000375"/></g><g fill="none"><path d="M840 64.855V97.15l27.999 16.148V81.003L840 64.855ZM867.999 113.297 896 97.149V64.855l-28.001 16.148v32.294Z" stroke-width=".21000375"/><path d="m840 64.855 27.999-16.145L896 64.855l-28.001 16.148L840 64.855Z" stroke-width=".21000375"/></g><g fill="none"><path d="M896 64.855V97.15l27.999 16.148V81.003L896 64.855ZM923.999 113.297 952 97.149V64.855l-28.001 16.148v32.294Z" stroke-width=".21000375"/><path d="m896 64.855 27.999-16.145L952 64.855l-28.001 16.148L896 64.855Z" stroke-width=".21000375"/></g><g fill="none"><path d="M952 64.855V97.15l27.999 16.148V81.003L952 64.855ZM979.999 113.297 1008 97.149V64.855l-28.001 16.148v32.294Z" stroke-width=".21000375"/><path d="m952 64.855 27.999-16.145L1008 64.855l-28.001 16.148L952 64.855Z" stroke-width=".21000375"/></g><g fill-rule="evenodd"><path d="M1008 64.855V97.15l27.999 16.148V81.003L1008 64.855Z" fill="#5a5a5a3a" stroke-width=".21000375"/><path d="M1035.999 113.297 1064 97.149V64.855l-28.001 16.148v32.294Z" fill="#5a5a5a29" stroke-width=".21000375"/><path d="m1008 64.855 27.999-16.145L1064 64.855l-28.001 16.148L1008 64.855Z" fill="#5a5a5a14" stroke-width=".21000375"/></g><g fill="none"><path d="M1064 64.855V97.15l27.999 16.148V81.003L1064 64.855ZM1091.999 113.297 1120 97.149V64.855l-28.001 16.148v32.294Z" stroke-width=".21000375"/><path d="m1064 64.855 27.999-16.145L1120 64.855l-28.001 16.148L1064 64.855Z" stroke-width=".21000375"/></g><g fill-rule="evenodd"><path d="M28 113.389v32.293l27.999 16.148v-32.293L28 113.389Z" fill="#5a5a5a1b" stroke-width=".21000375"/><path d="M55.999 161.83 84 145.682V113.39l-28.001 16.148v32.293Z" fill="#5a5a5a13" stroke-width=".21000375"/><path d="m28 113.389 27.999-16.146L84 113.39l-28.001 16.148L28 113.389Z" fill="#5a5a5a09" stroke-width=".21000375"/></g><g fill="none"><path d="M84 113.389v32.293l27.999 16.148v-32.293L84 113.389ZM111.999 161.83 140 145.682V113.39l-28.001 16.148v32.293Z" stroke-width=".21000375"/><path d="m84 113.389 27.999-16.146L140 113.39l-28.001 16.148L84 113.389Z" stroke-width=".21000375"/></g><g fill="none"><path d="M140 113.389v32.293l27.999 16.148v-32.293L140 113.389ZM167.999 161.83 196 145.682V113.39l-28.001 16.148v32.293Z" stroke-width=".21000375"/><path d="m140 113.389 27.999-16.146L196 113.39l-28.001 16.148L140 113.389Z" stroke-width=".21000375"/></g><g fill="none"><path d="M196 113.389v32.293l27.999 16.148v-32.293L196 113.389ZM223.999 161.83 252 145.682V113.39l-28.001 16.148v32.293Z" stroke-width=".21000375"/><path d="m196 113.389 27.999-16.146L252 113.39l-28.001 16.148L196 113.389Z" stroke-width=".21000375"/></g><g fill-rule="evenodd"><path d="M252 113.389v32.293l27.999 16.148v-32.293L252 113.389Z" fill="#5a5a5a80" stroke-width=".21000375"/><path d="M279.999 161.83 308 145.682V113.39l-28.001 16.148v32.293Z" fill="#5a5a5a5a" stroke-width=".21000375"/><path d="m252 113.389 27.999-16.146L308 113.39l-28.001 16.148L252 113.389Z" fill="#5a5a5a2d" stroke-width=".21000375"/></g><g fill-rule="evenodd"><path d="M308 113.389v32.293l27.999 16.148v-32.293L308 113.389Z" fill="#5a5a5abc" stroke-width=".21000375"/><path d="M335.999 161.83 364 145.682V113.39l-28.001 16.148v32.293Z" fill="#5a5a5a83" stroke-width=".21000375"/><path d="m308 113.389 27.999-16.146L364 113.39l-28.001 16.148L308 113.389Z" fill="#5a5a5a42" stroke-width=".21000375"/></g><g fill="none"><path d="M364 113.389v32.293l27.999 16.148v-32.293L364 113.389ZM391.999 161.83 420 145.682V113.39l-28.001 16.148v32.293Z" stroke-width=".21000375"/><path d="m364 113.389 27.999-16.146L420 113.39l-28.001 16.148L364 113.389Z" stroke-width=".21000375"/></g><g fill="none"><path d="M420 113.389v32.293l27.999 16.148v-32.293L420 113.389ZM447.999 161.83 476 145.682V113.39l-28.001 16.148v32.293Z" stroke-width=".21000375"/><path d="m420 113.389 27.999-16.146L476 113.39l-28.001 16.148L420 113.389Z" stroke-width=".21000375"/></g><g fill="none"><path d="M476 113.389v32.293l27.999 16.148v-32.293L476 113.389ZM503.999 161.83 532 145.682V113.39l-28.001 16.148v32.293Z" stroke-width=".21000375"/><path d="m476 113.389 27.999-16.146L532 113.39l-28.001 16.148L476 113.389Z" stroke-width=".21000375"/></g><g fill="none"><path d="M532 113.389v32.293l27.999 16.148v-32.293L532 113.389ZM559.999 161.83 588 145.682V113.39l-28.001 16.148v32.293Z" stroke-width=".21000375"/><path d="m532 113.389 27.999-16.146L588 113.39l-28.001 16.148L532 113.389Z" stroke-width=".21000375"/></g><g fill-rule="evenodd"><path d="M588 113.389v32.293l27.999 16.148v-32.293L588 113.389Z" fill="#5a5a5a98" stroke-width=".21000375"/><path d="M615.999 161.83 644 145.682V113.39l-28.001 16.148v32.293Z" fill="#5a5a5a6b" stroke-width=".21000375"/><path d="m588 113.389 27.999-16.146L644 113.39l-28.001 16.148L588 113.389Z" fill="#5a5a5a35" stroke-width=".21000375"/></g><g fill="none"><path d="M644 113.389v32.293l27.999 16.148v-32.293L644 113.389ZM671.999 161.83 700 145.682V113.39l-28.001 16.148v32.293Z" stroke-width=".21000375"/><path d="m644 113.389 27.999-16.146L700 113.39l-28.001 16.148L644 113.389Z" stroke-width=".21000375"/></g><g fill="none"><path d="M700 113.389v32.293l27.999 16.148v-32.293L700 113.389ZM727.999 161.83 756 145.682V113.39l-28.001 16.148v32.293Z" stroke-width=".21000375"/><path d="m700 113.389 27.999-16.146L756 113.39l-28.001 16.148L700 113.389Z" stroke-width=".21000375"/></g><g fill-rule="evenodd"><path d="M756 113.389v32.293l27.999 16.148v-32.293L756 113.389Z" fill="#5a5a5a2c" stroke-width=".21000375"/><path d="M783.999 161.83 812 145.682V113.39l-28.001 16.148v32.293Z" fill="#5a5a5a1f" stroke-width=".21000375"/><path d="m756 113.389 27.999-16.146L812 113.39l-28.001 16.148L756 113.389Z" fill="#5a5a5a0f" stroke-width=".21000375"/></g><g fill="none"><path d="M812 113.389v32.293l27.999 16.148v-32.293L812 113.389ZM839.999 161.83 868 145.682V113.39l-28.001 16.148v32.293Z" stroke-width=".21000375"/><path d="m812 113.389 27.999-16.146L868 113.39l-28.001 16.148L812 113.389Z" stroke-width=".21000375"/></g><g fill="none"><path d="M868 113.389v32.293l27.999 16.148v-32.293L868 113.389ZM895.999 161.83 924 145.682V113.39l-28.001 16.148v32.293Z" stroke-width=".21000375"/><path d="m868 113.389 27.999-16.146L924 113.39l-28.001 16.148L868 113.389Z" stroke-width=".21000375"/></g><g fill="none"><path d="M924 113.389v32.293l27.999 16.148v-32.293L924 113.389ZM951.999 161.83 980 145.682V113.39l-28.001 16.148v32.293Z" stroke-width=".21000375"/><path d="m924 113.389 27.999-16.146L980 113.39l-28.001 16.148L924 113.389Z" stroke-width=".21000375"/></g><g fill-rule="evenodd"><path d="M980 113.389v32.293l27.999 16.148v-32.293L980 113.389Z" fill="#5a5a5a2d" stroke-width=".21000375"/><path d="M1007.999 161.83 1036 145.682V113.39l-28.001 16.148v32.293Z" fill="#5a5a5a20" stroke-width=".21000375"/><path d="m980 113.389 27.999-16.146L1036 113.39l-28.001 16.148L980 113.389Z" fill="#5a5a5a10" stroke-width=".21000375"/></g><g fill="none"><path d="M1036 113.389v32.293l27.999 16.148v-32.293L1036 113.389ZM1063.999 161.83 1092 145.682V113.39l-28.001 16.148v32.293Z" stroke-width=".21000375"/><path d="m1036 113.389 27.999-16.146L1092 113.39l-28.001 16.148L1036 113.389Z" stroke-width=".21000375"/></g><g fill="none"><path d="M1092 113.389v32.293l27.999 16.148v-32.293L1092 113.389ZM1119.999 161.83 1148 145.682V113.39l-28.001 16.148v32.293Z" stroke-width=".21000375"/><path d="m1092 113.389 27.999-16.146L1148 113.39l-28.001 16.148L1092 113.389Z" stroke-width=".21000375"/></g><g fill="none"><path d="M0 161.922v32.293l27.999 16.148V178.07L0 161.922ZM27.999 210.363 56 194.215v-32.293L27.999 178.07v32.293Z" stroke-width=".21000375"/><path d="m0 161.922 27.999-16.145L56 161.922 27.999 178.07 0 161.922Z" stroke-width=".21000375"/></g><g fill="none"><path d="M56 161.922v32.293l27.999 16.148V178.07L56 161.922ZM83.999 210.363 112 194.215v-32.293L83.999 178.07v32.293Z" stroke-width=".21000375"/><path d="m56 161.922 27.999-16.145L112 161.922 83.999 178.07 56 161.922Z" stroke-width=".21000375"/></g><g fill="none"><path d="M112 161.922v32.293l27.999 16.148V178.07L112 161.922ZM139.999 210.363 168 194.215v-32.293l-28.001 16.148v32.293Z" stroke-width=".21000375"/><path d="m112 161.922 27.999-16.145L168 161.922l-28.001 16.148L112 161.922Z" stroke-width=".21000375"/></g><g fill="none"><path d="M168 161.922v32.293l27.999 16.148V178.07L168 161.922ZM195.999 210.363 224 194.215v-32.293l-28.001 16.148v32.293Z" stroke-width=".21000375"/><path d="m168 161.922 27.999-16.145L224 161.922l-28.001 16.148L168 161.922Z" stroke-width=".21000375"/></g><g fill-rule="evenodd"><path d="M224 161.922v32.293l27.999 16.148V178.07L224 161.922Z" fill="#5a5a5a82" stroke-width=".21000375"/><path d="M251.999 210.363 280 194.215v-32.293l-28.001 16.148v32.293Z" fill="#5a5a5a5b" stroke-width=".21000375"/><path d="m224 161.922 27.999-16.145L280 161.922l-28.001 16.148L224 161.922Z" fill="#5a5a5a2d" stroke-width=".21000375"/></g><g fill="none"><path d="M280 161.922v32.293l27.999 16.148V178.07L280 161.922ZM307.999 210.363 336 194.215v-32.293l-28.001 16.148v32.293Z" stroke-width=".21000375"/><path d="m280 161.922 27.999-16.145L336 161.922l-28.001 16.148L280 161.922Z" stroke-width=".21000375"/></g><g fill="none"><path d="M336 161.922v32.293l27.999 16.148V178.07L336 161.922ZM363.999 210.363 392 194.215v-32.293l-28.001 16.148v32.293Z" stroke-width=".21000375"/><path d="m336 161.922 27.999-16.145L392 161.922l-28.001 16.148L336 161.922Z" stroke-width=".21000375"/></g><g fill-rule="evenodd"><path d="M392 161.922v32.293l27.999 16.148V178.07L392 161.922Z" fill="#5a5a5a3e" stroke-width=".21000375"/><path d="M419.999 210.363 448 194.215v-32.293l-28.001 16.148v32.293Z" fill="#5a5a5a2c" stroke-width=".21000375"/><path d="m392 161.922 27.999-16.145L448 161.922l-28.001 16.148L392 161.922Z" fill="#5a5a5a16" stroke-width=".21000375"/></g><g fill-rule="evenodd"><path d="M448 161.922v32.293l27.999 16.148V178.07L448 161.922Z" fill="#5a5a5a71" stroke-width=".21000375"/><path d="M475.999 210.363 504 194.215v-32.293l-28.001 16.148v32.293Z" fill="#5a5a5a4f" stroke-width=".21000375"/><path d="m448 161.922 27.999-16.145L504 161.922l-28.001 16.148L448 161.922Z" fill="#5a5a5a27" stroke-width=".21000375"/></g><g fill="none"><path d="M504 161.922v32.293l27.999 16.148V178.07L504 161.922ZM531.999 210.363 560 194.215v-32.293l-28.001 16.148v32.293Z" stroke-width=".21000375"/><path d="m504 161.922 27.999-16.145L560 161.922l-28.001 16.148L504 161.922Z" stroke-width=".21000375"/></g><g fill-rule="evenodd"><path d="M560 161.922v32.293l27.999 16.148V178.07L560 161.922Z" fill="#5a5a5a16" stroke-width=".21000375"/><path d="M587.999 210.363 616 194.215v-32.293l-28.001 16.148v32.293Z" fill="#5a5a5a0f" stroke-width=".21000375"/><path d="m560 161.922 27.999-16.145L616 161.922l-28.001 16.148L560 161.922Z" fill="#5a5a5a08" stroke-width=".21000375"/></g><g fill-rule="evenodd"><path d="M616 161.922v32.293l27.999 16.148V178.07L616 161.922Z" fill="#5a5a5a54" stroke-width=".21000375"/><path d="M643.999 210.363 672 194.215v-32.293l-28.001 16.148v32.293Z" fill="#5a5a5a3b" stroke-width=".21000375"/><path d="m616 161.922 27.999-16.145L672 161.922l-28.001 16.148L616 161.922Z" fill="#5a5a5a1d" stroke-width=".21000375"/></g><g fill="none"><path d="M672 161.922v32.293l27.999 16.148V178.07L672 161.922ZM699.999 210.363 728 194.215v-32.293l-28.001 16.148v32.293Z" stroke-width=".21000375"/><path d="m672 161.922 27.999-16.145L728 161.922l-28.001 16.148L672 161.922Z" stroke-width=".21000375"/></g><g fill="none"><path d="M728 161.922v32.293l27.999 16.148V178.07L728 161.922ZM755.999 210.363 784 194.215v-32.293l-28.001 16.148v32.293Z" stroke-width=".21000375"/><path d="m728 161.922 27.999-16.145L784 161.922l-28.001 16.148L728 161.922Z" stroke-width=".21000375"/></g><g fill="none"><path d="M784 161.922v32.293l27.999 16.148V178.07L784 161.922ZM811.999 210.363 840 194.215v-32.293l-28.001 16.148v32.293Z" stroke-width=".21000375"/><path d="m784 161.922 27.999-16.145L840 161.922l-28.001 16.148L784 161.922Z" stroke-width=".21000375"/></g><g fill="none"><path d="M840 161.922v32.293l27.999 16.148V178.07L840 161.922ZM867.999 210.363 896 194.215v-32.293l-28.001 16.148v32.293Z" stroke-width=".21000375"/><path d="m840 161.922 27.999-16.145L896 161.922l-28.001 16.148L840 161.922Z" stroke-width=".21000375"/></g><g fill="none"><path d="M896 161.922v32.293l27.999 16.148V178.07L896 161.922ZM923.999 210.363 952 194.215v-32.293l-28.001 16.148v32.293Z" stroke-width=".21000375"/><path d="m896 161.922 27.999-16.145L952 161.922l-28.001 16.148L896 161.922Z" stroke-width=".21000375"/></g><g fill="none"><path d="M952 161.922v32.293l27.999 16.148V178.07L952 161.922ZM979.999 210.363 1008 194.215v-32.293l-28.001 16.148v32.293Z" stroke-width=".21000375"/><path d="m952 161.922 27.999-16.145L1008 161.922l-28.001 16.148L952 161.922Z" stroke-width=".21000375"/></g><g fill-rule="evenodd"><path d="M1008 161.922v32.293l27.999 16.148V178.07L1008 161.922Z" fill="#5a5a5af4" stroke-width=".21000375"/><path d="M1035.999 210.363 1064 194.215v-32.293l-28.001 16.148v32.293Z" fill="#5a5a5aab" stroke-width=".21000375"/><path d="m1008 161.922 27.999-16.145L1064 161.922l-28.001 16.148L1008 161.922Z" fill="#5a5a5a55" stroke-width=".21000375"/></g><g fill-rule="evenodd"><path d="M1064 161.922v32.293l27.999 16.148V178.07L1064 161.922Z" fill="#5a5a5a38" stroke-width=".21000375"/><path d="M1091.999 210.363 1120 194.215v-32.293l-28.001 16.148v32.293Z" fill="#5a5a5a27" stroke-width=".21000375"/><path d="m1064 161.922 27.999-16.145L1120 161.922l-28.001 16.148L1064 161.922Z" fill="#5a5a5a13" stroke-width=".21000375"/></g><g fill="none"><path d="M28 210.455v32.294l27.999 16.148v-32.294L28 210.455ZM55.999 258.897 84 242.749v-32.294l-28.001 16.148v32.294Z" stroke-width=".21000375"/><path d="m28 210.455 27.999-16.145L84 210.455l-28.001 16.148L28 210.455Z" stroke-width=".21000375"/></g><g fill="none"><path d="M84 210.455v32.294l27.999 16.148v-32.294L84 210.455ZM111.999 258.897 140 242.749v-32.294l-28.001 16.148v32.294Z" stroke-width=".21000375"/><path d="m84 210.455 27.999-16.145L140 210.455l-28.001 16.148L84 210.455Z" stroke-width=".21000375"/></g><g fill-rule="evenodd"><path d="M140 210.455v32.294l27.999 16.148v-32.294L140 210.455Z" fill="#5a5a5ab8" stroke-width=".21000375"/><path d="M167.999 258.897 196 242.749v-32.294l-28.001 16.148v32.294Z" fill="#5a5a5a81" stroke-width=".21000375"/><path d="m140 210.455 27.999-16.145L196 210.455l-28.001 16.148L140 210.455Z" fill="#5a5a5a40" stroke-width=".21000375"/></g><g fill="none"><path d="M196 210.455v32.294l27.999 16.148v-32.294L196 210.455ZM223.999 258.897 252 242.749v-32.294l-28.001 16.148v32.294Z" stroke-width=".21000375"/><path d="m196 210.455 27.999-16.145L252 210.455l-28.001 16.148L196 210.455Z" stroke-width=".21000375"/></g><g fill-rule="evenodd"><path d="M252 210.455v32.294l27.999 16.148v-32.294L252 210.455Z" fill="#5a5a5a0e" stroke-width=".21000375"/><path d="M279.999 258.897 308 242.749v-32.294l-28.001 16.148v32.294Z" fill="#5a5a5a0a" stroke-width=".21000375"/><path d="m252 210.455 27.999-16.145L308 210.455l-28.001 16.148L252 210.455Z" fill="#5a5a5a05" stroke-width=".21000375"/></g><g fill="none"><path d="M308 210.455v32.294l27.999 16.148v-32.294L308 210.455ZM335.999 258.897 364 242.749v-32.294l-28.001 16.148v32.294Z" stroke-width=".21000375"/><path d="m308 210.455 27.999-16.145L364 210.455l-28.001 16.148L308 210.455Z" stroke-width=".21000375"/></g><g fill="none"><path d="M364 210.455v32.294l27.999 16.148v-32.294L364 210.455ZM391.999 258.897 420 242.749v-32.294l-28.001 16.148v32.294Z" stroke-width=".21000375"/><path d="m364 210.455 27.999-16.145L420 210.455l-28.001 16.148L364 210.455Z" stroke-width=".21000375"/></g><g fill-rule="evenodd"><path d="M420 210.455v32.294l27.999 16.148v-32.294L420 210.455Z" fill="#5a5a5ac1" stroke-width=".21000375"/><path d="M447.999 258.897 476 242.749v-32.294l-28.001 16.148v32.294Z" fill="#5a5a5a87" stroke-width=".21000375"/><path d="m420 210.455 27.999-16.145L476 210.455l-28.001 16.148L420 210.455Z" fill="#5a5a5a44" stroke-width=".21000375"/></g><g fill="none"><path d="M476 210.455v32.294l27.999 16.148v-32.294L476 210.455ZM503.999 258.897 532 242.749v-32.294l-28.001 16.148v32.294Z" stroke-width=".21000375"/><path d="m476 210.455 27.999-16.145L532 210.455l-28.001 16.148L476 210.455Z" stroke-width=".21000375"/></g><g fill="none"><path d="M532 210.455v32.294l27.999 16.148v-32.294L532 210.455ZM559.999 258.897 588 242.749v-32.294l-28.001 16.148v32.294Z" stroke-width=".21000375"/><path d="m532 210.455 27.999-16.145L588 210.455l-28.001 16.148L532 210.455Z" stroke-width=".21000375"/></g><g fill="none"><path d="M588 210.455v32.294l27.999 16.148v-32.294L588 210.455ZM615.999 258.897 644 242.749v-32.294l-28.001 16.148v32.294Z" stroke-width=".21000375"/><path d="m588 210.455 27.999-16.145L644 210.455l-28.001 16.148L588 210.455Z" stroke-width=".21000375"/></g><g fill-rule="evenodd"><path d="M644 210.455v32.294l27.999 16.148v-32.294L644 210.455Z" fill="#5a5a5a7f" stroke-width=".21000375"/><path d="M671.999 258.897 700 242.749v-32.294l-28.001 16.148v32.294Z" fill="#5a5a5a59" stroke-width=".21000375"/><path d="m644 210.455 27.999-16.145L700 210.455l-28.001 16.148L644 210.455Z" fill="#5a5a5a2d" stroke-width=".21000375"/></g><g fill="none"><path d="M700 210.455v32.294l27.999 16.148v-32.294L700 210.455ZM727.999 258.897 756 242.749v-32.294l-28.001 16.148v32.294Z" stroke-width=".21000375"/><path d="m700 210.455 27.999-16.145L756 210.455l-28.001 16.148L700 210.455Z" stroke-width=".21000375"/></g><g fill="none"><path d="M756 210.455v32.294l27.999 16.148v-32.294L756 210.455ZM783.999 258.897 812 242.749v-32.294l-28.001 16.148v32.294Z" stroke-width=".21000375"/><path d="m756 210.455 27.999-16.145L812 210.455l-28.001 16.148L756 210.455Z" stroke-width=".21000375"/></g><g fill="none"><path d="M812 210.455v32.294l27.999 16.148v-32.294L812 210.455ZM839.999 258.897 868 242.749v-32.294l-28.001 16.148v32.294Z" stroke-width=".21000375"/><path d="m812 210.455 27.999-16.145L868 210.455l-28.001 16.148L812 210.455Z" stroke-width=".21000375"/></g><g fill="none"><path d="M868 210.455v32.294l27.999 16.148v-32.294L868 210.455ZM895.999 258.897 924 242.749v-32.294l-28.001 16.148v32.294Z" stroke-width=".21000375"/><path d="m868 210.455 27.999-16.145L924 210.455l-28.001 16.148L868 210.455Z" stroke-width=".21000375"/></g><g fill="none"><path d="M924 210.455v32.294l27.999 16.148v-32.294L924 210.455ZM951.999 258.897 980 242.749v-32.294l-28.001 16.148v32.294Z" stroke-width=".21000375"/><path d="m924 210.455 27.999-16.145L980 210.455l-28.001 16.148L924 210.455Z" stroke-width=".21000375"/></g><g fill-rule="evenodd"><path d="M980 210.455v32.294l27.999 16.148v-32.294L980 210.455Z" fill="#5a5a5a5a" stroke-width=".21000375"/><path d="M1007.999 258.897 1036 242.749v-32.294l-28.001 16.148v32.294Z" fill="#5a5a5a3f" stroke-width=".21000375"/><path d="m980 210.455 27.999-16.145L1036 210.455l-28.001 16.148L980 210.455Z" fill="#5a5a5a1f" stroke-width=".21000375"/></g><g fill="none"><path d="M1036 210.455v32.294l27.999 16.148v-32.294L1036 210.455ZM1063.999 258.897 1092 242.749v-32.294l-28.001 16.148v32.294Z" stroke-width=".21000375"/><path d="m1036 210.455 27.999-16.145L1092 210.455l-28.001 16.148L1036 210.455Z" stroke-width=".21000375"/></g><g fill="none"><path d="M1092 210.455v32.294l27.999 16.148v-32.294L1092 210.455ZM1119.999 258.897 1148 242.749v-32.294l-28.001 16.148v32.294Z" stroke-width=".21000375"/><path d="m1092 210.455 27.999-16.145L1148 210.455l-28.001 16.148L1092 210.455Z" stroke-width=".21000375"/></g><g fill="none"><path d="M0 258.989v32.293l27.999 16.148v-32.293L0 258.989ZM27.999 307.43 56 291.282V258.99l-28.001 16.148v32.293Z" stroke-width=".21000375"/><path d="m0 258.989 27.999-16.146L56 258.99l-28.001 16.148L0 258.989Z" stroke-width=".21000375"/></g><g fill="none"><path d="M56 258.989v32.293l27.999 16.148v-32.293L56 258.989ZM83.999 307.43 112 291.282V258.99l-28.001 16.148v32.293Z" stroke-width=".21000375"/><path d="m56 258.989 27.999-16.146L112 258.99l-28.001 16.148L56 258.989Z" stroke-width=".21000375"/></g><g fill="none"><path d="M112 258.989v32.293l27.999 16.148v-32.293L112 258.989ZM139.999 307.43 168 291.282V258.99l-28.001 16.148v32.293Z" stroke-width=".21000375"/><path d="m112 258.989 27.999-16.146L168 258.99l-28.001 16.148L112 258.989Z" stroke-width=".21000375"/></g><g fill-rule="evenodd"><path d="M168 258.989v32.293l27.999 16.148v-32.293L168 258.989Z" fill="#5a5a5a84" stroke-width=".21000375"/><path d="M195.999 307.43 224 291.282V258.99l-28.001 16.148v32.293Z" fill="#5a5a5a5c" stroke-width=".21000375"/><path d="m168 258.989 27.999-16.146L224 258.99l-28.001 16.148L168 258.989Z" fill="#5a5a5a2e" stroke-width=".21000375"/></g><g fill="none"><path d="M224 258.989v32.293l27.999 16.148v-32.293L224 258.989ZM251.999 307.43 280 291.282V258.99l-28.001 16.148v32.293Z" stroke-width=".21000375"/><path d="m224 258.989 27.999-16.146L280 258.99l-28.001 16.148L224 258.989Z" stroke-width=".21000375"/></g><g fill="none"><path d="M280 258.989v32.293l27.999 16.148v-32.293L280 258.989ZM307.999 307.43 336 291.282V258.99l-28.001 16.148v32.293Z" stroke-width=".21000375"/><path d="m280 258.989 27.999-16.146L336 258.99l-28.001 16.148L280 258.989Z" stroke-width=".21000375"/></g><g fill="none"><path d="M336 258.989v32.293l27.999 16.148v-32.293L336 258.989ZM363.999 307.43 392 291.282V258.99l-28.001 16.148v32.293Z" stroke-width=".21000375"/><path d="m336 258.989 27.999-16.146L392 258.99l-28.001 16.148L336 258.989Z" stroke-width=".21000375"/></g><g fill="none"><path d="M392 258.989v32.293l27.999 16.148v-32.293L392 258.989ZM419.999 307.43 448 291.282V258.99l-28.001 16.148v32.293Z" stroke-width=".21000375"/><path d="m392 258.989 27.999-16.146L448 258.99l-28.001 16.148L392 258.989Z" stroke-width=".21000375"/></g><g fill="none"><path d="M448 258.989v32.293l27.999 16.148v-32.293L448 258.989ZM475.999 307.43 504 291.282V258.99l-28.001 16.148v32.293Z" stroke-width=".21000375"/><path d="m448 258.989 27.999-16.146L504 258.99l-28.001 16.148L448 258.989Z" stroke-width=".21000375"/></g><g fill="none"><path d="M504 258.989v32.293l27.999 16.148v-32.293L504 258.989ZM531.999 307.43 560 291.282V258.99l-28.001 16.148v32.293Z" stroke-width=".21000375"/><path d="m504 258.989 27.999-16.146L560 258.99l-28.001 16.148L504 258.989Z" stroke-width=".21000375"/></g><g fill="none"><path d="M560 258.989v32.293l27.999 16.148v-32.293L560 258.989ZM587.999 307.43 616 291.282V258.99l-28.001 16.148v32.293Z" stroke-width=".21000375"/><path d="m560 258.989 27.999-16.146L616 258.99l-28.001 16.148L560 258.989Z" stroke-width=".21000375"/></g><g fill="none"><path d="M616 258.989v32.293l27.999 16.148v-32.293L616 258.989ZM643.999 307.43 672 291.282V258.99l-28.001 16.148v32.293Z" stroke-width=".21000375"/><path d="m616 258.989 27.999-16.146L672 258.99l-28.001 16.148L616 258.989Z" stroke-width=".21000375"/></g><g fill-rule="evenodd"><path d="M672 258.989v32.293l27.999 16.148v-32.293L672 258.989Z" fill="#5a5a5a38" stroke-width=".21000375"/><path d="M699.999 307.43 728 291.282V258.99l-28.001 16.148v32.293Z" fill="#5a5a5a27" stroke-width=".21000375"/><path d="m672 258.989 27.999-16.146L728 258.99l-28.001 16.148L672 258.989Z" fill="#5a5a5a14" stroke-width=".21000375"/></g><g fill-rule="evenodd"><path d="M728 258.989v32.293l27.999 16.148v-32.293L728 258.989Z" fill="#5a5a5a30" stroke-width=".21000375"/><path d="M755.999 307.43 784 291.282V258.99l-28.001 16.148v32.293Z" fill="#5a5a5a22" stroke-width=".21000375"/><path d="m728 258.989 27.999-16.146L784 258.99l-28.001 16.148L728 258.989Z" fill="#5a5a5a11" stroke-width=".21000375"/></g><g fill="none"><path d="M784 258.989v32.293l27.999 16.148v-32.293L784 258.989ZM811.999 307.43 840 291.282V258.99l-28.001 16.148v32.293Z" stroke-width=".21000375"/><path d="m784 258.989 27.999-16.146L840 258.99l-28.001 16.148L784 258.989Z" stroke-width=".21000375"/></g><g fill="none"><path d="M840 258.989v32.293l27.999 16.148v-32.293L840 258.989ZM867.999 307.43 896 291.282V258.99l-28.001 16.148v32.293Z" stroke-width=".21000375"/><path d="m840 258.989 27.999-16.146L896 258.99l-28.001 16.148L840 258.989Z" stroke-width=".21000375"/></g><g fill="none"><path d="M896 258.989v32.293l27.999 16.148v-32.293L896 258.989ZM923.999 307.43 952 291.282V258.99l-28.001 16.148v32.293Z" stroke-width=".21000375"/><path d="m896 258.989 27.999-16.146L952 258.99l-28.001 16.148L896 258.989Z" stroke-width=".21000375"/></g><g fill="none"><path d="M952 258.989v32.293l27.999 16.148v-32.293L952 258.989ZM979.999 307.43 1008 291.282V258.99l-28.001 16.148v32.293Z" stroke-width=".21000375"/><path d="m952 258.989 27.999-16.146L1008 258.99l-28.001 16.148L952 258.989Z" stroke-width=".21000375"/></g><g fill="none"><path d="M1008 258.989v32.293l27.999 16.148v-32.293L1008 258.989ZM1035.999 307.43 1064 291.282V258.99l-28.001 16.148v32.293Z" stroke-width=".21000375"/><path d="m1008 258.989 27.999-16.146L1064 258.99l-28.001 16.148L1008 258.989Z" stroke-width=".21000375"/></g><g fill="none"><path d="M1064 258.989v32.293l27.999 16.148v-32.293L1064 258.989ZM1091.999 307.43 1120 291.282V258.99l-28.001 16.148v32.293Z" stroke-width=".21000375"/><path d="m1064 258.989 27.999-16.146L1120 258.99l-28.001 16.148L1064 258.989Z" stroke-width=".21000375"/></g><g fill="none"><path d="M28 307.522v32.293l27.999 16.148V323.67L28 307.522ZM55.999 355.963 84 339.815v-32.293L55.999 323.67v32.293Z" stroke-width=".21000375"/><path d="m28 307.522 27.999-16.145L84 307.522 55.999 323.67 28 307.522Z" stroke-width=".21000375"/></g><g fill="none"><path d="M84 307.522v32.293l27.999 16.148V323.67L84 307.522ZM111.999 355.963 140 339.815v-32.293l-28.001 16.148v32.293Z" stroke-width=".21000375"/><path d="m84 307.522 27.999-16.145L140 307.522l-28.001 16.148L84 307.522Z" stroke-width=".21000375"/></g><g fill="none"><path d="M140 307.522v32.293l27.999 16.148V323.67L140 307.522ZM167.999 355.963 196 339.815v-32.293l-28.001 16.148v32.293Z" stroke-width=".21000375"/><path d="m140 307.522 27.999-16.145L196 307.522l-28.001 16.148L140 307.522Z" stroke-width=".21000375"/></g><g fill="none"><path d="M196 307.522v32.293l27.999 16.148V323.67L196 307.522ZM223.999 355.963 252 339.815v-32.293l-28.001 16.148v32.293Z" stroke-width=".21000375"/><path d="m196 307.522 27.999-16.145L252 307.522l-28.001 16.148L196 307.522Z" stroke-width=".21000375"/></g><g fill-rule="evenodd"><path d="M252 307.522v32.293l27.999 16.148V323.67L252 307.522Z" fill="#5a5a5a22" stroke-width=".21000375"/><path d="M279.999 355.963 308 339.815v-32.293l-28.001 16.148v32.293Z" fill="#5a5a5a18" stroke-width=".21000375"/><path d="m252 307.522 27.999-16.145L308 307.522l-28.001 16.148L252 307.522Z" fill="#5a5a5a0c" stroke-width=".21000375"/></g><g fill="none"><path d="M308 307.522v32.293l27.999 16.148V323.67L308 307.522ZM335.999 355.963 364 339.815v-32.293l-28.001 16.148v32.293Z" stroke-width=".21000375"/><path d="m308 307.522 27.999-16.145L364 307.522l-28.001 16.148L308 307.522Z" stroke-width=".21000375"/></g><g fill="none"><path d="M364 307.522v32.293l27.999 16.148V323.67L364 307.522ZM391.999 355.963 420 339.815v-32.293l-28.001 16.148v32.293Z" stroke-width=".21000375"/><path d="m364 307.522 27.999-16.145L420 307.522l-28.001 16.148L364 307.522Z" stroke-width=".21000375"/></g><g fill="none"><path d="M420 307.522v32.293l27.999 16.148V323.67L420 307.522ZM447.999 355.963 476 339.815v-32.293l-28.001 16.148v32.293Z" stroke-width=".21000375"/><path d="m420 307.522 27.999-16.145L476 307.522l-28.001 16.148L420 307.522Z" stroke-width=".21000375"/></g><g fill="none"><path d="M476 307.522v32.293l27.999 16.148V323.67L476 307.522ZM503.999 355.963 532 339.815v-32.293l-28.001 16.148v32.293Z" stroke-width=".21000375"/><path d="m476 307.522 27.999-16.145L532 307.522l-28.001 16.148L476 307.522Z" stroke-width=".21000375"/></g><g fill-rule="evenodd"><path d="M532 307.522v32.293l27.999 16.148V323.67L532 307.522Z" fill="#5a5a5aa8" stroke-width=".21000375"/><path d="M559.999 355.963 588 339.815v-32.293l-28.001 16.148v32.293Z" fill="#5a5a5a75" stroke-width=".21000375"/><path d="m532 307.522 27.999-16.145L588 307.522l-28.001 16.148L532 307.522Z" fill="#5a5a5a3b" stroke-width=".21000375"/></g><g fill="none"><path d="M588 307.522v32.293l27.999 16.148V323.67L588 307.522ZM615.999 355.963 644 339.815v-32.293l-28.001 16.148v32.293Z" stroke-width=".21000375"/><path d="m588 307.522 27.999-16.145L644 307.522l-28.001 16.148L588 307.522Z" stroke-width=".21000375"/></g><g fill-rule="evenodd"><path d="M644 307.522v32.293l27.999 16.148V323.67L644 307.522Z" fill="#5a5a5a36" stroke-width=".21000375"/><path d="M671.999 355.963 700 339.815v-32.293l-28.001 16.148v32.293Z" fill="#5a5a5a26" stroke-width=".21000375"/><path d="m644 307.522 27.999-16.145L700 307.522l-28.001 16.148L644 307.522Z" fill="#5a5a5a13" stroke-width=".21000375"/></g><g fill="none"><path d="M700 307.522v32.293l27.999 16.148V323.67L700 307.522ZM727.999 355.963 756 339.815v-32.293l-28.001 16.148v32.293Z" stroke-width=".21000375"/><path d="m700 307.522 27.999-16.145L756 307.522l-28.001 16.148L700 307.522Z" stroke-width=".21000375"/></g><g fill="none"><path d="M756 307.522v32.293l27.999 16.148V323.67L756 307.522ZM783.999 355.963 812 339.815v-32.293l-28.001 16.148v32.293Z" stroke-width=".21000375"/><path d="m756 307.522 27.999-16.145L812 307.522l-28.001 16.148L756 307.522Z" stroke-width=".21000375"/></g><g fill-rule="evenodd"><path d="M812 307.522v32.293l27.999 16.148V323.67L812 307.522Z" fill="#5a5a5ad9" stroke-width=".21000375"/><path d="M839.999 355.963 868 339.815v-32.293l-28.001 16.148v32.293Z" fill="#5a5a5a98" stroke-width=".21000375"/><path d="m812 307.522 27.999-16.145L868 307.522l-28.001 16.148L812 307.522Z" fill="#5a5a5a4c" stroke-width=".21000375"/></g><g fill-rule="evenodd"><path d="M868 307.522v32.293l27.999 16.148V323.67L868 307.522Z" fill="#5a5a5a98" stroke-width=".21000375"/><path d="M895.999 355.963 924 339.815v-32.293l-28.001 16.148v32.293Z" fill="#5a5a5a6a" stroke-width=".21000375"/><path d="m868 307.522 27.999-16.145L924 307.522l-28.001 16.148L868 307.522Z" fill="#5a5a5a35" stroke-width=".21000375"/></g><g fill="none"><path d="M924 307.522v32.293l27.999 16.148V323.67L924 307.522ZM951.999 355.963 980 339.815v-32.293l-28.001 16.148v32.293Z" stroke-width=".21000375"/><path d="m924 307.522 27.999-16.145L980 307.522l-28.001 16.148L924 307.522Z" stroke-width=".21000375"/></g><g fill="none"><path d="M980 307.522v32.293l27.999 16.148V323.67L980 307.522ZM1007.999 355.963 1036 339.815v-32.293l-28.001 16.148v32.293Z" stroke-width=".21000375"/><path d="m980 307.522 27.999-16.145L1036 307.522l-28.001 16.148L980 307.522Z" stroke-width=".21000375"/></g><g fill="none"><path d="M1036 307.522v32.293l27.999 16.148V323.67L1036 307.522ZM1063.999 355.963 1092 339.815v-32.293l-28.001 16.148v32.293Z" stroke-width=".21000375"/><path d="m1036 307.522 27.999-16.145L1092 307.522l-28.001 16.148L1036 307.522Z" stroke-width=".21000375"/></g><g fill="none"><path d="M1092 307.522v32.293l27.999 16.148V323.67L1092 307.522ZM1119.999 355.963 1148 339.815v-32.293l-28.001 16.148v32.293Z" stroke-width=".21000375"/><path d="m1092 307.522 27.999-16.145L1148 307.522l-28.001 16.148L1092 307.522Z" stroke-width=".21000375"/></g><g fill="none"><path d="M0 356.055v32.294l27.999 16.148v-32.294L0 356.055ZM27.999 404.497 56 388.349v-32.294l-28.001 16.148v32.294Z" stroke-width=".21000375"/><path d="m0 356.055 27.999-16.145L56 356.055l-28.001 16.148L0 356.055Z" stroke-width=".21000375"/></g><g fill-rule="evenodd"><path d="M56 356.055v32.294l27.999 16.148v-32.294L56 356.055Z" fill="#5a5a5aa1" stroke-width=".21000375"/><path d="M83.999 404.497 112 388.349v-32.294l-28.001 16.148v32.294Z" fill="#5a5a5a71" stroke-width=".21000375"/><path d="m56 356.055 27.999-16.145L112 356.055l-28.001 16.148L56 356.055Z" fill="#5a5a5a38" stroke-width=".21000375"/></g><g fill-rule="evenodd"><path d="M112 356.055v32.294l27.999 16.148v-32.294L112 356.055Z" fill="#5a5a5a80" stroke-width=".21000375"/><path d="M139.999 404.497 168 388.349v-32.294l-28.001 16.148v32.294Z" fill="#5a5a5a5a" stroke-width=".21000375"/><path d="m112 356.055 27.999-16.145L168 356.055l-28.001 16.148L112 356.055Z" fill="#5a5a5a2d" stroke-width=".21000375"/></g><g fill="none"><path d="M168 356.055v32.294l27.999 16.148v-32.294L168 356.055ZM195.999 404.497 224 388.349v-32.294l-28.001 16.148v32.294Z" stroke-width=".21000375"/><path d="m168 356.055 27.999-16.145L224 356.055l-28.001 16.148L168 356.055Z" stroke-width=".21000375"/></g><g fill="none"><path d="M224 356.055v32.294l27.999 16.148v-32.294L224 356.055ZM251.999 404.497 280 388.349v-32.294l-28.001 16.148v32.294Z" stroke-width=".21000375"/><path d="m224 356.055 27.999-16.145L280 356.055l-28.001 16.148L224 356.055Z" stroke-width=".21000375"/></g><g fill="none"><path d="M280 356.055v32.294l27.999 16.148v-32.294L280 356.055ZM307.999 404.497 336 388.349v-32.294l-28.001 16.148v32.294Z" stroke-width=".21000375"/><path d="m280 356.055 27.999-16.145L336 356.055l-28.001 16.148L280 356.055Z" stroke-width=".21000375"/></g><g fill="none"><path d="M336 356.055v32.294l27.999 16.148v-32.294L336 356.055ZM363.999 404.497 392 388.349v-32.294l-28.001 16.148v32.294Z" stroke-width=".21000375"/><path d="m336 356.055 27.999-16.145L392 356.055l-28.001 16.148L336 356.055Z" stroke-width=".21000375"/></g><g fill="none"><path d="M392 356.055v32.294l27.999 16.148v-32.294L392 356.055ZM419.999 404.497 448 388.349v-32.294l-28.001 16.148v32.294Z" stroke-width=".21000375"/><path d="m392 356.055 27.999-16.145L448 356.055l-28.001 16.148L392 356.055Z" stroke-width=".21000375"/></g><g fill="none"><path d="M448 356.055v32.294l27.999 16.148v-32.294L448 356.055ZM475.999 404.497 504 388.349v-32.294l-28.001 16.148v32.294Z" stroke-width=".21000375"/><path d="m448 356.055 27.999-16.145L504 356.055l-28.001 16.148L448 356.055Z" stroke-width=".21000375"/></g><g fill-rule="evenodd"><path d="M504 356.055v32.294l27.999 16.148v-32.294L504 356.055Z" fill="#5a5a5a3d" stroke-width=".21000375"/><path d="M531.999 404.497 560 388.349v-32.294l-28.001 16.148v32.294Z" fill="#5a5a5a2b" stroke-width=".21000375"/><path d="m504 356.055 27.999-16.145L560 356.055l-28.001 16.148L504 356.055Z" fill="#5a5a5a15" stroke-width=".21000375"/></g><g fill="none"><path d="M560 356.055v32.294l27.999 16.148v-32.294L560 356.055ZM587.999 404.497 616 388.349v-32.294l-28.001 16.148v32.294Z" stroke-width=".21000375"/><path d="m560 356.055 27.999-16.145L616 356.055l-28.001 16.148L560 356.055Z" stroke-width=".21000375"/></g><g fill="none"><path d="M616 356.055v32.294l27.999 16.148v-32.294L616 356.055ZM643.999 404.497 672 388.349v-32.294l-28.001 16.148v32.294Z" stroke-width=".21000375"/><path d="m616 356.055 27.999-16.145L672 356.055l-28.001 16.148L616 356.055Z" stroke-width=".21000375"/></g><g fill="none"><path d="M672 356.055v32.294l27.999 16.148v-32.294L672 356.055ZM699.999 404.497 728 388.349v-32.294l-28.001 16.148v32.294Z" stroke-width=".21000375"/><path d="m672 356.055 27.999-16.145L728 356.055l-28.001 16.148L672 356.055Z" stroke-width=".21000375"/></g><g fill-rule="evenodd"><path d="M728 356.055v32.294l27.999 16.148v-32.294L728 356.055Z" fill="#5a5a5a8e" stroke-width=".21000375"/><path d="M755.999 404.497 784 388.349v-32.294l-28.001 16.148v32.294Z" fill="#5a5a5a64" stroke-width=".21000375"/><path d="m728 356.055 27.999-16.145L784 356.055l-28.001 16.148L728 356.055Z" fill="#5a5a5a32" stroke-width=".21000375"/></g><g fill="none"><path d="M784 356.055v32.294l27.999 16.148v-32.294L784 356.055ZM811.999 404.497 840 388.349v-32.294l-28.001 16.148v32.294Z" stroke-width=".21000375"/><path d="m784 356.055 27.999-16.145L840 356.055l-28.001 16.148L784 356.055Z" stroke-width=".21000375"/></g><g fill="none"><path d="M840 356.055v32.294l27.999 16.148v-32.294L840 356.055ZM867.999 404.497 896 388.349v-32.294l-28.001 16.148v32.294Z" stroke-width=".21000375"/><path d="m840 356.055 27.999-16.145L896 356.055l-28.001 16.148L840 356.055Z" stroke-width=".21000375"/></g><g fill-rule="evenodd"><path d="M896 356.055v32.294l27.999 16.148v-32.294L896 356.055Z" fill="#5a5a5af1" stroke-width=".21000375"/><path d="M923.999 404.497 952 388.349v-32.294l-28.001 16.148v32.294Z" fill="#5a5a5aa9" stroke-width=".21000375"/><path d="m896 356.055 27.999-16.145L952 356.055l-28.001 16.148L896 356.055Z" fill="#5a5a5a54" stroke-width=".21000375"/></g><g fill="none"><path d="M952 356.055v32.294l27.999 16.148v-32.294L952 356.055ZM979.999 404.497 1008 388.349v-32.294l-28.001 16.148v32.294Z" stroke-width=".21000375"/><path d="m952 356.055 27.999-16.145L1008 356.055l-28.001 16.148L952 356.055Z" stroke-width=".21000375"/></g><g fill="none"><path d="M1008 356.055v32.294l27.999 16.148v-32.294L1008 356.055ZM1035.999 404.497 1064 388.349v-32.294l-28.001 16.148v32.294Z" stroke-width=".21000375"/><path d="m1008 356.055 27.999-16.145L1064 356.055l-28.001 16.148L1008 356.055Z" stroke-width=".21000375"/></g><g fill="none"><path d="M1064 356.055v32.294l27.999 16.148v-32.294L1064 356.055ZM1091.999 404.497 1120 388.349v-32.294l-28.001 16.148v32.294Z" stroke-width=".21000375"/><path d="m1064 356.055 27.999-16.145L1120 356.055l-28.001 16.148L1064 356.055Z" stroke-width=".21000375"/></g><g fill="none"><path d="M28 404.589v32.293l27.999 16.148v-32.293L28 404.589ZM55.999 453.03 84 436.882V404.59l-28.001 16.148v32.293Z" stroke-width=".21000375"/><path d="m28 404.589 27.999-16.146L84 404.59l-28.001 16.148L28 404.589Z" stroke-width=".21000375"/></g><g fill="none"><path d="M84 404.589v32.293l27.999 16.148v-32.293L84 404.589ZM111.999 453.03 140 436.882V404.59l-28.001 16.148v32.293Z" stroke-width=".21000375"/><path d="m84 404.589 27.999-16.146L140 404.59l-28.001 16.148L84 404.589Z" stroke-width=".21000375"/></g><g fill-rule="evenodd"><path d="M140 404.589v32.293l27.999 16.148v-32.293L140 404.589Z" fill="#5a5a5af8" stroke-width=".21000375"/><path d="M167.999 453.03 196 436.882V404.59l-28.001 16.148v32.293Z" fill="#5a5a5aae" stroke-width=".21000375"/><path d="m140 404.589 27.999-16.146L196 404.59l-28.001 16.148L140 404.589Z" fill="#5a5a5a57" stroke-width=".21000375"/></g><g fill="none"><path d="M196 404.589v32.293l27.999 16.148v-32.293L196 404.589ZM223.999 453.03 252 436.882V404.59l-28.001 16.148v32.293Z" stroke-width=".21000375"/><path d="m196 404.589 27.999-16.146L252 404.59l-28.001 16.148L196 404.589Z" stroke-width=".21000375"/></g><g fill="none"><path d="M252 404.589v32.293l27.999 16.148v-32.293L252 404.589ZM279.999 453.03 308 436.882V404.59l-28.001 16.148v32.293Z" stroke-width=".21000375"/><path d="m252 404.589 27.999-16.146L308 404.59l-28.001 16.148L252 404.589Z" stroke-width=".21000375"/></g><g fill="none"><path d="M308 404.589v32.293l27.999 16.148v-32.293L308 404.589ZM335.999 453.03 364 436.882V404.59l-28.001 16.148v32.293Z" stroke-width=".21000375"/><path d="m308 404.589 27.999-16.146L364 404.59l-28.001 16.148L308 404.589Z" stroke-width=".21000375"/></g><g fill="none"><path d="M364 404.589v32.293l27.999 16.148v-32.293L364 404.589ZM391.999 453.03 420 436.882V404.59l-28.001 16.148v32.293Z" stroke-width=".21000375"/><path d="m364 404.589 27.999-16.146L420 404.59l-28.001 16.148L364 404.589Z" stroke-width=".21000375"/></g><g fill-rule="evenodd"><path d="M420 404.589v32.293l27.999 16.148v-32.293L420 404.589Z" fill="#5a5a5ab4" stroke-width=".21000375"/><path d="M447.999 453.03 476 436.882V404.59l-28.001 16.148v32.293Z" fill="#5a5a5a7e" stroke-width=".21000375"/><path d="m420 404.589 27.999-16.146L476 404.59l-28.001 16.148L420 404.589Z" fill="#5a5a5a3f" stroke-width=".21000375"/></g><g fill="none"><path d="M476 404.589v32.293l27.999 16.148v-32.293L476 404.589ZM503.999 453.03 532 436.882V404.59l-28.001 16.148v32.293Z" stroke-width=".21000375"/><path d="m476 404.589 27.999-16.146L532 404.59l-28.001 16.148L476 404.589Z" stroke-width=".21000375"/></g><g fill="none"><path d="M532 404.589v32.293l27.999 16.148v-32.293L532 404.589ZM559.999 453.03 588 436.882V404.59l-28.001 16.148v32.293Z" stroke-width=".21000375"/><path d="m532 404.589 27.999-16.146L588 404.59l-28.001 16.148L532 404.589Z" stroke-width=".21000375"/></g><g fill="none"><path d="M588 404.589v32.293l27.999 16.148v-32.293L588 404.589ZM615.999 453.03 644 436.882V404.59l-28.001 16.148v32.293Z" stroke-width=".21000375"/><path d="m588 404.589 27.999-16.146L644 404.59l-28.001 16.148L588 404.589Z" stroke-width=".21000375"/></g><g fill="none"><path d="M644 404.589v32.293l27.999 16.148v-32.293L644 404.589ZM671.999 453.03 700 436.882V404.59l-28.001 16.148v32.293Z" stroke-width=".21000375"/><path d="m644 404.589 27.999-16.146L700 404.59l-28.001 16.148L644 404.589Z" stroke-width=".21000375"/></g><g fill="none"><path d="M700 404.589v32.293l27.999 16.148v-32.293L700 404.589ZM727.999 453.03 756 436.882V404.59l-28.001 16.148v32.293Z" stroke-width=".21000375"/><path d="m700 404.589 27.999-16.146L756 404.59l-28.001 16.148L700 404.589Z" stroke-width=".21000375"/></g><g fill="none"><path d="M756 404.589v32.293l27.999 16.148v-32.293L756 404.589ZM783.999 453.03 812 436.882V404.59l-28.001 16.148v32.293Z" stroke-width=".21000375"/><path d="m756 404.589 27.999-16.146L812 404.59l-28.001 16.148L756 404.589Z" stroke-width=".21000375"/></g><g fill="none"><path d="M812 404.589v32.293l27.999 16.148v-32.293L812 404.589ZM839.999 453.03 868 436.882V404.59l-28.001 16.148v32.293Z" stroke-width=".21000375"/><path d="m812 404.589 27.999-16.146L868 404.59l-28.001 16.148L812 404.589Z" stroke-width=".21000375"/></g><g fill="none"><path d="M868 404.589v32.293l27.999 16.148v-32.293L868 404.589ZM895.999 453.03 924 436.882V404.59l-28.001 16.148v32.293Z" stroke-width=".21000375"/><path d="m868 404.589 27.999-16.146L924 404.59l-28.001 16.148L868 404.589Z" stroke-width=".21000375"/></g><g fill-rule="evenodd"><path d="M924 404.589v32.293l27.999 16.148v-32.293L924 404.589Z" fill="#5a5a5ad1" stroke-width=".21000375"/><path d="M951.999 453.03 980 436.882V404.59l-28.001 16.148v32.293Z" fill="#5a5a5a92" stroke-width=".21000375"/><path d="m924 404.589 27.999-16.146L980 404.59l-28.001 16.148L924 404.589Z" fill="#5a5a5a49" stroke-width=".21000375"/></g><g fill="none"><path d="M980 404.589v32.293l27.999 16.148v-32.293L980 404.589ZM1007.999 453.03 1036 436.882V404.59l-28.001 16.148v32.293Z" stroke-width=".21000375"/><path d="m980 404.589 27.999-16.146L1036 404.59l-28.001 16.148L980 404.589Z" stroke-width=".21000375"/></g><g fill="none"><path d="M1036 404.589v32.293l27.999 16.148v-32.293L1036 404.589ZM1063.999 453.03 1092 436.882V404.59l-28.001 16.148v32.293Z" stroke-width=".21000375"/><path d="m1036 404.589 27.999-16.146L1092 404.59l-28.001 16.148L1036 404.589Z" stroke-width=".21000375"/></g><g fill="none"><path d="M1092 404.589v32.293l27.999 16.148v-32.293L1092 404.589ZM1119.999 453.03 1148 436.882V404.59l-28.001 16.148v32.293Z" stroke-width=".21000375"/><path d="m1092 404.589 27.999-16.146L1148 404.59l-28.001 16.148L1092 404.589Z" stroke-width=".21000375"/></g><g fill="none"><path d="M0 453.122v32.293l27.999 16.148V469.27L0 453.122ZM27.999 501.563 56 485.415v-32.293L27.999 469.27v32.293Z" stroke-width=".21000375"/><path d="m0 453.122 27.999-16.145L56 453.122 27.999 469.27 0 453.122Z" stroke-width=".21000375"/></g><g fill="none"><path d="M56 453.122v32.293l27.999 16.148V469.27L56 453.122ZM83.999 501.563 112 485.415v-32.293L83.999 469.27v32.293Z" stroke-width=".21000375"/><path d="m56 453.122 27.999-16.145L112 453.122 83.999 469.27 56 453.122Z" stroke-width=".21000375"/></g><g fill="none"><path d="M112 453.122v32.293l27.999 16.148V469.27L112 453.122ZM139.999 501.563 168 485.415v-32.293l-28.001 16.148v32.293Z" stroke-width=".21000375"/><path d="m112 453.122 27.999-16.145L168 453.122l-28.001 16.148L112 453.122Z" stroke-width=".21000375"/></g><g fill="none"><path d="M168 453.122v32.293l27.999 16.148V469.27L168 453.122ZM195.999 501.563 224 485.415v-32.293l-28.001 16.148v32.293Z" stroke-width=".21000375"/><path d="m168 453.122 27.999-16.145L224 453.122l-28.001 16.148L168 453.122Z" stroke-width=".21000375"/></g><g fill-rule="evenodd"><path d="M224 453.122v32.293l27.999 16.148V469.27L224 453.122Z" fill="#5a5a5aa9" stroke-width=".21000375"/><path d="M251.999 501.563 280 485.415v-32.293l-28.001 16.148v32.293Z" fill="#5a5a5a76" stroke-width=".21000375"/><path d="m224 453.122 27.999-16.145L280 453.122l-28.001 16.148L224 453.122Z" fill="#5a5a5a3b" stroke-width=".21000375"/></g><g fill="none"><path d="M280 453.122v32.293l27.999 16.148V469.27L280 453.122ZM307.999 501.563 336 485.415v-32.293l-28.001 16.148v32.293Z" stroke-width=".21000375"/><path d="m280 453.122 27.999-16.145L336 453.122l-28.001 16.148L280 453.122Z" stroke-width=".21000375"/></g><g fill="none"><path d="M336 453.122v32.293l27.999 16.148V469.27L336 453.122ZM363.999 501.563 392 485.415v-32.293l-28.001 16.148v32.293Z" stroke-width=".21000375"/><path d="m336 453.122 27.999-16.145L392 453.122l-28.001 16.148L336 453.122Z" stroke-width=".21000375"/></g><g fill-rule="evenodd"><path d="M392 453.122v32.293l27.999 16.148V469.27L392 453.122Z" fill="#5a5a5abf" stroke-width=".21000375"/><path d="M419.999 501.563 448 485.415v-32.293l-28.001 16.148v32.293Z" fill="#5a5a5a86" stroke-width=".21000375"/><path d="m392 453.122 27.999-16.145L448 453.122l-28.001 16.148L392 453.122Z" fill="#5a5a5a43" stroke-width=".21000375"/></g><g fill="none"><path d="M448 453.122v32.293l27.999 16.148V469.27L448 453.122ZM475.999 501.563 504 485.415v-32.293l-28.001 16.148v32.293Z" stroke-width=".21000375"/><path d="m448 453.122 27.999-16.145L504 453.122l-28.001 16.148L448 453.122Z" stroke-width=".21000375"/></g><g fill-rule="evenodd"><path d="M504 453.122v32.293l27.999 16.148V469.27L504 453.122Z" fill="#5a5a5a3f" stroke-width=".21000375"/><path d="M531.999 501.563 560 485.415v-32.293l-28.001 16.148v32.293Z" fill="#5a5a5a2c" stroke-width=".21000375"/><path d="m504 453.122 27.999-16.145L560 453.122l-28.001 16.148L504 453.122Z" fill="#5a5a5a16" stroke-width=".21000375"/></g><g fill="none"><path d="M560 453.122v32.293l27.999 16.148V469.27L560 453.122ZM587.999 501.563 616 485.415v-32.293l-28.001 16.148v32.293Z" stroke-width=".21000375"/><path d="m560 453.122 27.999-16.145L616 453.122l-28.001 16.148L560 453.122Z" stroke-width=".21000375"/></g><g fill-rule="evenodd"><path d="M616 453.122v32.293l27.999 16.148V469.27L616 453.122Z" fill="#5a5a5a06" stroke-width=".21000375"/><path d="M643.999 501.563 672 485.415v-32.293l-28.001 16.148v32.293Z" fill="#5a5a5a04" stroke-width=".21000375"/><path d="m616 453.122 27.999-16.145L672 453.122l-28.001 16.148L616 453.122Z" fill="#5a5a5a02" stroke-width=".21000375"/></g><g fill-rule="evenodd"><path d="M672 453.122v32.293l27.999 16.148V469.27L672 453.122Z" fill="#5a5a5a7c" stroke-width=".21000375"/><path d="M699.999 501.563 728 485.415v-32.293l-28.001 16.148v32.293Z" fill="#5a5a5a57" stroke-width=".21000375"/><path d="m672 453.122 27.999-16.145L728 453.122l-28.001 16.148L672 453.122Z" fill="#5a5a5a2b" stroke-width=".21000375"/></g><g fill-rule="evenodd"><path d="M728 453.122v32.293l27.999 16.148V469.27L728 453.122Z" fill="#5a5a5a63" stroke-width=".21000375"/><path d="M755.999 501.563 784 485.415v-32.293l-28.001 16.148v32.293Z" fill="#5a5a5a45" stroke-width=".21000375"/><path d="m728 453.122 27.999-16.145L784 453.122l-28.001 16.148L728 453.122Z" fill="#5a5a5a22" stroke-width=".21000375"/></g><g fill-rule="evenodd"><path d="M784 453.122v32.293l27.999 16.148V469.27L784 453.122Z" fill="#5a5a5ac8" stroke-width=".21000375"/><path d="M811.999 501.563 840 485.415v-32.293l-28.001 16.148v32.293Z" fill="#5a5a5a8c" stroke-width=".21000375"/><path d="m784 453.122 27.999-16.145L840 453.122l-28.001 16.148L784 453.122Z" fill="#5a5a5a46" stroke-width=".21000375"/></g><g fill-rule="evenodd"><path d="M840 453.122v32.293l27.999 16.148V469.27L840 453.122Z" fill="#5a5a5a11" stroke-width=".21000375"/><path d="M867.999 501.563 896 485.415v-32.293l-28.001 16.148v32.293Z" fill="#5a5a5a0c" stroke-width=".21000375"/><path d="m840 453.122 27.999-16.145L896 453.122l-28.001 16.148L840 453.122Z" fill="#5a5a5a06" stroke-width=".21000375"/></g><g fill="none"><path d="M896 453.122v32.293l27.999 16.148V469.27L896 453.122ZM923.999 501.563 952 485.415v-32.293l-28.001 16.148v32.293Z" stroke-width=".21000375"/><path d="m896 453.122 27.999-16.145L952 453.122l-28.001 16.148L896 453.122Z" stroke-width=".21000375"/></g><g fill="none"><path d="M952 453.122v32.293l27.999 16.148V469.27L952 453.122ZM979.999 501.563 1008 485.415v-32.293l-28.001 16.148v32.293Z" stroke-width=".21000375"/><path d="m952 453.122 27.999-16.145L1008 453.122l-28.001 16.148L952 453.122Z" stroke-width=".21000375"/></g><g fill="none"><path d="M1008 453.122v32.293l27.999 16.148V469.27L1008 453.122ZM1035.999 501.563 1064 485.415v-32.293l-28.001 16.148v32.293Z" stroke-width=".21000375"/><path d="m1008 453.122 27.999-16.145L1064 453.122l-28.001 16.148L1008 453.122Z" stroke-width=".21000375"/></g><g fill-rule="evenodd"><path d="M1064 453.122v32.293l27.999 16.148V469.27L1064 453.122Z" fill="#5a5a5ada" stroke-width=".21000375"/><path d="M1091.999 501.563 1120 485.415v-32.293l-28.001 16.148v32.293Z" fill="#5a5a5a98" stroke-width=".21000375"/><path d="m1064 453.122 27.999-16.145L1120 453.122l-28.001 16.148L1064 453.122Z" fill="#5a5a5a4c" stroke-width=".21000375"/></g><g fill="none"><path d="M28 501.655v32.294l27.999 16.148v-32.294L28 501.655ZM55.999 550.097 84 533.949v-32.294l-28.001 16.148v32.294Z" stroke-width=".21000375"/><path d="m28 501.655 27.999-16.145L84 501.655l-28.001 16.148L28 501.655Z" stroke-width=".21000375"/></g><g fill="none"><path d="M84 501.655v32.294l27.999 16.148v-32.294L84 501.655ZM111.999 550.097 140 533.949v-32.294l-28.001 16.148v32.294Z" stroke-width=".21000375"/><path d="m84 501.655 27.999-16.145L140 501.655l-28.001 16.148L84 501.655Z" stroke-width=".21000375"/></g><g fill-rule="evenodd"><path d="M140 501.655v32.294l27.999 16.148v-32.294L140 501.655Z" fill="#5a5a5a35" stroke-width=".21000375"/><path d="M167.999 550.097 196 533.949v-32.294l-28.001 16.148v32.294Z" fill="#5a5a5a25" stroke-width=".21000375"/><path d="m140 501.655 27.999-16.145L196 501.655l-28.001 16.148L140 501.655Z" fill="#5a5a5a13" stroke-width=".21000375"/></g><g fill-rule="evenodd"><path d="M196 501.655v32.294l27.999 16.148v-32.294L196 501.655Z" fill="#5a5a5ae9" stroke-width=".21000375"/><path d="M223.999 550.097 252 533.949v-32.294l-28.001 16.148v32.294Z" fill="#5a5a5aa3" stroke-width=".21000375"/><path d="m196 501.655 27.999-16.145L252 501.655l-28.001 16.148L196 501.655Z" fill="#5a5a5a52" stroke-width=".21000375"/></g><g fill="none"><path d="M252 501.655v32.294l27.999 16.148v-32.294L252 501.655ZM279.999 550.097 308 533.949v-32.294l-28.001 16.148v32.294Z" stroke-width=".21000375"/><path d="m252 501.655 27.999-16.145L308 501.655l-28.001 16.148L252 501.655Z" stroke-width=".21000375"/></g><g fill="none"><path d="M308 501.655v32.294l27.999 16.148v-32.294L308 501.655ZM335.999 550.097 364 533.949v-32.294l-28.001 16.148v32.294Z" stroke-width=".21000375"/><path d="m308 501.655 27.999-16.145L364 501.655l-28.001 16.148L308 501.655Z" stroke-width=".21000375"/></g><g fill="none"><path d="M364 501.655v32.294l27.999 16.148v-32.294L364 501.655ZM391.999 550.097 420 533.949v-32.294l-28.001 16.148v32.294Z" stroke-width=".21000375"/><path d="m364 501.655 27.999-16.145L420 501.655l-28.001 16.148L364 501.655Z" stroke-width=".21000375"/></g><g fill="none"><path d="M420 501.655v32.294l27.999 16.148v-32.294L420 501.655ZM447.999 550.097 476 533.949v-32.294l-28.001 16.148v32.294Z" stroke-width=".21000375"/><path d="m420 501.655 27.999-16.145L476 501.655l-28.001 16.148L420 501.655Z" stroke-width=".21000375"/></g><g fill="none"><path d="M476 501.655v32.294l27.999 16.148v-32.294L476 501.655ZM503.999 550.097 532 533.949v-32.294l-28.001 16.148v32.294Z" stroke-width=".21000375"/><path d="m476 501.655 27.999-16.145L532 501.655l-28.001 16.148L476 501.655Z" stroke-width=".21000375"/></g><g fill="none"><path d="M532 501.655v32.294l27.999 16.148v-32.294L532 501.655ZM559.999 550.097 588 533.949v-32.294l-28.001 16.148v32.294Z" stroke-width=".21000375"/><path d="m532 501.655 27.999-16.145L588 501.655l-28.001 16.148L532 501.655Z" stroke-width=".21000375"/></g><g fill="none"><path d="M588 501.655v32.294l27.999 16.148v-32.294L588 501.655ZM615.999 550.097 644 533.949v-32.294l-28.001 16.148v32.294Z" stroke-width=".21000375"/><path d="m588 501.655 27.999-16.145L644 501.655l-28.001 16.148L588 501.655Z" stroke-width=".21000375"/></g><g fill="none"><path d="M644 501.655v32.294l27.999 16.148v-32.294L644 501.655ZM671.999 550.097 700 533.949v-32.294l-28.001 16.148v32.294Z" stroke-width=".21000375"/><path d="m644 501.655 27.999-16.145L700 501.655l-28.001 16.148L644 501.655Z" stroke-width=".21000375"/></g><g fill-rule="evenodd"><path d="M700 501.655v32.294l27.999 16.148v-32.294L700 501.655Z" fill="#5a5a5aa9" stroke-width=".21000375"/><path d="M727.999 550.097 756 533.949v-32.294l-28.001 16.148v32.294Z" fill="#5a5a5a76" stroke-width=".21000375"/><path d="m700 501.655 27.999-16.145L756 501.655l-28.001 16.148L700 501.655Z" fill="#5a5a5a3b" stroke-width=".21000375"/></g><g fill-rule="evenodd"><path d="M756 501.655v32.294l27.999 16.148v-32.294L756 501.655Z" fill="#5a5a5a38" stroke-width=".21000375"/><path d="M783.999 550.097 812 533.949v-32.294l-28.001 16.148v32.294Z" fill="#5a5a5a27" stroke-width=".21000375"/><path d="m756 501.655 27.999-16.145L812 501.655l-28.001 16.148L756 501.655Z" fill="#5a5a5a14" stroke-width=".21000375"/></g><g fill="none"><path d="M812 501.655v32.294l27.999 16.148v-32.294L812 501.655ZM839.999 550.097 868 533.949v-32.294l-28.001 16.148v32.294Z" stroke-width=".21000375"/><path d="m812 501.655 27.999-16.145L868 501.655l-28.001 16.148L812 501.655Z" stroke-width=".21000375"/></g><g fill-rule="evenodd"><path d="M868 501.655v32.294l27.999 16.148v-32.294L868 501.655Z" fill="#5a5a5a98" stroke-width=".21000375"/><path d="M895.999 550.097 924 533.949v-32.294l-28.001 16.148v32.294Z" fill="#5a5a5a6b" stroke-width=".21000375"/><path d="m868 501.655 27.999-16.145L924 501.655l-28.001 16.148L868 501.655Z" fill="#5a5a5a35" stroke-width=".21000375"/></g><g fill-rule="evenodd"><path d="M924 501.655v32.294l27.999 16.148v-32.294L924 501.655Z" fill="#5a5a5a0d" stroke-width=".21000375"/><path d="M951.999 550.097 980 533.949v-32.294l-28.001 16.148v32.294Z" fill="#5a5a5a09" stroke-width=".21000375"/><path d="m924 501.655 27.999-16.145L980 501.655l-28.001 16.148L924 501.655Z" fill="#5a5a5a05" stroke-width=".21000375"/></g><g fill-rule="evenodd"><path d="M980 501.655v32.294l27.999 16.148v-32.294L980 501.655Z" fill="#5a5a5a15" stroke-width=".21000375"/><path d="M1007.999 550.097 1036 533.949v-32.294l-28.001 16.148v32.294Z" fill="#5a5a5a0f" stroke-width=".21000375"/><path d="m980 501.655 27.999-16.145L1036 501.655l-28.001 16.148L980 501.655Z" fill="#5a5a5a07" stroke-width=".21000375"/></g><g fill-rule="evenodd" fill="#5a5a5a01"><path d="M1036 501.655v32.294l27.999 16.148v-32.294L1036 501.655ZM1063.999 550.097 1092 533.949v-32.294l-28.001 16.148v32.294Z" stroke-width=".21000375"/><path d="m1036 501.655 27.999-16.145L1092 501.655l-28.001 16.148L1036 501.655Z" stroke-width=".21000375"/></g><g fill-rule="evenodd"><path d="M1092 501.655v32.294l27.999 16.148v-32.294L1092 501.655Z" fill="#5a5a5afc" stroke-width=".21000375"/><path d="M1119.999 550.097 1148 533.949v-32.294l-28.001 16.148v32.294Z" fill="#5a5a5ab0" stroke-width=".21000375"/><path d="m1092 501.655 27.999-16.145L1148 501.655l-28.001 16.148L1092 501.655Z" fill="#5a5a5a58" stroke-width=".21000375"/></g><g fill="none"><path d="M0 550.189v32.293l27.999 16.148v-32.293L0 550.189ZM27.999 598.63 56 582.482V550.19l-28.001 16.148v32.293Z" stroke-width=".21000375"/><path d="m0 550.189 27.999-16.146L56 550.19l-28.001 16.148L0 550.189Z" stroke-width=".21000375"/></g><g fill="none"><path d="M56 550.189v32.293l27.999 16.148v-32.293L56 550.189ZM83.999 598.63 112 582.482V550.19l-28.001 16.148v32.293Z" stroke-width=".21000375"/><path d="m56 550.189 27.999-16.146L112 550.19l-28.001 16.148L56 550.189Z" stroke-width=".21000375"/></g><g fill="none"><path d="M112 550.189v32.293l27.999 16.148v-32.293L112 550.189ZM139.999 598.63 168 582.482V550.19l-28.001 16.148v32.293Z" stroke-width=".21000375"/><path d="m112 550.189 27.999-16.146L168 550.19l-28.001 16.148L112 550.189Z" stroke-width=".21000375"/></g><g fill-rule="evenodd"><path d="M168 550.189v32.293l27.999 16.148v-32.293L168 550.189Z" fill="#5a5a5a6c" stroke-width=".21000375"/><path d="M195.999 598.63 224 582.482V550.19l-28.001 16.148v32.293Z" fill="#5a5a5a4b" stroke-width=".21000375"/><path d="m168 550.189 27.999-16.146L224 550.19l-28.001 16.148L168 550.189Z" fill="#5a5a5a26" stroke-width=".21000375"/></g><g fill="none"><path d="M224 550.189v32.293l27.999 16.148v-32.293L224 550.189ZM251.999 598.63 280 582.482V550.19l-28.001 16.148v32.293Z" stroke-width=".21000375"/><path d="m224 550.189 27.999-16.146L280 550.19l-28.001 16.148L224 550.189Z" stroke-width=".21000375"/></g><g fill="none"><path d="M280 550.189v32.293l27.999 16.148v-32.293L280 550.189ZM307.999 598.63 336 582.482V550.19l-28.001 16.148v32.293Z" stroke-width=".21000375"/><path d="m280 550.189 27.999-16.146L336 550.19l-28.001 16.148L280 550.189Z" stroke-width=".21000375"/></g><g fill-rule="evenodd"><path d="M336 550.189v32.293l27.999 16.148v-32.293L336 550.189Z" fill="#5a5a5a30" stroke-width=".21000375"/><path d="M363.999 598.63 392 582.482V550.19l-28.001 16.148v32.293Z" fill="#5a5a5a22" stroke-width=".21000375"/><path d="m336 550.189 27.999-16.146L392 550.19l-28.001 16.148L336 550.189Z" fill="#5a5a5a11" stroke-width=".21000375"/></g><g fill="none"><path d="M392 550.189v32.293l27.999 16.148v-32.293L392 550.189ZM419.999 598.63 448 582.482V550.19l-28.001 16.148v32.293Z" stroke-width=".21000375"/><path d="m392 550.189 27.999-16.146L448 550.19l-28.001 16.148L392 550.189Z" stroke-width=".21000375"/></g><g fill="none"><path d="M448 550.189v32.293l27.999 16.148v-32.293L448 550.189ZM475.999 598.63 504 582.482V550.19l-28.001 16.148v32.293Z" stroke-width=".21000375"/><path d="m448 550.189 27.999-16.146L504 550.19l-28.001 16.148L448 550.189Z" stroke-width=".21000375"/></g><g fill-rule="evenodd"><path d="M504 550.189v32.293l27.999 16.148v-32.293L504 550.189Z" fill="#5a5a5a32" stroke-width=".21000375"/><path d="M531.999 598.63 560 582.482V550.19l-28.001 16.148v32.293Z" fill="#5a5a5a23" stroke-width=".21000375"/><path d="m504 550.189 27.999-16.146L560 550.19l-28.001 16.148L504 550.189Z" fill="#5a5a5a12" stroke-width=".21000375"/></g><g fill="none"><path d="M560 550.189v32.293l27.999 16.148v-32.293L560 550.189ZM587.999 598.63 616 582.482V550.19l-28.001 16.148v32.293Z" stroke-width=".21000375"/><path d="m560 550.189 27.999-16.146L616 550.19l-28.001 16.148L560 550.189Z" stroke-width=".21000375"/></g><g fill="none"><path d="M616 550.189v32.293l27.999 16.148v-32.293L616 550.189ZM643.999 598.63 672 582.482V550.19l-28.001 16.148v32.293Z" stroke-width=".21000375"/><path d="m616 550.189 27.999-16.146L672 550.19l-28.001 16.148L616 550.189Z" stroke-width=".21000375"/></g><g fill="none"><path d="M672 550.189v32.293l27.999 16.148v-32.293L672 550.189ZM699.999 598.63 728 582.482V550.19l-28.001 16.148v32.293Z" stroke-width=".21000375"/><path d="m672 550.189 27.999-16.146L728 550.19l-28.001 16.148L672 550.189Z" stroke-width=".21000375"/></g><g fill="none"><path d="M728 550.189v32.293l27.999 16.148v-32.293L728 550.189ZM755.999 598.63 784 582.482V550.19l-28.001 16.148v32.293Z" stroke-width=".21000375"/><path d="m728 550.189 27.999-16.146L784 550.19l-28.001 16.148L728 550.189Z" stroke-width=".21000375"/></g><g fill-rule="evenodd"><path d="M784 550.189v32.293l27.999 16.148v-32.293L784 550.189Z" fill="#5a5a5a5f" stroke-width=".21000375"/><path d="M811.999 598.63 840 582.482V550.19l-28.001 16.148v32.293Z" fill="#5a5a5a42" stroke-width=".21000375"/><path d="m784 550.189 27.999-16.146L840 550.19l-28.001 16.148L784 550.189Z" fill="#5a5a5a21" stroke-width=".21000375"/></g><g fill="none"><path d="M840 550.189v32.293l27.999 16.148v-32.293L840 550.189ZM867.999 598.63 896 582.482V550.19l-28.001 16.148v32.293Z" stroke-width=".21000375"/><path d="m840 550.189 27.999-16.146L896 550.19l-28.001 16.148L840 550.189Z" stroke-width=".21000375"/></g><g fill="none"><path d="M896 550.189v32.293l27.999 16.148v-32.293L896 550.189ZM923.999 598.63 952 582.482V550.19l-28.001 16.148v32.293Z" stroke-width=".21000375"/><path d="m896 550.189 27.999-16.146L952 550.19l-28.001 16.148L896 550.189Z" stroke-width=".21000375"/></g><g fill="none"><path d="M952 550.189v32.293l27.999 16.148v-32.293L952 550.189ZM979.999 598.63 1008 582.482V550.19l-28.001 16.148v32.293Z" stroke-width=".21000375"/><path d="m952 550.189 27.999-16.146L1008 550.19l-28.001 16.148L952 550.189Z" stroke-width=".21000375"/></g><g fill-rule="evenodd"><path d="M1008 550.189v32.293l27.999 16.148v-32.293L1008 550.189Z" fill="#5a5a5a11" stroke-width=".21000375"/><path d="M1035.999 598.63 1064 582.482V550.19l-28.001 16.148v32.293Z" fill="#5a5a5a0c" stroke-width=".21000375"/><path d="m1008 550.189 27.999-16.146L1064 550.19l-28.001 16.148L1008 550.189Z" fill="#5a5a5a06" stroke-width=".21000375"/></g><g fill="none"><path d="M1064 550.189v32.293l27.999 16.148v-32.293L1064 550.189ZM1091.999 598.63 1120 582.482V550.19l-28.001 16.148v32.293Z" stroke-width=".21000375"/><path d="m1064 550.189 27.999-16.146L1120 550.19l-28.001 16.148L1064 550.189Z" stroke-width=".21000375"/></g><g fill-rule="evenodd"><path d="M28 598.722v32.293l27.999 16.148V614.87L28 598.722Z" fill="#5a5a5a79" stroke-width=".21000375"/><path d="M55.999 647.163 84 631.015v-32.293L55.999 614.87v32.293Z" fill="#5a5a5a55" stroke-width=".21000375"/><path d="m28 598.722 27.999-16.145L84 598.722 55.999 614.87 28 598.722Z" fill="#5a5a5a2a" stroke-width=".21000375"/></g><g fill="none"><path d="M84 598.722v32.293l27.999 16.148V614.87L84 598.722ZM111.999 647.163 140 631.015v-32.293l-28.001 16.148v32.293Z" stroke-width=".21000375"/><path d="m84 598.722 27.999-16.145L140 598.722l-28.001 16.148L84 598.722Z" stroke-width=".21000375"/></g><g fill-rule="evenodd"><path d="M140 598.722v32.293l27.999 16.148V614.87L140 598.722Z" fill="#5a5a5a7f" stroke-width=".21000375"/><path d="M167.999 647.163 196 631.015v-32.293l-28.001 16.148v32.293Z" fill="#5a5a5a59" stroke-width=".21000375"/><path d="m140 598.722 27.999-16.145L196 598.722l-28.001 16.148L140 598.722Z" fill="#5a5a5a2c" stroke-width=".21000375"/></g><g fill="none"><path d="M196 598.722v32.293l27.999 16.148V614.87L196 598.722ZM223.999 647.163 252 631.015v-32.293l-28.001 16.148v32.293Z" stroke-width=".21000375"/><path d="m196 598.722 27.999-16.145L252 598.722l-28.001 16.148L196 598.722Z" stroke-width=".21000375"/></g><g fill="none"><path d="M252 598.722v32.293l27.999 16.148V614.87L252 598.722ZM279.999 647.163 308 631.015v-32.293l-28.001 16.148v32.293Z" stroke-width=".21000375"/><path d="m252 598.722 27.999-16.145L308 598.722l-28.001 16.148L252 598.722Z" stroke-width=".21000375"/></g><g fill-rule="evenodd"><path d="M308 598.722v32.293l27.999 16.148V614.87L308 598.722Z" fill="#5a5a5a40" stroke-width=".21000375"/><path d="M335.999 647.163 364 631.015v-32.293l-28.001 16.148v32.293Z" fill="#5a5a5a2d" stroke-width=".21000375"/><path d="m308 598.722 27.999-16.145L364 598.722l-28.001 16.148L308 598.722Z" fill="#5a5a5a17" stroke-width=".21000375"/></g><g fill="none"><path d="M364 598.722v32.293l27.999 16.148V614.87L364 598.722ZM391.999 647.163 420 631.015v-32.293l-28.001 16.148v32.293Z" stroke-width=".21000375"/><path d="m364 598.722 27.999-16.145L420 598.722l-28.001 16.148L364 598.722Z" stroke-width=".21000375"/></g><g fill="none"><path d="M420 598.722v32.293l27.999 16.148V614.87L420 598.722ZM447.999 647.163 476 631.015v-32.293l-28.001 16.148v32.293Z" stroke-width=".21000375"/><path d="m420 598.722 27.999-16.145L476 598.722l-28.001 16.148L420 598.722Z" stroke-width=".21000375"/></g><g fill-rule="evenodd"><path d="M476 598.722v32.293l27.999 16.148V614.87L476 598.722Z" fill="#5a5a5ab0" stroke-width=".21000375"/><path d="M503.999 647.163 532 631.015v-32.293l-28.001 16.148v32.293Z" fill="#5a5a5a7b" stroke-width=".21000375"/><path d="m476 598.722 27.999-16.145L532 598.722l-28.001 16.148L476 598.722Z" fill="#5a5a5a3d" stroke-width=".21000375"/></g><g fill-rule="evenodd"><path d="M532 598.722v32.293l27.999 16.148V614.87L532 598.722Z" fill="#5a5a5a17" stroke-width=".21000375"/><path d="M559.999 647.163 588 631.015v-32.293l-28.001 16.148v32.293Z" fill="#5a5a5a10" stroke-width=".21000375"/><path d="m532 598.722 27.999-16.145L588 598.722l-28.001 16.148L532 598.722Z" fill="#5a5a5a08" stroke-width=".21000375"/></g><g fill="none"><path d="M588 598.722v32.293l27.999 16.148V614.87L588 598.722ZM615.999 647.163 644 631.015v-32.293l-28.001 16.148v32.293Z" stroke-width=".21000375"/><path d="m588 598.722 27.999-16.145L644 598.722l-28.001 16.148L588 598.722Z" stroke-width=".21000375"/></g><g fill="none"><path d="M644 598.722v32.293l27.999 16.148V614.87L644 598.722ZM671.999 647.163 700 631.015v-32.293l-28.001 16.148v32.293Z" stroke-width=".21000375"/><path d="m644 598.722 27.999-16.145L700 598.722l-28.001 16.148L644 598.722Z" stroke-width=".21000375"/></g><g fill-rule="evenodd"><path d="M700 598.722v32.293l27.999 16.148V614.87L700 598.722Z" fill="#5a5a5a66" stroke-width=".21000375"/><path d="M727.999 647.163 756 631.015v-32.293l-28.001 16.148v32.293Z" fill="#5a5a5a47" stroke-width=".21000375"/><path d="m700 598.722 27.999-16.145L756 598.722l-28.001 16.148L700 598.722Z" fill="#5a5a5a24" stroke-width=".21000375"/></g><g fill="none"><path d="M756 598.722v32.293l27.999 16.148V614.87L756 598.722ZM783.999 647.163 812 631.015v-32.293l-28.001 16.148v32.293Z" stroke-width=".21000375"/><path d="m756 598.722 27.999-16.145L812 598.722l-28.001 16.148L756 598.722Z" stroke-width=".21000375"/></g><g fill-rule="evenodd"><path d="M812 598.722v32.293l27.999 16.148V614.87L812 598.722Z" fill="#5a5a5a20" stroke-width=".21000375"/><path d="M839.999 647.163 868 631.015v-32.293l-28.001 16.148v32.293Z" fill="#5a5a5a16" stroke-width=".21000375"/><path d="m812 598.722 27.999-16.145L868 598.722l-28.001 16.148L812 598.722Z" fill="#5a5a5a0b" stroke-width=".21000375"/></g><g fill="none"><path d="M868 598.722v32.293l27.999 16.148V614.87L868 598.722ZM895.999 647.163 924 631.015v-32.293l-28.001 16.148v32.293Z" stroke-width=".21000375"/><path d="m868 598.722 27.999-16.145L924 598.722l-28.001 16.148L868 598.722Z" stroke-width=".21000375"/></g><g fill-rule="evenodd"><path d="M924 598.722v32.293l27.999 16.148V614.87L924 598.722Z" fill="#5a5a5ab7" stroke-width=".21000375"/><path d="M951.999 647.163 980 631.015v-32.293l-28.001 16.148v32.293Z" fill="#5a5a5a80" stroke-width=".21000375"/><path d="m924 598.722 27.999-16.145L980 598.722l-28.001 16.148L924 598.722Z" fill="#5a5a5a40" stroke-width=".21000375"/></g><g fill="none"><path d="M980 598.722v32.293l27.999 16.148V614.87L980 598.722ZM1007.999 647.163 1036 631.015v-32.293l-28.001 16.148v32.293Z" stroke-width=".21000375"/><path d="m980 598.722 27.999-16.145L1036 598.722l-28.001 16.148L980 598.722Z" stroke-width=".21000375"/></g><g fill="none"><path d="M1036 598.722v32.293l27.999 16.148V614.87L1036 598.722ZM1063.999 647.163 1092 631.015v-32.293l-28.001 16.148v32.293Z" stroke-width=".21000375"/><path d="m1036 598.722 27.999-16.145L1092 598.722l-28.001 16.148L1036 598.722Z" stroke-width=".21000375"/></g><g fill-rule="evenodd"><path d="M1092 598.722v32.293l27.999 16.148V614.87L1092 598.722Z" fill="#5a5a5a62" stroke-width=".21000375"/><path d="M1119.999 647.163 1148 631.015v-32.293l-28.001 16.148v32.293Z" fill="#5a5a5a44" stroke-width=".21000375"/><path d="m1092 598.722 27.999-16.145L1148 598.722l-28.001 16.148L1092 598.722Z" fill="#5a5a5a22" stroke-width=".21000375"/></g><g fill-rule="evenodd"><path d="M0 647.255v32.294l27.999 16.148v-32.294L0 647.255Z" fill="#5a5a5a21" stroke-width=".21000375"/><path d="M27.999 695.697 56 679.549v-32.294l-28.001 16.148v32.294Z" fill="#5a5a5a17" stroke-width=".21000375"/><path d="m0 647.255 27.999-16.145L56 647.255l-28.001 16.148L0 647.255Z" fill="#5a5a5a0c" stroke-width=".21000375"/></g><g fill="none"><path d="M56 647.255v32.294l27.999 16.148v-32.294L56 647.255ZM83.999 695.697 112 679.549v-32.294l-28.001 16.148v32.294Z" stroke-width=".21000375"/><path d="m56 647.255 27.999-16.145L112 647.255l-28.001 16.148L56 647.255Z" stroke-width=".21000375"/></g><g fill-rule="evenodd"><path d="M112 647.255v32.294l27.999 16.148v-32.294L112 647.255Z" fill="#5a5a5a9c" stroke-width=".21000375"/><path d="M139.999 695.697 168 679.549v-32.294l-28.001 16.148v32.294Z" fill="#5a5a5a6d" stroke-width=".21000375"/><path d="m112 647.255 27.999-16.145L168 647.255l-28.001 16.148L112 647.255Z" fill="#5a5a5a37" stroke-width=".21000375"/></g><g fill="none"><path d="M168 647.255v32.294l27.999 16.148v-32.294L168 647.255ZM195.999 695.697 224 679.549v-32.294l-28.001 16.148v32.294Z" stroke-width=".21000375"/><path d="m168 647.255 27.999-16.145L224 647.255l-28.001 16.148L168 647.255Z" stroke-width=".21000375"/></g><g fill="none"><path d="M224 647.255v32.294l27.999 16.148v-32.294L224 647.255ZM251.999 695.697 280 679.549v-32.294l-28.001 16.148v32.294Z" stroke-width=".21000375"/><path d="m224 647.255 27.999-16.145L280 647.255l-28.001 16.148L224 647.255Z" stroke-width=".21000375"/></g><g fill="none"><path d="M280 647.255v32.294l27.999 16.148v-32.294L280 647.255ZM307.999 695.697 336 679.549v-32.294l-28.001 16.148v32.294Z" stroke-width=".21000375"/><path d="m280 647.255 27.999-16.145L336 647.255l-28.001 16.148L280 647.255Z" stroke-width=".21000375"/></g><g fill-rule="evenodd"><path d="M336 647.255v32.294l27.999 16.148v-32.294L336 647.255Z" fill="#5a5a5afe" stroke-width=".21000375"/><path d="M363.999 695.697 392 679.549v-32.294l-28.001 16.148v32.294Z" fill="#5a5a5ab2" stroke-width=".21000375"/><path d="m336 647.255 27.999-16.145L392 647.255l-28.001 16.148L336 647.255Z" fill="#5a5a5a59" stroke-width=".21000375"/></g><g fill-rule="evenodd"><path d="M392 647.255v32.294l27.999 16.148v-32.294L392 647.255Z" fill="#5a5a5a85" stroke-width=".21000375"/><path d="M419.999 695.697 448 679.549v-32.294l-28.001 16.148v32.294Z" fill="#5a5a5a5d" stroke-width=".21000375"/><path d="m392 647.255 27.999-16.145L448 647.255l-28.001 16.148L392 647.255Z" fill="#5a5a5a2f" stroke-width=".21000375"/></g><g fill="none"><path d="M448 647.255v32.294l27.999 16.148v-32.294L448 647.255ZM475.999 695.697 504 679.549v-32.294l-28.001 16.148v32.294Z" stroke-width=".21000375"/><path d="m448 647.255 27.999-16.145L504 647.255l-28.001 16.148L448 647.255Z" stroke-width=".21000375"/></g><g fill="none"><path d="M504 647.255v32.294l27.999 16.148v-32.294L504 647.255ZM531.999 695.697 560 679.549v-32.294l-28.001 16.148v32.294Z" stroke-width=".21000375"/><path d="m504 647.255 27.999-16.145L560 647.255l-28.001 16.148L504 647.255Z" stroke-width=".21000375"/></g><g fill="none"><path d="M560 647.255v32.294l27.999 16.148v-32.294L560 647.255ZM587.999 695.697 616 679.549v-32.294l-28.001 16.148v32.294Z" stroke-width=".21000375"/><path d="m560 647.255 27.999-16.145L616 647.255l-28.001 16.148L560 647.255Z" stroke-width=".21000375"/></g><g fill="none"><path d="M616 647.255v32.294l27.999 16.148v-32.294L616 647.255ZM643.999 695.697 672 679.549v-32.294l-28.001 16.148v32.294Z" stroke-width=".21000375"/><path d="m616 647.255 27.999-16.145L672 647.255l-28.001 16.148L616 647.255Z" stroke-width=".21000375"/></g><g fill="none"><path d="M672 647.255v32.294l27.999 16.148v-32.294L672 647.255ZM699.999 695.697 728 679.549v-32.294l-28.001 16.148v32.294Z" stroke-width=".21000375"/><path d="m672 647.255 27.999-16.145L728 647.255l-28.001 16.148L672 647.255Z" stroke-width=".21000375"/></g><g fill-rule="evenodd"><path d="M728 647.255v32.294l27.999 16.148v-32.294L728 647.255Z" fill="#5a5a5a5a" stroke-width=".21000375"/><path d="M755.999 695.697 784 679.549v-32.294l-28.001 16.148v32.294Z" fill="#5a5a5a3f" stroke-width=".21000375"/><path d="m728 647.255 27.999-16.145L784 647.255l-28.001 16.148L728 647.255Z" fill="#5a5a5a20" stroke-width=".21000375"/></g><g fill="none"><path d="M784 647.255v32.294l27.999 16.148v-32.294L784 647.255ZM811.999 695.697 840 679.549v-32.294l-28.001 16.148v32.294Z" stroke-width=".21000375"/><path d="m784 647.255 27.999-16.145L840 647.255l-28.001 16.148L784 647.255Z" stroke-width=".21000375"/></g><g fill="none"><path d="M840 647.255v32.294l27.999 16.148v-32.294L840 647.255ZM867.999 695.697 896 679.549v-32.294l-28.001 16.148v32.294Z" stroke-width=".21000375"/><path d="m840 647.255 27.999-16.145L896 647.255l-28.001 16.148L840 647.255Z" stroke-width=".21000375"/></g><g fill="none"><path d="M896 647.255v32.294l27.999 16.148v-32.294L896 647.255ZM923.999 695.697 952 679.549v-32.294l-28.001 16.148v32.294Z" stroke-width=".21000375"/><path d="m896 647.255 27.999-16.145L952 647.255l-28.001 16.148L896 647.255Z" stroke-width=".21000375"/></g><g fill="none"><path d="M952 647.255v32.294l27.999 16.148v-32.294L952 647.255ZM979.999 695.697 1008 679.549v-32.294l-28.001 16.148v32.294Z" stroke-width=".21000375"/><path d="m952 647.255 27.999-16.145L1008 647.255l-28.001 16.148L952 647.255Z" stroke-width=".21000375"/></g><g fill-rule="evenodd"><path d="M1008 647.255v32.294l27.999 16.148v-32.294L1008 647.255Z" fill="#5a5a5a4e" stroke-width=".21000375"/><path d="M1035.999 695.697 1064 679.549v-32.294l-28.001 16.148v32.294Z" fill="#5a5a5a36" stroke-width=".21000375"/><path d="m1008 647.255 27.999-16.145L1064 647.255l-28.001 16.148L1008 647.255Z" fill="#5a5a5a1b" stroke-width=".21000375"/></g><g fill-rule="evenodd"><path d="M1064 647.255v32.294l27.999 16.148v-32.294L1064 647.255Z" fill="#5a5a5a71" stroke-width=".21000375"/><path d="M1091.999 695.697 1120 679.549v-32.294l-28.001 16.148v32.294Z" fill="#5a5a5a4f" stroke-width=".21000375"/><path d="m1064 647.255 27.999-16.145L1120 647.255l-28.001 16.148L1064 647.255Z" fill="#5a5a5a28" stroke-width=".21000375"/></g></g><defs><radialGradient id="a"><stop offset="0" stop-color="#fff"/><stop offset="1" stop-color="#fff" stop-opacity="0"/></radialGradient></defs></svg>